SplineFontDB: 3.0
FontName: CustomFont
FullName: CustomFont
FamilyName: CustomFont
Weight: Normal
Copyright: 
Version: 1.10 May 1, 2012
ItalicAngle: 0
UnderlinePosition: -292
UnderlineWidth: 150
Ascent: 1638
Descent: 410
InvalidEm: 0
sfntRevision: 0x0001199a
LayerCount: 2
Layer: 0 1 "Back" 1
Layer: 1 1 "Fore" 0
XUID: [1021 191 352599025 18775]
StyleMap: 0x0000
FSType: 8
OS2Version: 3
OS2_WeightWidthSlopeOnly: 0
OS2_UseTypoMetrics: 0
CreationTime: 1273845575
ModificationTime: 1558307081
PfmFamily: 17
TTFWeight: 400
TTFWidth: 5
LineGap: 0
VLineGap: 0
Panose: 2 0 5 0 0 0 0 0 0 0
OS2TypoAscent: 1428
OS2TypoAOffset: 0
OS2TypoDescent: -521
OS2TypoDOffset: 0
OS2TypoLinegap: 205
OS2WinAscent: 1695
OS2WinAOffset: 0
OS2WinDescent: 932
OS2WinDOffset: 0
HheadAscent: 1695
HheadAOffset: 0
HheadDescent: -932
HheadDOffset: 0
OS2SubXSize: 1434
OS2SubYSize: 1331
OS2SubXOff: 0
OS2SubYOff: 283
OS2SupXSize: 1434
OS2SupYSize: 1331
OS2SupXOff: 0
OS2SupYOff: 977
OS2StrikeYSize: 102
OS2StrikeYPos: 530
OS2CapHeight: 1434
OS2XHeight: 1024
OS2FamilyClass: 2063
OS2Vendor: 'SST '
OS2CodePages: 20000001.80000000
OS2UnicodeRanges: 800000a7.5000004a.00000000.00000000
MacStyle: 0
Lookup: 258 0 0 "'kern' Horizontal Kerning in Latin lookup 0" { "'kern' Horizontal Kerning in Latin lookup 0 subtable"  } ['kern' ('latn' <'dflt' > ) ]
MarkAttachClasses: 1
DEI: 91125
ShortTable: maxp 16
  1
  0
  236
  155
  5
  0
  0
  0
  0
  0
  0
  0
  0
  0
  0
  0
EndShort
LangName: 1055 "" "" "Kal+ATEA-n"
LangName: 1053 "" "" "Fet"
LangName: 2058 "" "" "Negrita"
LangName: 1034 "" "" "Negrita"
LangName: 3082 "" "" "Negrita"
LangName: 1060 "" "" "Krepko"
LangName: 1051 "" "" "Tu+AQ0A-n+AOkA"
LangName: 1049 "" "" "+BB8EPgQ7BEMENgQ4BEAEPQRLBDkA"
LangName: 1046 "" "" "Negrito"
LangName: 2070 "" "" "Negrito"
LangName: 1045 "" "" "Pogrubiony"
LangName: 1044 "" "" "Halvfet"
LangName: 1040 "" "" "Grassetto"
LangName: 1038 "" "" "F+AOkA-lk+APYA-v+AOkA-r"
LangName: 1032 "" "" "+A4gDvQPEA78DvQOx"
LangName: 1031 "" "" "Fett"

StartChar: exclam
Encoding: 33 33 0
Width: 579
Flags: W
LayerCount: 2
Fore
SplineSet
526 1255 m 1,0,1
 368 735 368 735 297 387 c 0,2,3
 297 382 297 382 293 382 c 0,4,5
 292 382 292 382 289 383 c 0,6,7
 278 383 278 383 249.5 388 c 128,-1,8
 221 393 221 393 207 393 c 0,9,10
 205 393 205 393 187.5 392 c 128,-1,11
 170 391 170 391 162 391 c 0,12,13
 153 391 153 391 153 397 c 0,14,15
 174 582 174 582 204.5 938 c 128,-1,16
 235 1294 235 1294 239 1339 c 0,17,18
 243 1346 243 1346 248 1346 c 2,19,-1
 250 1346 l 1,20,21
 405 1294 405 1294 520 1266 c 0,22,23
 526 1263 526 1263 526 1258 c 2,24,-1
 526 1255 l 1,0,1
338 121 m 0,25,26
 338 66 338 66 291 31 c 128,-1,27
 244 -4 244 -4 186 -4 c 0,28,29
 135 -4 135 -4 93 29.5 c 128,-1,30
 51 63 51 63 51 117 c 0,31,32
 51 180 51 180 93 219 c 128,-1,33
 135 258 135 258 196 258 c 0,34,35
 256 258 256 258 297 219 c 128,-1,36
 338 180 338 180 338 121 c 0,25,26
EndSplineSet
Validated: 1
EndChar

StartChar: quotedbl
Encoding: 34 34 1
Width: 778
Flags: W
LayerCount: 2
Fore
SplineSet
716 1311 m 1,0,-1
 716 1298 l 2,1,2
 716 1245 716 1245 689 1181 c 0,3,4
 657 1108 657 1108 610 1073 c 0,5,6
 552 1034 552 1034 503 1034 c 0,7,8
 492 1034 492 1034 492 1040 c 256,9,10
 492 1046 492 1046 499 1055 c 0,11,12
 536 1094 536 1094 550 1174 c 0,13,14
 551 1176 551 1176 551 1178 c 0,15,16
 551 1182 551 1182 544 1182 c 0,17,18
 438 1184 438 1184 425 1321 c 1,19,-1
 425 1330 l 2,20,21
 425 1372 425 1372 461 1414 c 0,22,23
 501 1460 501 1460 554 1464 c 0,24,25
 562 1465 562 1465 570 1465 c 0,26,27
 631 1465 631 1465 668 1424 c 0,28,29
 710 1378 710 1378 716 1311 c 1,0,-1
345 1280 m 0,30,31
 345 1223 345 1223 308.5 1158.5 c 128,-1,32
 272 1094 272 1094 225 1065 c 0,33,34
 208 1055 208 1055 174 1043 c 0,35,36
 144 1032 144 1032 125 1032 c 2,37,-1
 120 1032 l 2,38,39
 107 1033 107 1033 107 1039 c 0,40,41
 107 1043 107 1043 112 1049 c 0,42,43
 167 1106 167 1106 188 1163 c 0,44,45
 189 1165 189 1165 189 1166 c 0,46,47
 189 1170 189 1170 182 1174 c 1,48,49
 128 1174 128 1174 99.5 1214.5 c 128,-1,50
 71 1255 71 1255 71 1313 c 0,51,52
 71 1358 71 1358 113 1398 c 128,-1,53
 155 1438 155 1438 204 1438 c 0,54,55
 274 1438 274 1438 309.5 1390.5 c 128,-1,56
 345 1343 345 1343 345 1280 c 0,30,31
EndSplineSet
Validated: 1
EndChar

StartChar: numbersign
Encoding: 35 35 2
Width: 1669
Flags: W
LayerCount: 2
Fore
SplineSet
440 491 m 1,0,1
 443 508 443 508 445 524 c 0,2,3
 454 581 454 581 462 633 c 1,4,5
 209 654 209 654 137 654 c 2,6,-1
 132 654 l 2,7,8
 124 657 124 657 124 662 c 2,9,-1
 124 664 l 1,10,11
 134 693 134 693 161 753 c 0,12,13
 186 806 186 806 194 830 c 0,14,15
 198 836 198 836 200 836 c 0,16,17
 244 832 244 832 487 794 c 1,18,19
 523 1026 523 1026 540 1098 c 0,20,21
 540 1099 540 1099 548 1102 c 0,22,23
 573 1102 573 1102 631 1109 c 0,24,25
 696 1116 696 1116 727 1117 c 0,26,27
 735 1116 735 1116 735 1107 c 0,28,29
 712 1041 712 1041 649 769 c 1,30,31
 715 759 715 759 790 746 c 1,32,33
 835 1033 835 1033 854 1114 c 1,34,-1
 854 1115 l 2,35,36
 854 1116 854 1116 862 1119 c 2,37,-1
 868 1119 l 2,38,39
 893 1119 893 1119 945 1125 c 0,40,41
 1009 1132 1009 1132 1041 1134 c 0,42,43
 1048 1132 1048 1132 1048 1123 c 0,44,45
 1022 1049 1022 1049 947 720 c 1,46,47
 1115 693 1115 693 1320 659 c 1,48,-1
 1321 659 l 2,49,50
 1325 659 1325 659 1326 653 c 2,51,-1
 1313 557 l 2,52,53
 1312 551 1312 551 1306 551 c 2,54,-1
 1303 551 l 1,55,56
 1250 556 1250 556 919 590 c 1,57,58
 918 586 918 586 917 582 c 0,59,60
 898 495 898 495 882 419 c 1,61,62
 1032 396 1032 396 1209 366 c 1,63,-1
 1210 366 l 2,64,65
 1214 366 1214 366 1215 359 c 1,66,67
 1215 359 1215 359 1215 359 c 128,-1,69
 1215 359 1215 359 1201 263 c 0,70,71
 1200 257 1200 257 1195 257 c 2,72,-1
 1192 257 l 1,73,74
 1142 262 1142 262 855 292 c 1,75,76
 798 22 798 22 788 -24 c 0,77,78
 786 -31 786 -31 780 -31 c 2,79,-1
 779 -31 l 1,80,81
 687 -15 687 -15 684 -15 c 0,82,83
 679 -11 679 -11 679 -9 c 2,84,-1
 679 -7 l 2,85,86
 680 1 680 1 709 201 c 0,87,88
 717 255 717 255 724 305 c 1,89,90
 655 312 655 312 576 320 c 0,91,92
 563 321 563 321 551 323 c 1,93,94
 485 11 485 11 474 -40 c 0,95,96
 473 -47 473 -47 468 -47 c 2,97,-1
 466 -47 l 1,98,99
 383 -33 383 -33 370 -31 c 0,100,101
 366 -28 366 -28 366 -25 c 2,102,-1
 366 -23 l 2,103,104
 367 -16 367 -16 395 184 c 0,105,106
 406 264 406 264 417 335 c 1,107,108
 116 361 116 361 30 361 c 2,109,-1
 21 361 l 2,110,111
 13 363 13 363 13 368 c 2,112,-1
 13 371 l 1,113,114
 23 400 23 400 50 459 c 0,115,116
 75 513 75 513 82 536 c 0,117,118
 86 542 86 542 88 542 c 0,119,120
 137 539 137 539 440 491 c 1,0,1
615 620 m 1,121,122
 609 594 609 594 603 566 c 0,123,124
 592 515 592 515 583 469 c 1,125,126
 657 456 657 456 744 442 c 1,127,128
 752 493 752 493 758 540 c 0,129,130
 763 574 763 574 768 605 c 1,131,132
 729 609 729 609 687 614 c 0,133,134
 650 617 650 617 615 620 c 1,121,122
EndSplineSet
Validated: 5
EndChar

StartChar: dollar
Encoding: 36 36 3
Width: 864
Flags: W
LayerCount: 2
Fore
SplineSet
749 382 m 0,0,1
 769 335 769 335 769 276 c 0,2,3
 769 144 769 144 649 72 c 0,4,5
 548 11 548 11 416 0 c 1,6,7
 405 -70 405 -70 400 -100 c 0,8,9
 399 -106 399 -106 396 -106 c 0,10,11
 395 -106 395 -106 394 -105 c 0,12,13
 353 -97 353 -97 299 -79 c 1,14,-1
 298 -79 l 2,15,16
 296 -79 296 -79 295 -72 c 0,17,18
 297 -55 297 -55 303 0 c 1,19,20
 172 9 172 9 77 69 c 1,21,-1
 77 70 l 1,22,23
 87 92 87 92 97 119 c 0,24,25
 108 148 108 148 119 184 c 0,26,27
 130 219 130 219 137 236 c 1,28,29
 245 178 245 178 321 162 c 1,30,31
 326 211 326 211 332 266 c 0,32,33
 342 362 342 362 353 462 c 1,34,35
 292 486 292 486 283 490 c 0,36,37
 203 527 203 527 161 601 c 0,38,39
 118 675 118 675 118 767 c 0,40,41
 118 901 118 901 224 987 c 0,42,43
 310 1056 310 1056 424 1070 c 1,44,45
 436 1166 436 1166 444 1209 c 0,46,47
 447 1214 447 1214 450 1215 c 0,48,49
 459 1214 459 1214 473 1214 c 0,50,51
 497 1214 497 1214 534 1217 c 0,52,53
 555 1218 555 1218 577 1221 c 0,54,55
 594 1224 594 1224 604 1224 c 0,56,57
 610 1222 610 1222 610 1218 c 2,58,-1
 610 1215 l 1,59,60
 603 1173 603 1173 586 1061 c 1,61,62
 656 1044 656 1044 718 1005 c 1,63,64
 703 979 703 979 679 929 c 0,65,66
 654 878 654 878 640 849 c 0,67,68
 639 849 639 849 639 850 c 0,69,70
 597 870 597 870 559 881 c 1,71,72
 536 731 536 731 514 592 c 0,73,74
 512 578 512 578 510 563 c 0,75,76
 512 562 512 562 513 561 c 0,77,78
 572 537 572 537 610 515 c 0,79,80
 647 494 647 494 688 460 c 0,81,82
 729 428 729 428 749 382 c 0,0,1
365 619 m 0,83,84
 375 612 375 612 383 605 c 1,85,86
 396 718 396 718 409 828 c 0,87,88
 411 846 411 846 413 864 c 1,89,90
 392 855 392 855 372 842 c 0,91,92
 311 804 311 804 311 736 c 2,93,-1
 311 734 l 2,94,95
 311 697 311 697 322 670 c 0,96,97
 333 642 333 642 365 619 c 0,83,84
529 148 m 0,98,99
 579 182 579 182 579 249 c 2,100,-1
 579 252 l 2,101,102
 579 296 579 296 541 335 c 0,103,104
 520 356 520 356 499 371 c 1,105,106
 479 254 479 254 466 174 c 0,107,108
 460 138 460 138 457 120 c 1,109,110
 501 128 501 128 529 148 c 0,98,99
EndSplineSet
Validated: 1
EndChar

StartChar: percent
Encoding: 37 37 4
Width: 1261
Flags: W
LayerCount: 2
Fore
SplineSet
1009 1042 m 0,0,1
 953 967 953 967 728 567 c 0,2,3
 462 86 462 86 431 31 c 0,4,5
 428 26 428 26 425 26 c 0,6,7
 423 26 423 26 421 27 c 2,8,-1
 335 70 l 2,9,10
 332 73 332 73 332 75 c 256,11,12
 332 77 332 77 333 78 c 0,13,14
 335 84 335 84 418 260 c 128,-1,15
 501 436 501 436 568.5 578.5 c 128,-1,16
 636 721 636 721 714 879.5 c 128,-1,17
 792 1038 792 1038 822 1090 c 0,18,19
 822 1092 822 1092 831 1092 c 0,20,21
 853 1083 853 1083 914.5 1073 c 128,-1,22
 976 1063 976 1063 1005 1055 c 0,23,24
 1010 1052 1010 1052 1010 1046 c 0,25,26
 1010 1044 1010 1044 1009 1042 c 0,0,1
1179 315 m 0,27,28
 1179 182 1179 182 1115.5 94 c 128,-1,29
 1052 6 1052 6 925 6 c 0,30,31
 833 6 833 6 774.5 76.5 c 128,-1,32
 716 147 716 147 716 244 c 0,33,34
 716 373 716 373 775.5 465 c 128,-1,35
 835 557 835 557 955 557 c 0,36,37
 1058 557 1058 557 1118.5 488.5 c 128,-1,38
 1179 420 1179 420 1179 315 c 0,27,28
577 854 m 0,39,40
 577 748 577 748 503 659.5 c 128,-1,41
 429 571 429 571 325 571 c 0,42,43
 216 571 216 571 148.5 656 c 128,-1,44
 81 741 81 741 81 854 c 0,45,46
 81 977 81 977 146.5 1057 c 128,-1,47
 212 1137 212 1137 333 1137 c 0,48,49
 452 1137 452 1137 514.5 1055 c 128,-1,50
 577 973 577 973 577 854 c 0,39,40
1044 301 m 0,51,52
 1044 426 1044 426 962 426 c 0,53,54
 904 426 904 426 878.5 374 c 128,-1,55
 853 322 853 322 853 256 c 0,56,57
 853 211 853 211 877.5 176 c 128,-1,58
 902 141 902 141 943 141 c 0,59,60
 990 141 990 141 1017 195.5 c 128,-1,61
 1044 250 1044 250 1044 301 c 0,51,52
429 887 m 0,62,63
 429 936 429 936 402.5 970 c 128,-1,64
 376 1004 376 1004 327 1004 c 0,65,66
 228 1004 228 1004 228 865 c 0,67,68
 228 725 228 725 321 725 c 0,69,70
 429 725 429 725 429 887 c 0,62,63
EndSplineSet
Validated: 1
EndChar

StartChar: ampersand
Encoding: 38 38 5
Width: 962
Flags: W
LayerCount: 2
Fore
SplineSet
907 420 m 0,0,1
 848 338 848 338 760 211 c 0,2,3
 752 201 752 201 752 195 c 0,4,5
 752 192 752 192 754 190 c 0,6,7
 823 106 823 106 854 66 c 0,8,9
 856 64 856 64 856 61 c 0,10,11
 856 59 856 59 854 57 c 0,12,13
 815 6 815 6 766 -53 c 0,14,15
 763 -56 763 -56 760 -56 c 256,16,17
 757 -56 757 -56 754 -53 c 0,18,19
 702 29 702 29 659 88 c 0,20,21
 656 91 656 91 654 91 c 256,22,23
 652 91 652 91 651 88 c 0,24,25
 522 0 522 0 401 0 c 2,26,-1
 385 0 l 1,27,28
 252 8 252 8 172 87 c 0,29,30
 98 160 98 160 98 281 c 2,31,-1
 98 299 l 1,32,33
 108 444 108 444 262 578 c 0,34,35
 264 580 264 580 265 583 c 2,36,-1
 265 585 l 2,37,38
 265 587 265 587 264 588 c 0,39,40
 215 653 215 653 184 711 c 0,41,42
 132 805 132 805 132 913 c 0,43,44
 132 924 132 924 133 936 c 0,45,46
 139 1059 139 1059 237 1132 c 0,47,48
 327 1198 327 1198 445 1198 c 2,49,-1
 465 1198 l 1,50,51
 590 1192 590 1192 669 1102 c 0,52,53
 738 1022 738 1022 738 916 c 0,54,55
 738 903 738 903 737 889 c 0,56,57
 733 844 733 844 712.5 802 c 128,-1,58
 692 760 692 760 674.5 734.5 c 128,-1,59
 657 709 657 709 608 668 c 128,-1,60
 559 627 559 627 545.5 617.5 c 128,-1,61
 532 608 532 608 473 565 c 0,62,63
 469 564 469 564 469 561 c 256,64,65
 469 558 469 558 471 555 c 0,66,67
 504 506 504 506 512 498 c 0,68,69
 600 387 600 387 643 332 c 0,70,71
 646 329 646 329 648 329 c 0,72,73
 652 329 652 329 655 334 c 0,74,75
 704 426 704 426 768 539 c 0,76,77
 770 544 770 544 773 544 c 0,78,79
 775 544 775 544 778 541 c 0,80,81
 799 524 799 524 847 482 c 128,-1,82
 895 440 895 440 907 430 c 0,83,84
 909 428 909 428 909 426 c 0,85,86
 909 423 909 423 907 420 c 0,0,1
571 881 m 2,87,-1
 571 893 l 2,88,89
 571 943 571 943 543 986 c 0,90,91
 510 1034 510 1034 446 1038 c 1,92,-1
 436 1038 l 2,93,94
 383 1038 383 1038 336 1000 c 0,95,96
 285 958 285 958 282 899 c 2,97,-1
 282 891 l 2,98,99
 282 851 282 851 300 807 c 0,100,101
 319 758 319 758 338.5 731.5 c 128,-1,102
 358 705 358 705 397 655 c 0,103,104
 401 652 401 652 403 652 c 0,105,106
 404 652 404 652 405 653 c 0,107,108
 416 659 416 659 432 672 c 0,109,110
 483 711 483 711 526 768 c 128,-1,111
 569 825 569 825 571 881 c 2,87,-1
547 207 m 1,112,-1
 547 215 l 1,113,114
 510 258 510 258 440.5 350 c 128,-1,115
 371 442 371 442 352 465 c 0,116,117
 350 467 350 467 347 468 c 2,118,-1
 345 468 l 2,119,120
 343 468 343 468 342 467 c 0,121,122
 285 412 285 412 262 369 c 0,123,124
 242 331 242 331 242 276 c 2,125,-1
 242 262 l 2,126,127
 242 205 242 205 285 172 c 128,-1,128
 328 139 328 139 381 137 c 0,129,130
 389 136 389 136 397 136 c 0,131,132
 431 136 431 136 470 150 c 0,133,134
 518 166 518 166 547 207 c 1,112,-1
EndSplineSet
Validated: 1
EndChar

StartChar: quotesingle
Encoding: 39 39 6
Width: 397
Flags: W
LayerCount: 2
Fore
SplineSet
345 1280 m 0,0,1
 345 1223 345 1223 308.5 1158.5 c 128,-1,2
 272 1094 272 1094 225 1065 c 0,3,4
 175 1031 175 1031 133 1031 c 0,5,6
 126 1031 126 1031 120 1032 c 0,7,8
 107 1036 107 1036 107 1041 c 0,9,10
 107 1045 107 1045 112 1049 c 0,11,12
 167 1098 167 1098 188 1161 c 0,13,14
 189 1163 189 1163 189 1165 c 0,15,16
 189 1170 189 1170 182 1174 c 0,17,18
 126 1176 126 1176 98.5 1214.5 c 128,-1,19
 71 1253 71 1253 71 1313 c 0,20,21
 71 1358 71 1358 113 1398 c 128,-1,22
 155 1438 155 1438 204 1438 c 0,23,24
 274 1438 274 1438 309.5 1390.5 c 128,-1,25
 345 1343 345 1343 345 1280 c 0,0,1
EndSplineSet
Validated: 1
EndChar

StartChar: parenleft
Encoding: 40 40 7
Width: 645
Flags: W
LayerCount: 2
Fore
SplineSet
624 1253 m 0,0,1
 625 1250 625 1250 625 1248 c 0,2,3
 625 1243 625 1243 618 1243 c 0,4,5
 456 1186 456 1186 371 982 c 128,-1,6
 286 778 286 778 286 516 c 0,7,8
 286 399 286 399 295.5 313 c 128,-1,9
 305 227 305 227 331.5 134 c 128,-1,10
 358 41 358 41 415.5 -25.5 c 128,-1,11
 473 -92 473 -92 561 -129 c 0,12,13
 565 -129 565 -129 565 -137 c 2,14,-1
 540 -225 l 2,15,16
 537 -230 537 -230 534 -230 c 0,17,18
 532 -230 532 -230 530 -229 c 0,19,20
 399 -182 399 -182 310 -102.5 c 128,-1,21
 221 -23 221 -23 178 81.5 c 128,-1,22
 135 186 135 186 118.5 286.5 c 128,-1,23
 102 387 102 387 102 510 c 0,24,25
 102 807 102 807 243.5 1027 c 128,-1,26
 385 1247 385 1247 600 1327 c 0,27,28
 602 1328 602 1328 604 1328 c 0,29,30
 607 1328 607 1328 610 1323 c 0,31,32
 612 1313 612 1313 617 1287.5 c 128,-1,33
 622 1262 622 1262 624 1253 c 0,0,1
EndSplineSet
Validated: 1
EndChar

StartChar: parenright
Encoding: 41 41 8
Width: 634
Flags: W
LayerCount: 2
Fore
SplineSet
530 567 m 0,0,1
 530 299 530 299 415.5 68.5 c 128,-1,2
 301 -162 301 -162 94 -260 c 0,3,4
 91 -261 91 -261 89 -261 c 0,5,6
 84 -261 84 -261 83 -256 c 0,7,8
 81 -250 81 -250 78 -241.5 c 128,-1,9
 75 -233 75 -233 71 -223 c 128,-1,10
 67 -213 67 -213 65 -207 c 0,11,12
 64 -205 64 -205 64 -203 c 0,13,14
 64 -200 64 -200 69 -197 c 0,15,16
 208 -129 208 -129 283 69.5 c 128,-1,17
 358 268 358 268 358 506 c 0,18,19
 358 627 358 627 344.5 729 c 128,-1,20
 331 831 331 831 297.5 936.5 c 128,-1,21
 264 1042 264 1042 195 1128 c 128,-1,22
 126 1214 126 1214 26 1270 c 0,23,24
 22 1272 22 1272 22 1280 c 2,25,-1
 61 1370 l 2,26,27
 61 1374 61 1374 69 1374 c 0,28,29
 221 1315 221 1315 327.5 1187 c 128,-1,30
 434 1059 434 1059 482 901 c 128,-1,31
 530 743 530 743 530 567 c 0,0,1
EndSplineSet
Validated: 1
EndChar

StartChar: asterisk
Encoding: 42 42 9
Width: 829
Flags: W
LayerCount: 2
Fore
SplineSet
727 845 m 2,0,1
 730 752 l 2,2,3
 730 749 730 749 728 747 c 0,4,5
 727 746 727 746 726 746 c 2,6,-1
 724 746 l 1,7,8
 605 754 605 754 517 754 c 0,9,10
 475 754 475 754 459 753 c 0,11,12
 454 753 454 753 454 749 c 2,13,-1
 454 745 l 1,14,15
 486 685 486 685 608 549 c 0,16,17
 610 548 610 548 610 546 c 256,18,19
 610 544 610 544 608 541 c 2,20,-1
 501 461 l 2,21,22
 499 459 499 459 497 459 c 256,23,24
 495 459 495 459 491 463 c 0,25,26
 392 653 392 653 376 681 c 0,27,28
 373 684 373 684 370 684 c 0,29,30
 369 684 369 684 366 681 c 0,31,32
 228 467 228 467 226 464 c 0,33,34
 225 462 225 462 222 462 c 0,35,36
 220 462 220 462 218 463 c 0,37,38
 158 513 158 513 107 562 c 0,39,40
 106 563 106 563 106 566 c 256,41,42
 106 569 106 569 107 570 c 0,43,44
 253 701 253 701 283 742 c 0,45,46
 284 743 284 743 284 745 c 0,47,48
 284 749 284 749 277 754 c 256,49,50
 270 759 270 759 263 761 c 0,51,52
 196 797 196 797 63 861 c 0,53,54
 60 862 60 862 60 864 c 256,55,56
 60 866 60 866 61 869 c 0,57,58
 109 969 109 969 130 1002 c 0,59,60
 132 1004 132 1004 135 1004 c 0,61,62
 137 1004 137 1004 140 1003 c 0,63,64
 180 968 180 968 321 847 c 0,65,66
 323 846 323 846 325 846 c 2,67,-1
 327 846 l 2,68,69
 329 847 329 847 331 851 c 0,70,71
 349 923 349 923 349 1053 c 0,72,73
 349 1080 349 1080 348 1109 c 0,74,75
 348 1116 348 1116 354 1116 c 0,76,77
 383 1112 383 1112 441 1106 c 0,78,79
 494 1100 494 1100 523 1096 c 0,80,81
 529 1095 529 1095 529 1091 c 0,82,83
 529 1090 529 1090 528 1088 c 0,84,85
 441 848 441 848 441 847 c 2,86,-1
 441 848 l 2,87,88
 440 846 440 846 440 845 c 0,89,90
 440 840 440 840 448 840 c 0,91,92
 566 847 566 847 721 918 c 0,93,94
 722 919 722 919 723 919 c 0,95,96
 725 919 725 919 726 918 c 0,97,98
 728 915 728 915 728 912 c 2,99,-1
 728 879 l 2,100,101
 727 856 727 856 727 845 c 2,0,1
EndSplineSet
Validated: 1
EndChar

StartChar: plus
Encoding: 43 43 10
Width: 874
Flags: W
LayerCount: 2
Fore
SplineSet
806 472 m 0,1,2
 774 470 774 470 532 464 c 0,3,4
 525 464 525 464 525 457 c 2,5,-1
 521 126 l 1,6,-1
 521 123 l 2,7,8
 521 118 521 118 515 118 c 2,9,-1
 347 118 l 2,10,11
 340 118 340 118 338 126 c 0,12,13
 336 189 336 189 328 453 c 0,14,15
 328 460 328 460 319 460 c 2,16,-1
 75 455 l 1,17,-1
 73 455 l 2,18,19
 69 455 69 455 69 462 c 0,20,21
 69 498 69 498 66 570 c 0,22,23
 66 591 66 591 60 655 c 0,24,25
 62 659 62 659 69 663 c 1,26,-1
 313 655 l 2,27,28
 317 657 317 657 319 663 c 0,29,30
 315 787 315 787 306 972 c 0,31,32
 306 993 306 993 319 995 c 0,33,34
 396 1008 396 1008 530 1035 c 0,35,36
 534 1035 534 1035 538 1029 c 1,37,38
 533 840 533 840 527 657 c 0,39,40
 527 651 527 651 534 651 c 2,41,-1
 797 642 l 2,42,43
 806 642 806 642 806 636 c 0,44,45
 808 599 808 599 814 479 c 0,46,0
 814 472 814 472 806 472 c 0,1,2
EndSplineSet
Validated: 1
EndChar

StartChar: comma
Encoding: 44 44 11
Width: 448
Flags: W
LayerCount: 2
Fore
SplineSet
366 145 m 0,0,1
 366 55 366 55 297 -37 c 128,-1,2
 228 -129 228 -129 165 -129 c 0,3,4
 154 -129 154 -129 154 -119 c 0,5,6
 154 -117 154 -117 155 -113 c 0,7,8
 173 -94 173 -94 192 -10 c 0,9,10
 193 -3 193 -3 193 3 c 0,11,12
 193 22 193 22 183 27 c 0,13,14
 134 47 134 47 107.5 86 c 128,-1,15
 81 125 81 125 81 162 c 0,16,17
 81 219 81 219 122 258 c 128,-1,18
 163 297 163 297 220 297 c 0,19,20
 286 297 286 297 326 253 c 128,-1,21
 366 209 366 209 366 145 c 0,0,1
EndSplineSet
Validated: 1
EndChar

StartChar: period
Encoding: 46 46 12
Width: 442
Flags: W
LayerCount: 2
Fore
SplineSet
360 158 m 0,0,1
 360 96 360 96 318 61.5 c 128,-1,2
 276 27 276 27 212 27 c 0,3,4
 159 27 159 27 120 68 c 128,-1,5
 81 109 81 109 81 162 c 0,6,7
 81 221 81 221 123 266 c 128,-1,8
 165 311 165 311 224 311 c 0,9,10
 280 311 280 311 320 263 c 128,-1,11
 360 215 360 215 360 158 c 0,0,1
EndSplineSet
Validated: 1
EndChar

StartChar: slash
Encoding: 47 47 13
Width: 669
Flags: W
LayerCount: 2
Fore
SplineSet
666 1221 m 0,0,1
 614 1128 614 1128 418 647 c 0,2,3
 367 524 367 524 274.5 296 c 128,-1,4
 182 68 182 68 158 6 c 0,5,6
 155 1 155 1 152 1 c 0,7,8
 151 1 151 1 149 2 c 0,9,10
 104 16 104 16 47 41 c 0,11,12
 43 41 43 41 43 49 c 0,13,14
 57 90 57 90 148.5 365.5 c 128,-1,15
 240 641 240 641 330 905 c 128,-1,16
 420 1169 420 1169 453 1247 c 0,17,18
 457 1251 457 1251 461 1251 c 0,19,20
 487 1245 487 1245 557 1240 c 128,-1,21
 627 1235 627 1235 659 1231 c 0,22,23
 667 1228 667 1228 667 1224 c 0,24,25
 667 1223 667 1223 666 1221 c 0,0,1
EndSplineSet
Validated: 1
EndChar

StartChar: zero
Encoding: 48 48 14
Width: 1067
Flags: W
LayerCount: 2
Fore
SplineSet
995 573 m 0,0,1
 995 373 995 373 856.5 207 c 128,-1,2
 718 41 718 41 526 41 c 0,3,4
 323 41 323 41 197 200.5 c 128,-1,5
 71 360 71 360 71 571 c 0,6,7
 71 803 71 803 193 953.5 c 128,-1,8
 315 1104 315 1104 542 1104 c 0,9,10
 763 1104 763 1104 879 952.5 c 128,-1,11
 995 801 995 801 995 573 c 0,0,1
792 627 m 0,12,13
 792 752 792 752 723.5 846 c 128,-1,14
 655 940 655 940 530 940 c 0,15,16
 458 940 458 940 406 907 c 128,-1,17
 354 874 354 874 327 820 c 128,-1,18
 300 766 300 766 288 709.5 c 128,-1,19
 276 653 276 653 276 594 c 0,20,21
 276 512 276 512 294.5 436 c 128,-1,22
 313 360 313 360 369 295.5 c 128,-1,23
 425 231 425 231 515 231 c 0,24,25
 597 231 597 231 655.5 268 c 128,-1,26
 714 305 714 305 741.5 368.5 c 128,-1,27
 769 432 769 432 780.5 494.5 c 128,-1,28
 792 557 792 557 792 627 c 0,12,13
EndSplineSet
Validated: 1
EndChar

StartChar: one
Encoding: 49 49 15
Width: 579
Flags: W
LayerCount: 2
Fore
SplineSet
437 1149 m 0,0,1
 433 1065 433 1065 429 778 c 0,2,3
 425 599 425 599 425 448 c 2,4,-1
 425 350 l 2,5,6
 425 334 425 334 437 29 c 0,7,8
 437 20 437 20 429 20 c 2,9,-1
 227 20 l 2,10,11
 218 20 218 20 218 29 c 0,12,13
 233 367 233 367 243 653 c 0,14,15
 245 690 245 690 245 769 c 256,16,17
 245 848 245 848 247 885 c 0,18,19
 247 894 247 894 241 894 c 0,20,21
 240 894 240 894 237 893 c 0,22,23
 216 885 216 885 124 842 c 0,24,25
 122 841 122 841 120 841 c 0,26,27
 117 841 117 841 114 846 c 0,28,29
 100 895 100 895 79 985 c 0,30,31
 78 988 78 988 78 989 c 0,32,33
 78 993 78 993 83 993 c 0,34,35
 210 1057 210 1057 427 1155 c 0,36,37
 430 1156 430 1156 432 1156 c 0,38,39
 437 1156 437 1156 437 1149 c 0,0,1
EndSplineSet
Validated: 1
EndChar

StartChar: two
Encoding: 50 50 16
Width: 972
Flags: W
LayerCount: 2
Fore
SplineSet
880 840 m 0,1,2
 880 696 880 696 803.5 599 c 128,-1,3
 727 502 727 502 583 412 c 0,4,5
 579 408 579 408 549.5 391.5 c 128,-1,6
 520 375 520 375 509.5 367.5 c 128,-1,7
 499 360 499 360 474.5 343 c 128,-1,8
 450 326 450 326 437.5 313.5 c 128,-1,9
 425 301 425 301 412 282.5 c 128,-1,10
 399 264 399 264 391 246 c 0,11,12
 390 244 390 244 390 242 c 0,13,14
 390 238 390 238 397 238 c 0,15,16
 686 205 686 205 829 158 c 0,17,18
 833 158 833 158 834 155 c 2,19,-1
 834 153 l 2,20,21
 834 150 834 150 833 147 c 0,22,23
 821 121 821 121 796.5 65.5 c 128,-1,24
 772 10 772 10 761 -12 c 0,25,26
 757 -16 757 -16 751 -16 c 0,27,28
 511 84 511 84 149 111 c 0,29,30
 141 111 141 111 141 123 c 0,31,32
 141 195 141 195 184 272 c 0,33,34
 200 303 200 303 224.5 332.5 c 128,-1,35
 249 362 249 362 285 391 c 128,-1,36
 321 420 321 420 345.5 437.5 c 128,-1,37
 370 455 370 455 415 485.5 c 128,-1,38
 460 516 460 516 477 526 c 0,39,40
 546 573 546 573 582 604 c 128,-1,41
 618 635 618 635 649.5 689 c 128,-1,42
 681 743 681 743 681 809 c 0,43,44
 681 895 681 895 626 953.5 c 128,-1,45
 571 1012 571 1012 485 1012 c 0,46,47
 387 1012 387 1012 318 938 c 128,-1,48
 249 864 249 864 215 762 c 0,49,50
 210 758 210 758 206 758 c 0,51,52
 126 776 126 776 71 786 c 0,53,54
 65 791 65 791 65 797 c 0,55,56
 71 821 71 821 100 897 c 0,57,58
 147 1024 147 1024 253.5 1091.5 c 128,-1,59
 360 1159 360 1159 493 1159 c 0,60,61
 645 1159 645 1159 762.5 1071 c 128,-1,0
 880 983 880 983 880 840 c 0,1,2
EndSplineSet
Validated: 1
EndChar

StartChar: three
Encoding: 51 51 17
Width: 911
Flags: W
LayerCount: 2
Fore
SplineSet
872 1128 m 0,0,1
 852 1096 852 1096 825 1069 c 1,2,3
 786 1018 786 1018 669.5 871.5 c 128,-1,4
 553 725 553 725 479 627 c 0,5,6
 478 623 478 623 478 621 c 0,7,8
 478 615 478 615 483 614 c 0,9,10
 723 530 723 530 723 299 c 0,11,12
 723 154 723 154 620.5 69 c 128,-1,13
 518 -16 518 -16 360 -16 c 0,14,15
 311 -16 311 -16 224 10.5 c 128,-1,16
 137 37 137 37 96 68 c 0,17,18
 94 70 94 70 94 76 c 0,19,20
 123 147 123 147 143 217 c 0,21,22
 144 222 144 222 148 222 c 0,23,24
 150 222 150 222 153 221 c 0,25,26
 258 160 258 160 354 160 c 0,27,28
 428 160 428 160 477 202 c 128,-1,29
 526 244 526 244 526 317 c 0,30,31
 526 434 526 434 449.5 493.5 c 128,-1,32
 373 553 373 553 254 561 c 0,33,34
 249 561 249 561 249 567 c 0,35,36
 249 570 249 570 250 575 c 0,37,38
 459 864 459 864 536 969 c 0,39,40
 539 972 539 972 539 974 c 256,41,42
 539 976 539 976 538 977 c 0,43,44
 537 980 537 980 534 980 c 0,45,46
 532 980 532 980 530 979 c 0,47,48
 237 956 237 956 162 948 c 0,49,50
 155 948 155 948 155 954 c 0,51,52
 149 981 149 981 137 1038.5 c 128,-1,53
 125 1096 125 1096 117 1124 c 0,54,55
 117 1135 117 1135 125 1135 c 0,56,57
 225 1137 225 1137 424.5 1138 c 128,-1,58
 624 1139 624 1139 725 1139 c 1,59,60
 819 1143 819 1143 866 1143 c 0,61,62
 876 1143 876 1143 876 1137 c 0,63,64
 876 1134 876 1134 872 1128 c 0,0,1
EndSplineSet
Validated: 1
EndChar

StartChar: four
Encoding: 52 52 18
Width: 933
Flags: W
LayerCount: 2
Fore
SplineSet
839 694 m 0,0,1
 833 651 833 651 825 606 c 0,2,3
 798 416 798 416 767 2 c 0,4,5
 767 0 767 0 761 -6 c 1,6,7
 638 -25 638 -25 622 -29 c 0,8,9
 614 -29 614 -29 614 -20 c 0,10,11
 616 80 616 80 624 262 c 0,12,13
 624 270 624 270 616 270 c 0,14,15
 577 266 577 266 343.5 245.5 c 128,-1,16
 110 225 110 225 36 217 c 0,17,18
 27 217 27 217 27 223 c 0,19,20
 27 225 27 225 28 227 c 0,21,22
 401 1128 401 1128 444 1217 c 0,23,24
 447 1222 447 1222 450 1222 c 0,25,26
 452 1222 452 1222 454 1221 c 0,27,28
 526 1188 526 1188 616 1137 c 0,29,30
 620 1133 620 1133 620 1130 c 0,31,32
 620 1129 620 1129 618 1128 c 0,33,34
 577 1061 577 1061 505.5 913.5 c 128,-1,35
 434 766 434 766 355 600 c 128,-1,36
 276 434 276 434 268 418 c 0,37,38
 266 415 266 415 266 413 c 0,39,40
 266 408 266 408 274 408 c 0,41,42
 599 432 599 432 618 436 c 0,43,44
 624 436 624 436 624 442 c 0,45,46
 624 573 624 573 628 717 c 0,47,48
 628 725 628 725 636 725 c 0,49,50
 667 721 667 721 738.5 713 c 128,-1,51
 810 705 810 705 833 702 c 0,52,53
 839 702 839 702 839 694 c 0,0,1
EndSplineSet
Validated: 1
EndChar

StartChar: five
Encoding: 53 53 19
Width: 882
Flags: W
LayerCount: 2
Fore
SplineSet
790 305 m 0,0,1
 790 178 790 178 695 89 c 128,-1,2
 600 0 600 0 432 0 c 0,3,4
 250 0 250 0 96 88 c 0,5,6
 92 88 92 88 92 94 c 0,7,8
 102 164 102 164 108 248 c 0,9,10
 108 255 108 255 114 255 c 0,11,12
 116 255 116 255 119 254 c 0,13,14
 299 150 299 150 461 150 c 0,15,16
 518 150 518 150 564 190.5 c 128,-1,17
 610 231 610 231 610 291 c 0,18,19
 610 375 610 375 566 431 c 128,-1,20
 522 487 522 487 451.5 509.5 c 128,-1,21
 381 532 381 532 316 540 c 0,22,23
 273 544 273 544 229 544 c 0,24,25
 206 544 206 544 182 543 c 0,26,27
 174 543 174 543 174 549 c 0,28,29
 172 643 172 643 156.5 831.5 c 128,-1,30
 141 1020 141 1020 139 1106 c 0,31,32
 139 1114 139 1114 147 1114 c 2,33,-1
 745 1147 l 2,34,35
 747 1148 747 1148 748 1148 c 0,36,37
 750 1148 750 1148 752 1146 c 0,38,39
 754 1143 754 1143 754 1139 c 0,40,41
 745 1106 745 1106 729 1043.5 c 128,-1,42
 713 981 713 981 708 969 c 0,43,44
 708 964 708 964 704 964 c 0,45,46
 703 964 703 964 700 965 c 0,47,48
 413 973 413 973 353 973 c 2,49,-1
 338 973 l 2,50,51
 330 973 330 973 330 967 c 0,52,53
 334 852 334 852 340 696 c 0,54,55
 340 690 340 690 346 690 c 0,56,57
 561 678 561 678 675.5 564.5 c 128,-1,58
 790 451 790 451 790 305 c 0,0,1
EndSplineSet
Validated: 1
EndChar

StartChar: six
Encoding: 54 54 20
Width: 1001
Flags: W
LayerCount: 2
Fore
SplineSet
899 362 m 0,0,1
 899 178 899 178 782 73.5 c 128,-1,2
 665 -31 665 -31 483 -31 c 0,3,4
 305 -31 305 -31 198.5 86 c 128,-1,5
 92 203 92 203 92 383 c 0,6,7
 92 682 92 682 236.5 901 c 128,-1,8
 381 1120 381 1120 651 1239 c 0,9,10
 659 1239 659 1239 661 1235 c 0,11,12
 727 1110 727 1110 747 1067 c 0,13,14
 748 1065 748 1065 748 1063 c 0,15,16
 748 1060 748 1060 743 1057 c 0,17,18
 649 1020 649 1020 604 995 c 0,19,20
 514 948 514 948 428 844.5 c 128,-1,21
 342 741 342 741 303 604 c 0,22,23
 302 602 302 602 302 600 c 0,24,25
 302 597 302 597 305 596 c 0,26,27
 306 595 306 595 308 595 c 256,28,29
 310 595 310 595 313 598 c 0,30,31
 422 707 422 707 575 707 c 0,32,33
 721 707 721 707 810 610.5 c 128,-1,34
 899 514 899 514 899 362 c 0,0,1
713 340 m 0,35,36
 713 426 713 426 665.5 485.5 c 128,-1,37
 618 545 618 545 534 545 c 0,38,39
 438 545 438 545 362.5 475.5 c 128,-1,40
 287 406 287 406 287 311 c 0,41,42
 287 233 287 233 351.5 175 c 128,-1,43
 416 117 416 117 495 117 c 0,44,45
 596 117 596 117 654.5 179.5 c 128,-1,46
 713 242 713 242 713 340 c 0,35,36
EndSplineSet
Validated: 1
EndChar

StartChar: seven
Encoding: 55 55 21
Width: 794
Flags: W
LayerCount: 2
Fore
SplineSet
735 1124 m 1,0,1
 696 950 696 950 616 539.5 c 128,-1,2
 536 129 536 129 512 14 c 0,3,4
 512 8 512 8 506 8 c 0,5,6
 479 2 479 2 409.5 -11.5 c 128,-1,7
 340 -25 340 -25 311 -31 c 0,8,9
 309 -32 309 -32 308 -32 c 0,10,11
 306 -32 306 -32 305 -30 c 0,12,13
 303 -27 303 -27 303 -23 c 0,14,15
 334 113 334 113 436 571 c 0,16,17
 465 694 465 694 508 920 c 0,18,19
 509 922 509 922 509 923 c 0,20,21
 509 928 509 928 499 928 c 0,22,23
 461 926 461 926 294 918.5 c 128,-1,24
 127 911 127 911 96 909 c 0,25,26
 88 909 88 909 88 915 c 0,27,28
 80 954 80 954 57 1094 c 0,29,30
 56 1096 56 1096 56 1098 c 0,31,32
 56 1102 56 1102 63 1102 c 0,33,34
 84 1102 84 1102 356 1113 c 128,-1,35
 628 1124 628 1124 727 1133 c 0,36,37
 735 1133 735 1133 735 1127 c 2,38,-1
 735 1124 l 1,0,1
EndSplineSet
Validated: 1
EndChar

StartChar: eight
Encoding: 56 56 22
Width: 1017
Flags: W
LayerCount: 2
Fore
SplineSet
962 1059 m 0,0,1
 897 938 897 938 889 924 c 0,2,3
 782 741 782 741 633 594 c 0,4,5
 630 591 630 591 630 589 c 0,6,7
 630 586 630 586 633 584 c 0,8,9
 737 520 737 520 797.5 447.5 c 128,-1,10
 858 375 858 375 858 264 c 0,11,12
 858 139 858 139 755.5 63.5 c 128,-1,13
 653 -12 653 -12 518 -12 c 0,14,15
 422 -12 422 -12 338 13.5 c 128,-1,16
 254 39 254 39 193.5 102.5 c 128,-1,17
 133 166 133 166 133 258 c 0,18,19
 133 352 133 352 179 415.5 c 128,-1,20
 225 479 225 479 336 551 c 0,21,22
 340 553 340 553 340 556 c 256,23,24
 340 559 340 559 336 563 c 0,25,26
 203 647 203 647 147.5 715.5 c 128,-1,27
 92 784 92 784 92 893 c 0,28,29
 92 1014 92 1014 186 1087.5 c 128,-1,30
 280 1161 280 1161 411 1161 c 0,31,32
 545 1161 545 1161 735 1032 c 0,33,34
 738 1030 738 1030 741 1030 c 256,35,36
 744 1030 744 1030 745 1034 c 0,37,38
 762 1063 762 1063 782.5 1105 c 128,-1,39
 803 1147 803 1147 807 1155 c 0,40,41
 808 1159 808 1159 811 1159 c 256,42,43
 814 1159 814 1159 817 1157 c 0,44,45
 883 1114 883 1114 960 1069 c 0,46,47
 964 1065 964 1065 964 1063 c 256,48,49
 964 1061 964 1061 962 1059 c 0,0,1
678 897 m 0,50,51
 679 898 679 898 679 900 c 256,52,53
 679 902 679 902 676 905 c 0,54,55
 538 997 538 997 442 997 c 0,56,57
 289 997 289 997 289 854 c 0,58,59
 289 756 289 756 416 676 c 1,60,61
 467 649 467 649 471 649 c 0,62,63
 478 646 478 646 481 646 c 0,64,65
 482 646 482 646 483 647 c 0,66,67
 504 664 504 664 547 708 c 128,-1,68
 590 752 590 752 598 764 c 0,69,70
 614 784 614 784 678 897 c 0,50,51
680 279 m 0,71,72
 680 410 680 410 493 492 c 0,73,74
 490 495 490 495 487 495 c 0,75,76
 483 495 483 495 479 492 c 0,77,78
 414 463 414 463 363.5 405.5 c 128,-1,79
 313 348 313 348 313 293 c 0,80,81
 313 221 313 221 371.5 181 c 128,-1,82
 430 141 430 141 493 141 c 0,83,84
 555 141 555 141 617.5 176 c 128,-1,85
 680 211 680 211 680 279 c 0,71,72
EndSplineSet
Validated: 1
EndChar

StartChar: nine
Encoding: 57 57 23
Width: 1019
Flags: W
LayerCount: 2
Fore
SplineSet
919 707 m 0,0,1
 919 465 919 465 823.5 275.5 c 128,-1,2
 728 86 728 86 550 -113 c 0,3,4
 548 -115 548 -115 545 -115 c 256,5,6
 542 -115 542 -115 540 -113 c 0,7,8
 515 -94 515 -94 405 -14 c 0,9,10
 402 -11 402 -11 402 -8 c 256,11,12
 402 -5 402 -5 405 -2 c 0,13,14
 503 104 503 104 560.5 177 c 128,-1,15
 618 250 618 250 676 366.5 c 128,-1,16
 734 483 734 483 734 586 c 0,17,18
 734 595 734 595 730 595 c 0,19,20
 727 595 727 595 722 590 c 0,21,22
 569 424 569 424 368 424 c 0,23,24
 255 424 255 424 166 507 c 128,-1,25
 77 590 77 590 77 700 c 0,26,27
 77 887 77 887 214 1018 c 128,-1,28
 351 1149 351 1149 540 1149 c 0,29,30
 716 1149 716 1149 817.5 1023 c 128,-1,31
 919 897 919 897 919 707 c 0,0,1
702 838 m 0,32,33
 702 911 702 911 648.5 950 c 128,-1,34
 595 989 595 989 515 989 c 0,35,36
 487 989 487 989 472 987 c 0,37,38
 386 973 386 973 316.5 896 c 128,-1,39
 247 819 247 819 247 733 c 0,40,41
 247 662 247 662 296 626 c 128,-1,42
 345 590 345 590 421 590 c 0,43,44
 515 590 515 590 608.5 666.5 c 128,-1,45
 702 743 702 743 702 838 c 0,32,33
EndSplineSet
Validated: 1
EndChar

StartChar: colon
Encoding: 58 58 24
Width: 493
Flags: W
LayerCount: 2
Fore
SplineSet
401 608 m 0,0,1
 401 549 401 549 358 513 c 128,-1,2
 315 477 315 477 254 477 c 0,3,4
 201 477 201 477 162 518 c 128,-1,5
 123 559 123 559 123 612 c 0,6,7
 123 672 123 672 165 717 c 128,-1,8
 207 762 207 762 266 762 c 0,9,10
 321 762 321 762 361 714 c 128,-1,11
 401 666 401 666 401 608 c 0,0,1
379 121 m 0,12,13
 379 66 379 66 332 31 c 128,-1,14
 285 -4 285 -4 227 -4 c 0,15,16
 176 -4 176 -4 134 29.5 c 128,-1,17
 92 63 92 63 92 117 c 0,18,19
 92 180 92 180 134 219 c 128,-1,20
 176 258 176 258 237 258 c 0,21,22
 297 258 297 258 338 219 c 128,-1,23
 379 180 379 180 379 121 c 0,12,13
EndSplineSet
Validated: 1
EndChar

StartChar: semicolon
Encoding: 59 59 25
AltUni2: 00037e.ffffffff.0
Width: 452
Flags: W
LayerCount: 2
Fore
SplineSet
360 651 m 0,0,1
 360 602 360 602 315 566 c 128,-1,2
 270 530 270 530 217 530 c 0,3,4
 160 530 160 530 126 571 c 128,-1,5
 92 612 92 612 92 674 c 0,6,7
 92 725 92 725 135 762 c 128,-1,8
 178 799 178 799 227 799 c 0,9,10
 282 799 282 799 321 756 c 128,-1,11
 360 713 360 713 360 651 c 0,0,1
354 133 m 0,12,13
 354 49 354 49 289.5 -38 c 128,-1,14
 225 -125 225 -125 166 -129 c 0,15,16
 158 -129 158 -129 158 -121 c 0,17,18
 170 -78 170 -78 172 -70 c 0,19,20
 196 14 196 14 198 18 c 0,21,22
 200 19 200 19 200 21 c 0,23,24
 200 22 200 22 199 24 c 0,25,26
 196 27 196 27 194 27 c 0,27,28
 98 61 98 61 98 150 c 0,29,30
 98 199 98 199 135 233.5 c 128,-1,31
 172 268 172 268 221 268 c 0,32,33
 280 268 280 268 317 229 c 128,-1,34
 354 190 354 190 354 133 c 0,12,13
EndSplineSet
Validated: 1
EndChar

StartChar: less
Encoding: 60 60 26
Width: 1197
Flags: W
LayerCount: 2
Fore
SplineSet
1090 228 m 0,0,1
 1093 224 1093 224 1093 220 c 0,2,3
 1088 194 1088 194 1084 124 c 256,4,5
 1080 54 1080 54 1077 22 c 0,6,7
 1074 14 1074 14 1071 14 c 0,8,9
 1069 14 1069 14 1068 15 c 0,10,11
 992 67 992 67 597 262 c 0,12,13
 496 313 496 313 309 405 c 0,14,15
 121 497 121 497 71 521 c 0,16,17
 70 522 70 522 69 523 c 0,18,19
 64 523 64 523 64 526 c 0,20,21
 44 584 44 584 32 629 c 0,22,23
 31 630 31 630 31 631 c 0,24,25
 31 634 31 634 36 637 c 0,26,27
 88 662 88 662 274 753 c 0,28,29
 461 845 461 845 562 896 c 0,30,31
 957 1092 957 1092 1034 1143 c 0,32,33
 1035 1144 1035 1144 1036 1144 c 0,34,35
 1039 1144 1039 1144 1042 1137 c 0,36,37
 1045 1104 1045 1104 1049 1035 c 256,38,39
 1053 966 1053 966 1058 939 c 0,40,41
 1058 935 1058 935 1055 931 c 0,42,43
 991 898 991 898 774 808 c 0,44,45
 557 719 557 719 331 628 c 0,46,47
 272 604 272 604 228 587 c 1,48,49
 287 562 287 562 366 531 c 0,50,51
 593 439 593 439 809 350 c 0,52,53
 1026 260 1026 260 1090 228 c 0,0,1
EndSplineSet
Validated: 1
EndChar

StartChar: equal
Encoding: 61 61 27
Width: 499
Flags: W
LayerCount: 2
Fore
SplineSet
419 455 m 0,0,1
 417 426 417 426 413 367 c 128,-1,2
 409 308 409 308 407 279 c 0,3,4
 407 275 407 275 400 271 c 0,5,6
 325 256 325 256 120 242 c 0,7,8
 112 242 112 242 112 248 c 0,9,10
 110 256 110 256 100.5 322.5 c 128,-1,11
 91 389 91 389 85 416 c 0,12,13
 85 424 85 424 93 424 c 0,14,15
 105 424 105 424 149.5 429.5 c 128,-1,16
 194 435 194 435 224 437 c 0,17,18
 296 441 296 441 409 463 c 0,19,20
 419 463 419 463 419 455 c 0,0,1
420 736 m 0,21,22
 418 707 418 707 414 648 c 128,-1,23
 410 589 410 589 408 560 c 0,24,25
 408 556 408 556 401 552 c 0,26,27
 326 537 326 537 121 523 c 0,28,29
 113 523 113 523 113 529 c 0,30,31
 111 537 111 537 101.5 603.5 c 128,-1,32
 92 670 92 670 86 697 c 0,33,34
 86 705 86 705 94 705 c 0,35,36
 106 705 106 705 150.5 710.5 c 128,-1,37
 195 716 195 716 225 718 c 0,38,39
 297 722 297 722 410 744 c 0,40,41
 420 744 420 744 420 736 c 0,21,22
EndSplineSet
Validated: 1
EndChar

StartChar: greater
Encoding: 62 62 28
Width: 1197
Flags: W
LayerCount: 2
Fore
SplineSet
338 358 m 0,1,2
 555 447 555 447 781 538 c 0,3,4
 860 570 860 570 919 594 c 1,5,6
 876 611 876 611 816 635 c 0,7,8
 590 726 590 726 373 816 c 0,9,10
 156 905 156 905 92 938 c 0,11,12
 89 942 89 942 89 946 c 0,13,14
 94 973 94 973 98 1042 c 0,15,16
 102 1112 102 1112 105 1144 c 0,17,18
 108 1151 108 1151 111 1151 c 0,19,20
 113 1151 113 1151 114 1150 c 0,21,22
 190 1100 190 1100 585 903 c 0,23,24
 686 853 686 853 873 761 c 0,25,26
 1065 667 1065 667 1112 644 c 0,27,28
 1116 641 1116 641 1116 639 c 256,29,30
 1116 637 1116 637 1115 636 c 0,31,32
 1103 592 1103 592 1083 534 c 0,33,34
 1083 531 1083 531 1078 530 c 2,35,-1
 1077 529 l 1,36,37
 1026 505 1026 505 838 413 c 0,38,39
 651 321 651 321 550 270 c 0,40,41
 155 75 155 75 79 23 c 0,42,43
 78 22 78 22 76 22 c 0,44,45
 73 22 73 22 70 30 c 0,46,47
 67 62 67 62 63 131 c 0,48,49
 59 201 59 201 54 227 c 0,50,51
 54 231 54 231 57 235 c 0,52,0
 121 268 121 268 338 358 c 0,1,2
EndSplineSet
Validated: 1
EndChar

StartChar: question
Encoding: 63 63 29
Width: 913
Flags: W
LayerCount: 2
Fore
SplineSet
837 958 m 0,0,1
 837 829 837 829 762.5 735 c 128,-1,2
 688 641 688 641 563 596 c 0,3,4
 547 590 547 590 500.5 577.5 c 128,-1,5
 454 565 454 565 424.5 554 c 128,-1,6
 395 543 395 543 360 524.5 c 128,-1,7
 325 506 325 506 308 476 c 128,-1,8
 291 446 291 446 291 410 c 0,9,10
 291 389 291 389 303 344 c 0,11,12
 303 340 303 340 297 336 c 2,13,-1
 174 299 l 2,14,15
 170 299 170 299 164 307 c 0,16,17
 147 334 147 334 147 393 c 0,18,19
 147 496 147 496 205 567 c 0,20,21
 225 594 225 594 247.5 615.5 c 128,-1,22
 270 637 270 637 287.5 650.5 c 128,-1,23
 305 664 305 664 333.5 678 c 128,-1,24
 362 692 362 692 377.5 698.5 c 128,-1,25
 393 705 393 705 432 719 c 128,-1,26
 471 733 471 733 489 739 c 0,27,28
 563 768 563 768 605 806 c 128,-1,29
 647 844 647 844 647 913 c 0,30,31
 647 979 647 979 605 1018 c 128,-1,32
 563 1057 563 1057 500 1057 c 0,33,34
 418 1057 418 1057 342 1010 c 128,-1,35
 266 963 266 963 215 889 c 0,36,37
 212 886 212 886 209 886 c 256,38,39
 206 886 206 886 203 889 c 0,40,41
 151 961 151 961 94 1049 c 1,42,-1
 94 1057 l 1,43,44
 157 1159 157 1159 258.5 1220.5 c 128,-1,45
 360 1282 360 1282 477 1282 c 0,46,47
 620 1282 620 1282 728.5 1190 c 128,-1,48
 837 1098 837 1098 837 958 c 0,0,1
381 117 m 256,50,51
 381 76 381 76 355.5 46 c 128,-1,52
 330 16 330 16 289 16 c 0,53,54
 246 16 246 16 210 48 c 128,-1,55
 174 80 174 80 174 123 c 0,56,57
 174 164 174 164 209 192.5 c 128,-1,58
 244 221 244 221 285 221 c 0,59,60
 325 221 325 221 353 189.5 c 128,-1,49
 381 158 381 158 381 117 c 256,50,51
EndSplineSet
Validated: 1
EndChar

StartChar: at
Encoding: 64 64 30
Width: 1675
Flags: W
LayerCount: 2
Fore
SplineSet
1368 751 m 0,0,1
 1426 644 1426 644 1426 512 c 0,2,3
 1426 395 1426 395 1395 294 c 0,4,5
 1365 194 1365 194 1309 119 c 0,6,7
 1242 30 1242 30 1165 -8 c 0,8,9
 1095 -43 1095 -43 1033 -43 c 2,10,-1
 1022 -43 l 2,11,12
 980 -41 980 -41 927 -3 c 0,13,14
 896 19 896 19 878 51 c 2,15,-1
 846 101 l 2,16,17
 845 105 845 105 841 108 c 0,18,19
 840 109 840 109 838 109 c 256,20,21
 836 109 836 109 833 107 c 0,22,23
 752 50 752 50 684 50 c 0,24,25
 585 50 585 50 522 106 c 0,26,27
 454 165 454 165 454 263 c 0,28,29
 454 364 454 364 540 431 c 0,30,31
 620 494 620 494 724 494 c 0,32,33
 796 494 796 494 845 473 c 1,34,-1
 848 473 l 2,35,36
 854 473 854 473 857 488 c 0,37,38
 858 499 858 499 858 517 c 0,39,40
 858 564 858 564 830 596 c 0,41,42
 801 631 801 631 756 631 c 0,43,44
 635 631 635 631 522 543 c 0,45,46
 520 542 520 542 519 542 c 0,47,48
 517 542 517 542 515 543 c 0,49,50
 511 544 511 544 511 546 c 0,51,52
 479 652 479 652 461 700 c 1,53,-1
 461 702 l 2,54,55
 461 704 461 704 464 707 c 0,56,57
 607 821 607 821 770 821 c 0,58,59
 904 821 904 821 983 737 c 0,60,61
 1060 657 1060 657 1060 525 c 0,62,63
 1060 503 1060 503 1053 398 c 0,64,65
 1046 299 1046 299 1036 213 c 2,66,-1
 1028 146 l 2,67,68
 1031 138 1031 138 1038 130 c 0,69,70
 1042 126 1042 126 1063 126 c 2,71,-1
 1089 126 l 2,72,73
 1113 128 1113 128 1142 157 c 0,74,75
 1171 185 1171 185 1197 230 c 256,76,77
 1223 275 1223 275 1241 332 c 0,78,79
 1258 388 1258 388 1262 448 c 1,80,-1
 1262 478 l 2,81,82
 1262 576 1262 576 1232 654 c 0,83,84
 1196 741 1196 741 1129 799 c 0,85,86
 1062 858 1062 858 969 888 c 0,87,88
 877 918 877 918 769 918 c 0,89,90
 651 918 651 918 555 878 c 0,91,92
 459 839 459 839 390 766 c 0,93,94
 321 694 321 694 284 593 c 0,95,96
 247 493 247 493 247 371 c 0,97,98
 247 243 247 243 288 141 c 0,99,100
 330 40 330 40 404 -30 c 0,101,102
 478 -99 478 -99 579 -136 c 0,103,104
 681 -173 681 -173 801 -173 c 0,105,106
 919 -173 919 -173 1006 -157 c 0,107,108
 1092 -141 1092 -141 1138 -113 c 1,109,-1
 1110 -290 l 1,110,111
 1061 -316 1061 -316 1032 -330 c 0,112,113
 1004 -345 1004 -345 974 -351 c 0,114,115
 945 -357 945 -357 904 -359 c 0,116,117
 864 -361 864 -361 786 -361 c 0,118,119
 635 -361 635 -361 503 -306 c 0,120,121
 370 -251 370 -251 272 -153 c 0,122,123
 172 -55 172 -55 116 78 c 0,124,125
 60 212 60 212 60 371 c 0,126,127
 60 528 60 528 115 662 c 0,128,129
 172 797 172 797 268 895 c 0,130,131
 366 994 366 994 496 1050 c 0,132,133
 627 1105 627 1105 776 1105 c 0,134,135
 900 1105 900 1105 1011 1066 c 0,136,137
 1122 1028 1122 1028 1216 943 c 0,138,139
 1311 858 1311 858 1368 751 c 0,0,1
804 234 m 0,140,141
 849 264 849 264 849 308 c 0,142,143
 849 332 849 332 826 346 c 0,144,145
 807 358 807 358 786 358 c 2,146,-1
 779 358 l 1,147,148
 627 353 627 353 627 258 c 0,149,150
 627 235 627 235 659 220 c 0,151,152
 686 209 686 209 721 209 c 0,153,154
 764 209 764 209 804 234 c 0,140,141
EndSplineSet
Validated: 1
EndChar

StartChar: A
Encoding: 65 65 31
Width: 1011
Flags: W
LayerCount: 2
Fore
SplineSet
991 6 m 0,0,1
 991 -2 991 -2 985 -2 c 0,2,3
 923 -16 923 -16 770 -39 c 0,4,5
 763 -39 763 -39 763 -33 c 0,6,7
 759 -23 759 -23 737 82 c 0,8,9
 718 158 718 158 673 295 c 0,10,11
 673 299 673 299 667 299 c 0,12,13
 477 289 477 289 352 274 c 1,14,-1
 348 270 l 1,15,16
 315 209 315 209 233 -20 c 0,17,18
 229 -27 229 -27 225 -27 c 0,19,20
 196 -20 196 -20 129.5 -7 c 128,-1,21
 63 6 63 6 30 14 c 0,22,23
 25 17 25 17 25 21 c 0,24,25
 25 23 25 23 26 25 c 0,26,27
 116 225 116 225 300.5 607 c 128,-1,28
 485 989 485 989 571 1180 c 0,29,30
 574 1187 574 1187 578 1187 c 0,31,32
 581 1187 581 1187 585 1180 c 0,33,34
 788 606 788 606 802 559 c 0,35,36
 864 375 864 375 991 6 c 0,0,1
645 444 m 0,37,38
 597 616 597 616 561 752 c 0,39,40
 559 758 559 758 554 758 c 0,41,42
 548 758 548 758 546 752 c 0,43,44
 524 696 524 696 480 598 c 128,-1,45
 436 500 436 500 411 432 c 0,46,47
 410 429 410 429 410 427 c 0,48,49
 410 422 410 422 417 422 c 0,50,51
 466 424 466 424 533 428 c 128,-1,52
 600 432 600 432 636 434 c 0,53,54
 645 434 645 434 645 444 c 0,37,38
EndSplineSet
Validated: 1
EndChar

StartChar: B
Encoding: 66 66 32
Width: 985
Flags: W
LayerCount: 2
Fore
SplineSet
905 332 m 0,0,1
 905 223 905 223 823 144.5 c 128,-1,2
 741 66 741 66 627 32 c 128,-1,3
 513 -2 513 -2 391 -2 c 0,4,5
 204 -2 204 -2 132 14 c 0,6,7
 122 14 122 14 122 23 c 2,8,-1
 122 106 l 2,9,10
 122 115 122 115 120 146.5 c 128,-1,11
 118 178 118 178 116 188 c 0,12,13
 116 197 116 197 118 201 c 0,14,15
 119 204 119 204 121 204 c 256,16,17
 123 204 123 204 124 203 c 0,18,19
 169 190 169 190 239 184 c 0,20,21
 247 184 247 184 247 190 c 0,22,23
 250 370 250 370 250 513 c 0,24,25
 250 801 250 801 239 946 c 0,26,27
 239 952 239 952 231 952 c 0,28,29
 178 946 178 946 89 918 c 0,30,31
 81 918 81 918 81 926 c 0,32,33
 79 944 79 944 77 978 c 128,-1,34
 75 1012 75 1012 73 1039.5 c 128,-1,35
 71 1067 71 1067 69 1092 c 0,36,37
 69 1100 69 1100 75 1100 c 0,38,39
 118 1114 118 1114 219.5 1124.5 c 128,-1,40
 321 1135 321 1135 370 1135 c 0,41,42
 462 1135 462 1135 543 1121.5 c 128,-1,43
 624 1108 624 1108 702 1076 c 128,-1,44
 780 1044 780 1044 826 979.5 c 128,-1,45
 872 915 872 915 872 823 c 0,46,47
 872 670 872 670 687 573 c 0,48,49
 683 571 683 571 683 569 c 0,50,51
 683 566 683 566 687 563 c 0,52,53
 794 528 794 528 849.5 468 c 128,-1,54
 905 408 905 408 905 332 c 0,0,1
692 807 m 0,55,56
 692 895 692 895 623 933 c 0,57,58
 563 966 563 966 494 966 c 0,59,60
 483 966 483 966 472 965 c 0,61,62
 448 965 448 965 438 963 c 0,63,64
 429 961 429 961 429 952 c 0,65,66
 419 707 419 707 419 655 c 0,67,68
 419 651 419 651 427 647 c 2,69,-1
 468 645 l 1,70,71
 692 645 692 645 692 807 c 0,55,56
694 332 m 0,72,73
 694 416 694 416 638.5 457 c 128,-1,74
 583 498 583 498 501 498 c 2,75,-1
 421 496 l 2,76,77
 415 496 415 496 415 487 c 0,78,79
 413 461 413 461 413 422 c 0,80,81
 413 384 413 384 415 334 c 0,82,83
 415 301 415 301 418 247 c 128,-1,84
 421 193 421 193 421 180 c 0,85,86
 421 172 421 172 427 172 c 2,87,-1
 475 172 l 2,88,89
 554 172 554 172 624 211 c 128,-1,90
 694 250 694 250 694 332 c 0,72,73
EndSplineSet
Validated: 1
EndChar

StartChar: C
Encoding: 67 67 33
Width: 946
Flags: W
LayerCount: 2
Fore
SplineSet
882 1083 m 0,0,1
 874 1051 874 1051 858.5 987.5 c 128,-1,2
 843 924 843 924 837 891 c 0,3,4
 837 884 837 884 833 884 c 0,5,6
 831 884 831 884 829 885 c 0,7,8
 775 907 775 907 706 907 c 0,9,10
 538 907 538 907 414 802.5 c 128,-1,11
 290 698 290 698 290 530 c 0,12,13
 290 350 290 350 392.5 265 c 128,-1,14
 495 180 495 180 671 180 c 0,15,16
 724 180 724 180 761 190 c 0,17,18
 771 190 771 190 771 182 c 0,19,20
 779 76 779 76 790 25 c 0,21,22
 790 16 790 16 783 14 c 0,23,24
 763 6 763 6 696.5 -1 c 128,-1,25
 630 -8 630 -8 607 -8 c 0,26,27
 374 -8 374 -8 227.5 142.5 c 128,-1,28
 81 293 81 293 81 528 c 0,29,30
 81 793 81 793 267.5 958.5 c 128,-1,31
 454 1124 454 1124 724 1124 c 0,32,33
 812 1124 812 1124 876 1094 c 0,34,35
 882 1090 882 1090 882 1083 c 0,0,1
EndSplineSet
Validated: 1
EndChar

StartChar: D
Encoding: 68 68 34
Width: 1089
Flags: W
LayerCount: 2
Fore
SplineSet
1011 563 m 0,0,1
 1011 414 1011 414 945.5 298 c 128,-1,2
 880 182 880 182 770.5 116.5 c 128,-1,3
 661 51 661 51 535 18.5 c 128,-1,4
 409 -14 409 -14 272 -14 c 0,5,6
 167 -14 167 -14 145 -12 c 1,7,8
 139 -6 139 -6 139 -4 c 0,9,10
 139 8 139 8 140 33.5 c 128,-1,11
 141 59 141 59 141 72 c 0,12,13
 141 125 141 125 139 150 c 0,14,15
 139 158 139 158 147 158 c 0,16,17
 188 154 188 154 233 150 c 0,18,19
 241 150 241 150 241 158 c 0,20,21
 237 256 237 256 237 403 c 0,22,23
 237 483 237 483 230 701.5 c 128,-1,24
 223 920 223 920 217 969 c 0,25,26
 217 975 217 975 211 975 c 0,27,28
 200 977 200 977 184 977 c 256,29,30
 168 977 168 977 147 975 c 0,31,32
 108 973 108 973 77 963 c 0,33,34
 74 961 74 961 72 961 c 0,35,36
 67 961 67 961 67 969 c 2,37,-1
 61 1122 l 2,38,39
 61 1126 61 1126 67 1130 c 0,40,41
 114 1137 114 1137 198 1137 c 0,42,43
 317 1137 317 1137 426.5 1120.5 c 128,-1,44
 536 1104 536 1104 644.5 1063 c 128,-1,45
 753 1022 753 1022 833 959.5 c 128,-1,46
 913 897 913 897 962 794.5 c 128,-1,47
 1011 692 1011 692 1011 563 c 0,0,1
809 578 m 0,48,49
 809 659 809 659 776 727 c 128,-1,50
 743 795 743 795 695 834.5 c 128,-1,51
 647 874 647 874 589.5 902 c 128,-1,52
 532 930 532 930 489 940 c 128,-1,53
 446 950 446 950 415 950 c 0,54,55
 403 950 403 950 403 942 c 0,56,57
 401 918 401 918 401 885 c 0,58,59
 401 853 401 853 403 813 c 0,60,61
 405 774 405 774 407 652 c 128,-1,62
 409 530 409 530 412 402 c 128,-1,63
 415 274 415 274 421 172 c 0,64,65
 421 166 421 166 430 166 c 0,66,67
 604 190 604 190 706.5 292.5 c 128,-1,68
 809 395 809 395 809 578 c 0,48,49
EndSplineSet
Validated: 1
EndChar

StartChar: E
Encoding: 69 69 35
Width: 888
Flags: W
LayerCount: 2
Fore
SplineSet
835 162 m 0,0,1
 810 55 810 55 780 -35 c 0,2,3
 780 -39 780 -39 774 -39 c 0,4,5
 345 -12 345 -12 151 29 c 0,6,7
 145 29 145 29 145 35 c 0,8,9
 118 487 118 487 118 849 c 0,10,11
 118 937 118 937 120 1020 c 0,12,13
 120 1069 120 1069 122 1096 c 0,14,15
 122 1102 122 1102 128 1102 c 0,16,17
 669 1145 669 1145 776 1161 c 0,18,19
 778 1162 778 1162 780 1162 c 0,20,21
 784 1162 784 1162 784 1155 c 0,22,23
 780 1085 780 1085 780 1051 c 0,24,25
 779 1041 779 1041 779 1027 c 0,26,27
 779 999 779 999 782 956 c 0,28,29
 782 948 782 948 776 948 c 0,30,31
 737 947 737 947 657 947 c 2,32,-1
 525 947 l 2,33,34
 404 947 404 947 339 942 c 0,35,36
 333 942 333 942 333 936 c 0,37,38
 331 903 331 903 329 802.5 c 128,-1,39
 327 702 327 702 327 672 c 0,40,41
 327 664 327 664 335 664 c 0,42,43
 370 662 370 662 417 659.5 c 128,-1,44
 464 657 464 657 474 657 c 2,45,-1
 494 657 l 2,46,47
 557 657 557 657 718 666 c 0,48,49
 726 666 726 666 726 657 c 0,50,51
 716 571 716 571 702 485 c 0,52,53
 702 479 702 479 696 479 c 0,54,55
 671 479 671 479 598 477 c 0,56,57
 561 476 561 476 533 476 c 256,58,59
 505 476 505 476 485 477 c 0,60,61
 466 477 466 477 335 481 c 0,62,63
 329 481 329 481 329 473 c 0,64,65
 327 371 327 371 327 215 c 0,66,67
 327 207 327 207 333 207 c 0,68,69
 513 180 513 180 827 170 c 0,70,71
 835 170 835 170 835 162 c 0,0,1
EndSplineSet
Validated: 1
EndChar

StartChar: F
Encoding: 70 70 36
Width: 778
Flags: W
LayerCount: 2
Fore
SplineSet
776 1098 m 0,0,1
 764 1049 764 1049 758 1026 c 0,2,3
 754 1006 754 1006 745 922 c 0,4,5
 745 915 745 915 739 915 c 0,6,7
 721 915 721 915 654.5 920.5 c 128,-1,8
 588 926 588 926 547 928 c 0,9,10
 416 934 416 934 349 934 c 2,11,-1
 319 934 l 2,12,13
 313 934 313 934 313 926 c 0,14,15
 305 663 305 663 305 588 c 2,16,-1
 305 565 l 2,17,18
 305 559 305 559 309 559 c 2,19,-1
 311 559 l 1,20,21
 467 567 467 567 604 590 c 0,22,23
 606 591 606 591 607 591 c 0,24,25
 609 591 609 591 611 589 c 256,26,27
 613 587 613 587 613 585 c 0,28,29
 613 584 613 584 612 582 c 0,30,31
 608 549 608 549 603 482.5 c 128,-1,32
 598 416 598 416 598 410 c 0,33,34
 598 403 598 403 592 403 c 0,35,36
 367 403 367 403 301 397 c 1,37,38
 295 391 295 391 295 389 c 2,39,-1
 295 348 l 2,40,41
 295 230 295 230 303 -25 c 0,42,43
 303 -33 303 -33 295 -33 c 0,44,45
 113 -20 113 -20 94 -20 c 0,46,47
 88 -20 88 -20 88 -14 c 0,48,49
 96 293 96 293 104 451 c 0,50,51
 131 1020 131 1020 141 1114 c 0,52,53
 141 1120 141 1120 147 1120 c 0,54,55
 377 1106 377 1106 768 1106 c 0,56,57
 776 1106 776 1106 776 1098 c 0,0,1
EndSplineSet
Validated: 1
EndChar

StartChar: G
Encoding: 71 71 37
Width: 1013
Flags: W
LayerCount: 2
Fore
SplineSet
974 406 m 0,0,1
 975 403 975 403 975 402 c 0,2,3
 975 397 975 397 968 397 c 0,4,5
 878 387 878 387 841 379 c 0,6,7
 836 379 836 379 836 375 c 0,8,9
 836 374 836 374 837 371 c 0,10,11
 841 338 841 338 854.5 183.5 c 128,-1,12
 868 29 868 29 872 -4 c 0,13,14
 872 -12 872 -12 866 -12 c 0,15,16
 735 -41 735 -41 606 -41 c 0,17,18
 350 -41 350 -41 209.5 133 c 128,-1,19
 69 307 69 307 69 573 c 0,20,21
 69 807 69 807 230 982 c 128,-1,22
 391 1157 391 1157 626 1157 c 0,23,24
 642 1157 642 1157 683 1153 c 0,25,26
 690 1153 690 1153 690 1147 c 2,27,-1
 681 969 l 2,28,29
 681 963 681 963 673 963 c 0,30,31
 663 965 663 965 642 965 c 0,32,33
 491 965 491 965 383.5 857.5 c 128,-1,34
 276 750 276 750 276 594 c 0,35,36
 276 504 276 504 284 461 c 0,37,38
 305 342 305 342 387.5 242.5 c 128,-1,39
 470 143 470 143 589 143 c 0,40,41
 622 143 622 143 679 152 c 0,42,43
 687 152 687 152 687 158 c 0,44,45
 677 236 677 236 664 369 c 128,-1,46
 651 502 651 502 647 532 c 0,47,48
 647 539 647 539 653 539 c 0,49,50
 708 549 708 549 811.5 562 c 128,-1,51
 915 575 915 575 948 580 c 0,52,53
 950 581 950 581 952 581 c 0,54,55
 956 581 956 581 956 573 c 0,56,57
 960 549 960 549 963 520.5 c 128,-1,58
 966 492 966 492 969 458 c 128,-1,59
 972 424 972 424 974 406 c 0,0,1
EndSplineSet
Validated: 1
EndChar

StartChar: H
Encoding: 72 72 38
Width: 995
Flags: W
LayerCount: 2
Fore
SplineSet
880 1133 m 0,0,1
 855 694 855 694 853 578 c 2,2,-1
 853 207 l 2,3,4
 853 176 853 176 852 103.5 c 128,-1,5
 851 31 851 31 851 8 c 0,6,7
 851 0 851 0 845 0 c 2,8,-1
 661 -6 l 1,9,-1
 659 -6 l 2,10,11
 655 -6 655 -6 655 0 c 2,12,-1
 655 156 l 2,13,14
 655 193 655 193 653.5 272.5 c 128,-1,15
 652 352 652 352 652 397 c 0,16,17
 652 403 652 403 644 403 c 0,18,19
 487 403 487 403 329 393 c 0,20,21
 321 393 321 393 321 387 c 0,22,23
 321 354 321 354 323 214 c 128,-1,24
 325 74 325 74 327 10 c 0,25,26
 327 2 327 2 319 2 c 2,27,-1
 259 2 l 2,28,29
 247 2 247 2 134 -8 c 0,30,31
 132 -9 132 -9 130 -9 c 0,32,33
 126 -9 126 -9 126 -2 c 0,34,35
 130 209 130 209 130 580 c 0,36,37
 130 872 130 872 120 1073 c 0,38,39
 120 1081 120 1081 128 1081 c 0,40,41
 181 1079 181 1079 233 1079 c 256,42,43
 285 1079 285 1079 337 1081 c 0,44,45
 343 1081 343 1081 343 1073 c 0,46,47
 343 1049 343 1049 339 991 c 0,48,49
 327 688 327 688 325 586 c 0,50,51
 325 580 325 580 331 580 c 0,52,53
 398 575 398 575 476 575 c 0,54,55
 555 575 555 575 646 580 c 0,56,57
 652 580 652 580 652 586 c 0,58,59
 654 691 654 691 654 783 c 0,60,61
 654 986 654 986 646 1126 c 0,62,63
 646 1135 646 1135 655 1135 c 0,64,65
 726 1135 726 1135 874 1139 c 0,66,67
 875 1140 875 1140 876 1140 c 256,68,69
 877 1140 877 1140 879 1138 c 256,70,71
 881 1136 881 1136 881 1135 c 256,72,73
 881 1134 881 1134 880 1133 c 0,0,1
EndSplineSet
Validated: 1
EndChar

StartChar: I
Encoding: 73 73 39
Width: 671
Flags: W
LayerCount: 2
Fore
SplineSet
589 -6 m 2,0,1
 589 -12 589 -12 581 -12 c 0,2,3
 511 -20 511 -20 153 -51 c 0,4,5
 147 -51 147 -51 147 -45 c 0,6,7
 145 -25 145 -25 140.5 15 c 128,-1,8
 136 55 136 55 134 76 c 0,9,10
 134 82 134 82 141 82 c 0,11,12
 149 84 149 84 192 89 c 128,-1,13
 235 94 235 94 253 98 c 0,14,15
 259 98 259 98 259 106 c 0,16,17
 251 289 251 289 216 934 c 0,18,19
 216 942 216 942 208 942 c 2,20,-1
 91 924 l 2,21,22
 89 923 89 923 87 923 c 0,23,24
 83 923 83 923 83 930 c 0,25,26
 83 954 83 954 79 1004.5 c 128,-1,27
 75 1055 75 1055 75 1065 c 0,28,29
 75 1071 75 1071 81 1071 c 0,30,31
 130 1079 130 1079 291 1103.5 c 128,-1,32
 452 1128 452 1128 540 1143 c 0,33,34
 542 1144 542 1144 544 1144 c 0,35,36
 548 1144 548 1144 548 1137 c 0,37,38
 550 1118 550 1118 560 993 c 0,39,40
 561 991 561 991 561 989 c 0,41,42
 561 985 561 985 554 985 c 0,43,44
 450 971 450 971 413 963 c 0,45,46
 407 958 407 958 407 954 c 0,47,48
 433 485 433 485 462 125 c 0,49,50
 462 117 462 117 468 117 c 0,51,52
 493 121 493 121 526.5 124 c 128,-1,53
 560 127 560 127 575 129 c 0,54,55
 583 129 583 129 583 123 c 2,56,-1
 589 -6 l 2,0,1
EndSplineSet
Validated: 1
EndChar

StartChar: J
Encoding: 74 74 40
Width: 819
Flags: W
LayerCount: 2
Fore
SplineSet
712 573 m 0,0,1
 712 504 712 504 710 462 c 128,-1,2
 708 420 708 420 702 347 c 128,-1,3
 696 274 696 274 683.5 227 c 128,-1,4
 671 180 671 180 645.5 123 c 128,-1,5
 620 66 620 66 586 33 c 128,-1,6
 552 0 552 0 499 -23.5 c 128,-1,7
 446 -47 446 -47 378 -47 c 0,8,9
 194 -47 194 -47 112 55.5 c 128,-1,10
 30 158 30 158 30 324 c 2,11,-1
 32 426 l 2,12,13
 32 432 32 432 38 432 c 0,14,15
 67 440 67 440 138.5 455.5 c 128,-1,16
 210 471 210 471 247 481 c 0,17,18
 249 482 249 482 251 482 c 0,19,20
 255 482 255 482 255 475 c 0,21,22
 255 453 255 453 253 385 c 2,23,-1
 253 317 l 2,24,25
 253 268 253 268 279.5 225 c 128,-1,26
 306 182 306 182 358 182 c 0,27,28
 476 182 476 182 487 408 c 0,29,30
 488 420 488 420 488 438 c 0,31,32
 488 556 488 556 466 958 c 0,33,34
 464 991 464 991 460 1039 c 128,-1,35
 456 1087 456 1087 456 1114 c 0,36,37
 456 1122 456 1122 462 1122 c 0,38,39
 679 1141 679 1141 698 1145 c 0,40,41
 706 1145 706 1145 706 1135 c 0,42,43
 708 1110 708 1110 708 1081 c 256,44,45
 708 1052 708 1052 706 1018 c 0,46,47
 706 965 706 965 709 811 c 128,-1,48
 712 657 712 657 712 573 c 0,0,1
EndSplineSet
Validated: 1
EndChar

StartChar: K
Encoding: 75 75 41
Width: 933
Flags: W
LayerCount: 2
Fore
SplineSet
890 121 m 0,0,1
 849 72 849 72 757 -31 c 0,2,3
 754 -33 754 -33 752 -33 c 0,4,5
 749 -33 749 -33 747 -31 c 0,6,7
 567 180 567 180 327 408 c 0,8,9
 323 411 323 411 320 411 c 0,10,11
 315 411 315 411 315 401 c 0,12,13
 321 326 321 326 326 196 c 128,-1,14
 331 66 331 66 335 10 c 0,15,16
 335 4 335 4 329 4 c 0,17,18
 297 0 297 0 234.5 -4 c 128,-1,19
 172 -8 172 -8 141 -12 c 0,20,21
 135 -12 135 -12 135 -4 c 2,22,-1
 135 66 l 2,23,24
 135 532 135 532 127 666 c 0,25,26
 122 719 122 719 116 887 c 128,-1,27
 110 1055 110 1055 106 1094 c 1,28,-1
 106 1097 l 2,29,30
 106 1102 106 1102 112 1102 c 0,31,32
 235 1106 235 1106 317 1112 c 0,33,34
 323 1112 323 1112 323 1104 c 0,35,36
 315 938 315 938 315 727 c 2,37,-1
 315 664 l 2,38,39
 315 659 315 659 317 655 c 2,40,-1
 317 649 l 1,41,42
 342 631 342 631 374 606 c 0,43,44
 378 604 378 604 380 604 c 0,45,46
 384 604 384 604 385 608 c 0,47,48
 522 803 522 803 585 932 c 0,49,50
 612 985 612 985 657 1071 c 0,51,52
 657 1073 657 1073 660 1075 c 0,53,54
 662 1076 662 1076 663 1076 c 256,55,56
 664 1076 664 1076 665 1075 c 0,57,58
 718 1047 718 1047 852 995 c 0,59,60
 857 994 857 994 857 990 c 0,61,62
 857 988 857 988 856 985 c 0,63,64
 602 627 602 627 526 492 c 0,65,66
 526 485 526 485 528 483 c 0,67,68
 604 408 604 408 702 305 c 0,69,70
 745 260 745 260 888 131 c 0,71,72
 892 130 892 130 892 127 c 256,73,74
 892 124 892 124 890 121 c 0,0,1
EndSplineSet
Validated: 1
EndChar

StartChar: L
Encoding: 76 76 42
Width: 757
Flags: W
LayerCount: 2
Fore
SplineSet
714 199 m 0,0,1
 708 168 708 168 697.5 104.5 c 128,-1,2
 687 41 687 41 681 8 c 0,3,4
 681 2 681 2 675 2 c 0,5,6
 628 3 628 3 574 3 c 0,7,8
 393 3 393 3 128 -12 c 0,9,10
 122 -12 122 -12 122 -4 c 0,11,12
 123 35 123 35 123 106 c 0,13,14
 123 320 123 320 118 831 c 0,15,16
 118 965 118 965 112 1094 c 0,17,18
 112 1102 112 1102 120 1102 c 2,19,-1
 137 1102 l 2,20,21
 207 1102 207 1102 331 1116 c 0,22,23
 339 1116 339 1116 339 1110 c 0,24,25
 329 973 329 973 314.5 692.5 c 128,-1,26
 300 412 300 412 296 330 c 0,27,28
 296 315 296 315 293 265 c 128,-1,29
 290 215 290 215 288 174 c 0,30,31
 288 166 288 166 296 166 c 0,32,33
 319 168 319 168 484 183.5 c 128,-1,34
 649 199 649 199 706 207 c 0,35,36
 714 207 714 207 714 199 c 0,0,1
EndSplineSet
Validated: 1
EndChar

StartChar: M
Encoding: 77 77 43
Width: 1116
Flags: W
LayerCount: 2
Fore
SplineSet
1003 -20 m 0,0,1
 1003 -27 1003 -27 996 -27 c 0,2,3
 953 -31 953 -31 792 -45 c 0,4,5
 784 -45 784 -45 784 -41 c 0,6,7
 784 -39 784 -39 786 -37 c 0,8,9
 804 213 804 213 804 547 c 0,10,11
 804 553 804 553 799 554 c 2,12,-1
 797 554 l 2,13,14
 794 554 794 554 792 551 c 0,15,16
 663 348 663 348 595 236 c 0,17,18
 592 233 592 233 589 233 c 256,19,20
 586 233 586 233 583 236 c 0,21,22
 558 268 558 268 523.5 318.5 c 128,-1,23
 489 369 489 369 433.5 448.5 c 128,-1,24
 378 528 378 528 341 582 c 0,25,26
 338 585 338 585 335 585 c 0,27,28
 331 585 331 585 329 578 c 0,29,30
 310 49 310 49 308 -31 c 0,31,32
 308 -37 308 -37 302 -37 c 0,33,34
 276 -41 276 -41 200 -50 c 128,-1,35
 124 -59 124 -59 89 -63 c 0,36,37
 81 -63 81 -63 81 -55 c 0,38,39
 89 63 89 63 110.5 282.5 c 128,-1,40
 132 502 132 502 158.5 763 c 128,-1,41
 185 1024 185 1024 194 1108 c 0,42,43
 194 1114 194 1114 199 1115 c 2,44,-1
 200 1115 l 2,45,46
 204 1115 204 1115 206 1110 c 0,47,48
 304 944 304 944 392 815 c 0,49,50
 470 694 470 694 577 510 c 0,51,52
 581 506 581 506 583 506 c 0,53,54
 587 506 587 506 589 512 c 0,55,56
 634 598 634 598 766 824.5 c 128,-1,57
 898 1051 898 1051 939 1128 c 0,58,59
 943 1133 943 1133 948 1133 c 256,60,61
 953 1133 953 1133 953 1124 c 0,62,63
 960 997 960 997 968 763.5 c 128,-1,64
 976 530 976 530 984 340 c 128,-1,65
 992 150 992 150 1003 -20 c 0,0,1
EndSplineSet
Validated: 1
EndChar

StartChar: N
Encoding: 78 78 44
Width: 978
Flags: W
LayerCount: 2
Fore
SplineSet
870 1114 m 0,0,1
 868 993 868 993 863 775 c 128,-1,2
 858 557 858 557 855 379 c 128,-1,3
 852 201 852 201 852 43 c 2,4,-1
 852 -12 l 2,5,6
 852 -18 852 -18 848 -19 c 2,7,-1
 847 -19 l 2,8,9
 844 -19 844 -19 842 -16 c 0,10,11
 635 180 635 180 598 217 c 0,12,13
 557 260 557 260 469 357.5 c 128,-1,14
 381 455 381 455 313 526 c 0,15,16
 308 531 308 531 305 531 c 0,17,18
 301 531 301 531 301 520 c 0,19,20
 305 465 305 465 314 349 c 128,-1,21
 323 233 323 233 331.5 144 c 128,-1,22
 340 55 340 55 352 -25 c 0,23,24
 352 -29 352 -29 350 -32 c 0,25,26
 349 -34 349 -34 347 -34 c 0,27,28
 346 -34 346 -34 344 -33 c 0,29,30
 313 -31 313 -31 252 -31 c 0,31,32
 188 -31 188 -31 157 -33 c 0,33,34
 155 -34 155 -34 153 -34 c 0,35,36
 149 -34 149 -34 149 -27 c 0,37,38
 145 10 145 10 143 78.5 c 128,-1,39
 141 147 141 147 139 170 c 0,40,41
 100 997 100 997 94 1069 c 0,42,43
 94 1080 94 1080 98 1080 c 0,44,45
 101 1080 101 1080 106 1075 c 0,46,47
 418 680 418 680 674 387 c 0,48,49
 678 385 678 385 681 385 c 0,50,51
 686 385 686 385 688 391 c 0,52,53
 682 489 682 489 676 614 c 0,54,55
 672 674 672 674 661.5 852 c 128,-1,56
 651 1030 651 1030 645 1112 c 0,57,58
 645 1120 645 1120 651 1120 c 0,59,60
 652 1119 652 1119 699 1119 c 2,61,-1
 757 1119 l 2,62,63
 860 1120 860 1120 862 1120 c 0,64,65
 870 1120 870 1120 870 1114 c 0,0,1
EndSplineSet
Validated: 1
EndChar

StartChar: O
Encoding: 79 79 45
Width: 1075
Flags: W
LayerCount: 2
Fore
SplineSet
999 543 m 0,0,1
 999 391 999 391 951.5 264 c 128,-1,2
 904 137 904 137 794.5 51 c 128,-1,3
 685 -35 685 -35 532 -35 c 0,4,5
 325 -35 325 -35 200 119.5 c 128,-1,6
 75 274 75 274 75 506 c 0,7,8
 75 756 75 756 204 944.5 c 128,-1,9
 333 1133 333 1133 548 1133 c 0,10,11
 753 1133 753 1133 876 957.5 c 128,-1,12
 999 782 999 782 999 543 c 0,0,1
786 524 m 0,13,14
 786 584 786 584 775.5 645.5 c 128,-1,15
 765 707 765 707 743.5 771.5 c 128,-1,16
 722 836 722 836 678 875.5 c 128,-1,17
 634 915 634 915 575 915 c 0,18,19
 429 915 429 915 359.5 798.5 c 128,-1,20
 290 682 290 682 290 520 c 0,21,22
 290 158 290 158 530 158 c 0,23,24
 626 158 626 158 685.5 216 c 128,-1,25
 745 274 745 274 765.5 351 c 128,-1,26
 786 428 786 428 786 524 c 0,13,14
EndSplineSet
Validated: 1
EndChar

StartChar: P
Encoding: 80 80 46
Width: 1021
Flags: W
LayerCount: 2
Fore
SplineSet
971 850 m 1,0,1
 962 678 962 678 816 538.5 c 128,-1,2
 670 399 670 399 473 346 c 0,3,4
 469 342 469 342 469 338 c 0,5,6
 471 258 471 258 479 157.5 c 128,-1,7
 487 57 487 57 489 10 c 0,8,9
 489 4 489 4 483 4 c 0,10,11
 436 -2 436 -2 376.5 -8 c 128,-1,12
 317 -14 317 -14 289 -18 c 0,13,14
 280 -18 280 -18 280 -12 c 0,15,16
 276 643 276 643 252 889 c 0,17,18
 252 895 252 895 244 895 c 0,19,20
 180 879 180 879 96 848 c 0,21,22
 94 847 94 847 92 847 c 0,23,24
 88 847 88 847 88 854 c 0,25,26
 63 977 63 977 53 1038 c 0,27,28
 52 1041 52 1041 52 1043 c 0,29,30
 52 1047 52 1047 57 1047 c 0,31,32
 174 1094 174 1094 326 1128 c 0,33,34
 461 1157 461 1157 557 1157 c 2,35,-1
 579 1157 l 1,36,37
 971 1140 971 1140 971 866 c 2,38,-1
 971 850 l 1,0,1
741 799 m 2,39,-1
 741 814 l 2,40,41
 741 890 741 890 703 925 c 0,42,43
 661 963 661 963 575 967 c 0,44,45
 500 967 500 967 438 940 c 0,46,47
 434 936 434 936 434 933 c 2,48,-1
 434 932 l 1,49,50
 452 606 452 606 461 504 c 0,51,52
 461 498 461 498 469 498 c 0,53,54
 586 541 586 541 662.5 621.5 c 128,-1,55
 739 702 739 702 741 799 c 2,39,-1
EndSplineSet
Validated: 1
EndChar

StartChar: Q
Encoding: 81 81 47
Width: 1118
Flags: W
LayerCount: 2
Fore
SplineSet
1069 141 m 0,0,1
 1059 117 1059 117 1027 47 c 128,-1,2
 995 -23 995 -23 979 -59 c 0,3,4
 976 -65 976 -65 973 -65 c 0,5,6
 971 -65 971 -65 969 -63 c 0,7,8
 915 -29 915 -29 768 90 c 0,9,10
 766 92 766 92 764 92 c 0,11,12
 761 92 761 92 758 90 c 0,13,14
 637 -31 637 -31 494 -31 c 0,15,16
 356 -31 356 -31 261 61.5 c 128,-1,17
 166 154 166 154 127 277.5 c 128,-1,18
 88 401 88 401 88 537 c 0,19,20
 88 692 88 692 140 833.5 c 128,-1,21
 192 975 192 975 309 1075.5 c 128,-1,22
 426 1176 426 1176 584 1176 c 0,23,24
 776 1176 776 1176 877.5 1029.5 c 128,-1,25
 979 883 979 883 979 676 c 0,26,27
 979 444 979 444 879 252 c 0,28,29
 877 249 877 249 877 246 c 256,30,31
 877 243 877 243 881 242 c 0,32,33
 1024 168 1024 168 1065 150 c 0,34,35
 1069 150 1069 150 1069 141 c 0,0,1
770 639 m 0,36,37
 770 754 770 754 723 842 c 128,-1,38
 676 930 676 930 571 930 c 0,39,40
 496 930 496 930 440.5 885 c 128,-1,41
 385 840 385 840 359.5 766 c 128,-1,42
 334 692 334 692 323.5 624.5 c 128,-1,43
 313 557 313 557 313 487 c 0,44,45
 313 436 313 436 320.5 389 c 128,-1,46
 328 342 328 342 347.5 292 c 128,-1,47
 367 242 367 242 407.5 212 c 128,-1,48
 448 182 448 182 506 182 c 0,49,50
 553 182 553 182 594 209 c 0,51,52
 597 212 597 212 597 215 c 256,53,54
 597 218 597 218 594 221 c 0,55,56
 559 254 559 254 510 315 c 0,57,58
 508 317 508 317 508 319 c 0,59,60
 508 322 508 322 512 326 c 0,61,62
 524 336 524 336 544.5 355.5 c 128,-1,63
 565 375 565 375 582.5 390.5 c 128,-1,64
 600 406 600 406 616 418 c 1,65,66
 625 418 625 418 627 416 c 0,67,68
 633 410 633 410 645 398.5 c 128,-1,69
 657 387 657 387 663 381 c 0,70,71
 702 348 702 348 704 346 c 0,72,73
 707 345 707 345 709 345 c 0,74,75
 714 345 714 345 717 350 c 0,76,77
 770 498 770 498 770 639 c 0,36,37
EndSplineSet
Validated: 1
EndChar

StartChar: R
Encoding: 82 82 48
Width: 968
Flags: W
LayerCount: 2
Fore
SplineSet
950 49 m 0,0,1
 951 46 951 46 951 44 c 0,2,3
 951 39 951 39 946 39 c 0,4,5
 925 31 925 31 747 -37 c 0,6,7
 745 -38 745 -38 743 -38 c 0,8,9
 740 -38 740 -38 737 -35 c 0,10,11
 717 4 717 4 662.5 103.5 c 128,-1,12
 608 203 608 203 565 286 c 128,-1,13
 522 369 522 369 491 440 c 0,14,15
 488 446 488 446 485 446 c 0,16,17
 483 446 483 446 481 444 c 0,18,19
 420 428 420 428 358 424 c 0,20,21
 352 424 352 424 352 416 c 0,22,23
 348 337 348 337 348 259 c 0,24,25
 348 208 348 208 350 156 c 0,26,27
 350 129 350 129 352 74.5 c 128,-1,28
 354 20 354 20 354 -6 c 0,29,30
 354 -14 354 -14 348 -14 c 2,31,-1
 151 -14 l 2,32,33
 145 -14 145 -14 145 -6 c 0,34,35
 145 127 145 127 151 262 c 0,36,37
 160 530 160 530 166 973 c 0,38,39
 166 981 166 981 157 981 c 0,40,41
 88 977 88 977 59 977 c 2,42,-1
 57 977 l 2,43,44
 53 977 53 977 53 983 c 0,45,46
 53 995 53 995 52 1022 c 128,-1,47
 51 1049 51 1049 51 1063 c 2,48,-1
 51 1135 l 2,49,50
 51 1143 51 1143 57 1143 c 0,51,52
 200 1160 200 1160 321 1160 c 0,53,54
 354 1160 354 1160 385 1159 c 0,55,56
 618 1151 618 1151 719 1083 c 0,57,58
 778 1042 778 1042 814 973.5 c 128,-1,59
 850 905 850 905 850 831 c 0,60,61
 850 621 850 621 649 510 c 0,62,63
 645 509 645 509 645 506 c 256,64,65
 645 503 645 503 647 500 c 0,66,67
 696 418 696 418 804.5 263.5 c 128,-1,68
 913 109 913 109 950 49 c 0,0,1
629 807 m 0,69,70
 629 881 629 881 573.5 937 c 128,-1,71
 518 993 518 993 446 995 c 0,72,73
 383 995 383 995 370 993 c 0,74,75
 362 993 362 993 362 987 c 0,76,77
 360 918 360 918 357 797 c 128,-1,78
 354 676 354 676 354 608 c 0,79,80
 354 604 354 604 364 600 c 0,81,82
 370 598 370 598 389 598 c 0,83,84
 479 598 479 598 554 658.5 c 128,-1,85
 629 719 629 719 629 807 c 0,69,70
EndSplineSet
Validated: 1
EndChar

StartChar: S
Encoding: 83 83 49
Width: 856
Flags: W
LayerCount: 2
Fore
SplineSet
774 295 m 0,0,1
 774 211 774 211 729 146.5 c 128,-1,2
 684 82 684 82 609 47 c 128,-1,3
 534 12 534 12 453 -4 c 128,-1,4
 372 -20 372 -20 286 -20 c 0,5,6
 219 -20 219 -20 133 -10 c 0,7,8
 127 -10 127 -10 127 -4 c 0,9,10
 125 63 125 63 116 188 c 0,11,12
 116 198 116 198 122 198 c 0,13,14
 124 198 124 198 127 197 c 0,15,16
 202 164 202 164 325 164 c 0,17,18
 368 164 368 164 412 173 c 128,-1,19
 456 182 456 182 496 212 c 128,-1,20
 536 242 536 242 536 285 c 0,21,22
 536 326 536 326 510.5 356.5 c 128,-1,23
 485 387 485 387 455.5 403.5 c 128,-1,24
 426 420 426 420 366.5 445.5 c 128,-1,25
 307 471 307 471 276 487 c 0,26,27
 96 584 96 584 96 784 c 0,28,29
 96 860 96 860 139 926 c 0,30,31
 274 1141 274 1141 647 1141 c 0,32,33
 678 1141 678 1141 735 1137 c 0,34,35
 741 1137 741 1137 741 1130 c 0,36,37
 739 1112 739 1112 736 1071 c 128,-1,38
 733 1030 733 1030 733 1018 c 0,39,40
 731 995 731 995 731 971 c 0,41,42
 731 948 731 948 733 924 c 0,43,44
 733 915 733 915 725 915 c 0,45,46
 651 924 651 924 604 924 c 0,47,48
 547 924 547 924 484.5 910.5 c 128,-1,49
 422 897 422 897 365.5 859 c 128,-1,50
 309 821 309 821 309 764 c 0,51,52
 309 731 309 731 322.5 705.5 c 128,-1,53
 336 680 336 680 363.5 658.5 c 128,-1,54
 391 637 391 637 410.5 625.5 c 128,-1,55
 430 614 430 614 467 596 c 0,56,57
 479 590 479 590 522 568.5 c 128,-1,58
 565 547 565 547 583.5 536.5 c 128,-1,59
 602 526 602 526 639 503.5 c 128,-1,60
 676 481 676 481 693 462.5 c 128,-1,61
 710 444 710 444 732.5 417.5 c 128,-1,62
 755 391 755 391 764.5 360.5 c 128,-1,63
 774 330 774 330 774 295 c 0,0,1
EndSplineSet
Validated: 1
EndChar

StartChar: T
Encoding: 84 84 50
Width: 952
Flags: W
LayerCount: 2
Fore
SplineSet
910 1141 m 0,0,1
 906 1110 906 1110 890 918 c 0,2,3
 890 911 890 911 884 911 c 0,4,5
 849 911 849 911 716 908 c 128,-1,6
 583 905 583 905 544 903 c 0,7,8
 538 903 538 903 538 895 c 0,9,10
 544 831 544 831 574.5 497.5 c 128,-1,11
 605 164 605 164 626 -16 c 0,12,13
 626 -25 626 -25 620 -25 c 0,14,15
 603 -25 603 -25 563 -22.5 c 128,-1,16
 523 -20 523 -20 505 -20 c 2,17,-1
 392 -20 l 2,18,19
 388 -20 388 -20 384 -14 c 0,20,21
 382 41 382 41 370 367 c 0,22,23
 366 434 366 434 361.5 620.5 c 128,-1,24
 357 807 357 807 351 899 c 0,25,26
 351 905 351 905 345 905 c 0,27,28
 173 899 173 899 56 889 c 0,29,30
 48 889 48 889 48 895 c 0,31,32
 46 922 46 922 44 975 c 128,-1,33
 42 1028 42 1028 40 1055 c 0,34,35
 40 1061 40 1061 46 1061 c 0,36,37
 204 1079 204 1079 509 1109 c 128,-1,38
 814 1139 814 1139 902 1149 c 0,39,40
 910 1149 910 1149 910 1141 c 0,0,1
EndSplineSet
Validated: 1
EndChar

StartChar: U
Encoding: 85 85 51
Width: 987
Flags: W
LayerCount: 2
Fore
SplineSet
907 678 m 0,0,1
 907 559 907 559 900 469 c 128,-1,2
 893 379 893 379 867.5 283.5 c 128,-1,3
 842 188 842 188 798 127 c 128,-1,4
 754 66 754 66 676 26 c 128,-1,5
 598 -14 598 -14 492 -14 c 0,6,7
 342 -14 342 -14 262 85 c 128,-1,8
 182 184 182 184 156 344 c 0,9,10
 143 424 143 424 132 540.5 c 128,-1,11
 121 657 121 657 106.5 831.5 c 128,-1,12
 92 1006 92 1006 86 1077 c 0,13,14
 86 1079 86 1079 92 1085 c 1,15,16
 127 1092 127 1092 191.5 1108 c 128,-1,17
 256 1124 256 1124 301 1135 c 0,18,19
 309 1135 309 1135 309 1128 c 0,20,21
 311 1063 311 1063 319 928 c 0,22,23
 322 891 322 891 326 768 c 128,-1,24
 330 645 330 645 336 547 c 128,-1,25
 342 449 342 449 354 362 c 0,26,27
 365 289 365 289 408 244 c 128,-1,28
 451 199 451 199 524 199 c 0,29,30
 555 199 555 199 580.5 208 c 128,-1,31
 606 217 606 217 623.5 240.5 c 128,-1,32
 641 264 641 264 653.5 281.5 c 128,-1,33
 666 299 666 299 674 338 c 128,-1,34
 682 377 682 377 686 394.5 c 128,-1,35
 690 412 690 412 692 458 c 128,-1,36
 694 504 694 504 695 513 c 128,-1,37
 696 522 696 522 696 565 c 2,38,-1
 696 606 l 2,39,40
 696 822 696 822 659 1098 c 0,41,42
 658 1100 658 1100 658 1102 c 0,43,44
 658 1106 658 1106 666 1106 c 0,45,46
 707 1112 707 1112 776.5 1127.5 c 128,-1,47
 846 1143 846 1143 879 1149 c 0,48,49
 885 1149 885 1149 889 1143 c 0,50,51
 907 895 907 895 907 678 c 0,0,1
EndSplineSet
Validated: 1
EndChar

StartChar: V
Encoding: 86 86 52
Width: 1087
Flags: W
LayerCount: 2
Fore
SplineSet
1062 1049 m 0,0,1
 990 903 990 903 879.5 680 c 128,-1,2
 769 457 769 457 682 278.5 c 128,-1,3
 595 100 595 100 519 -68 c 0,4,5
 516 -76 516 -76 512 -76 c 0,6,7
 509 -76 509 -76 505 -70 c 0,8,9
 458 27 458 27 282 450.5 c 128,-1,10
 106 874 106 874 32 1071 c 0,11,12
 32 1079 32 1079 36 1079 c 0,13,14
 98 1108 98 1108 259 1176 c 0,15,16
 261 1177 261 1177 263 1177 c 0,17,18
 267 1177 267 1177 270 1171 c 0,19,20
 300 1081 300 1081 385 811 c 128,-1,21
 470 541 470 541 513 422 c 0,22,23
 515 416 515 416 520 416 c 0,24,25
 524 416 524 416 526 422 c 0,26,27
 585 561 585 561 694.5 839.5 c 128,-1,28
 804 1118 804 1118 814 1145 c 0,29,30
 814 1149 814 1149 823 1149 c 0,31,32
 886 1126 886 1126 1058 1059 c 0,33,34
 1063 1056 1063 1056 1063 1053 c 0,35,36
 1063 1051 1063 1051 1062 1049 c 0,0,1
EndSplineSet
Validated: 1
EndChar

StartChar: W
Encoding: 87 87 53
Width: 1304
Flags: W
LayerCount: 2
Fore
SplineSet
1263 1085 m 0,0,1
 1228 895 1228 895 1144 517 c 128,-1,2
 1060 139 1060 139 1005 -61 c 0,3,4
 1003 -69 1003 -69 1000 -69 c 256,5,6
 997 -69 997 -69 993 -61 c 0,7,8
 825 246 825 246 688 541 c 0,9,10
 685 545 685 545 682 545 c 0,11,12
 678 545 678 545 675 539 c 0,13,14
 612 336 612 336 477 -78 c 0,15,16
 475 -84 475 -84 471 -84 c 0,17,18
 466 -84 466 -84 464 -78 c 0,19,20
 155 686 155 686 22 985 c 0,21,22
 22 993 22 993 26 995 c 0,23,24
 61 1012 61 1012 125.5 1042.5 c 128,-1,25
 190 1073 190 1073 217 1085 c 0,26,27
 220 1087 220 1087 222 1087 c 0,28,29
 225 1087 225 1087 225 1081 c 0,30,31
 247 1008 247 1008 326 772.5 c 128,-1,32
 405 537 405 537 448 397 c 0,33,34
 450 391 450 391 454 391 c 256,35,36
 458 391 458 391 462 397 c 0,37,38
 542 635 542 635 573 743 c 0,39,40
 587 795 587 795 618 892 c 128,-1,41
 649 989 649 989 653 1006 c 0,42,43
 655 1012 655 1012 659 1012 c 256,44,45
 663 1012 663 1012 667 1008 c 0,46,47
 714 893 714 893 821.5 651.5 c 128,-1,48
 929 410 929 410 935 397 c 0,49,50
 939 392 939 392 943 392 c 2,51,-1
 944 392 l 2,52,53
 948 393 948 393 950 399 c 0,54,55
 1009 741 1009 741 1062 1141 c 0,56,57
 1062 1147 1062 1147 1071 1147 c 0,58,59
 1101 1137 1101 1137 1164.5 1120.5 c 128,-1,60
 1228 1104 1228 1104 1259 1094 c 0,61,62
 1263 1094 1263 1094 1263 1085 c 0,0,1
EndSplineSet
Validated: 1
EndChar

StartChar: X
Encoding: 88 88 54
Width: 964
Flags: W
LayerCount: 2
Fore
SplineSet
924 1049 m 0,0,1
 903 1012 903 1012 756 788 c 0,2,3
 750 778 750 778 692.5 692 c 128,-1,4
 635 606 635 606 606 559 c 1,5,-1
 606 553 l 1,6,7
 631 508 631 508 754 309 c 0,8,9
 782 262 782 262 820 201.5 c 128,-1,10
 858 141 858 141 882.5 101 c 128,-1,11
 907 61 907 61 917 45 c 0,12,13
 919 42 919 42 919 40 c 0,14,15
 919 35 919 35 911 35 c 0,16,17
 801 10 801 10 680 -6 c 0,18,19
 679 -7 679 -7 677 -7 c 2,20,-1
 676 -7 l 2,21,22
 674 -6 674 -6 674 -4 c 0,23,24
 645 55 645 55 577.5 175 c 128,-1,25
 510 295 510 295 481 352 c 0,26,27
 477 360 477 360 474 360 c 256,28,29
 471 360 471 360 469 352 c 0,30,31
 434 274 434 274 379 140 c 128,-1,32
 324 6 324 6 301 -45 c 0,33,34
 298 -50 298 -50 296 -50 c 256,35,36
 294 -50 294 -50 293 -49 c 0,37,38
 192 -25 192 -25 96 6 c 0,39,40
 89 6 89 6 89 10 c 0,41,42
 89 12 89 12 90 14 c 0,43,44
 135 109 135 109 225 285 c 128,-1,45
 315 461 315 461 352 535 c 1,46,-1
 352 541 l 1,47,-1
 315 602 l 2,48,49
 264 686 264 686 169 837.5 c 128,-1,50
 74 989 74 989 49 1028 c 0,51,52
 48 1030 48 1030 48 1032 c 0,53,54
 48 1035 48 1035 53 1038 c 0,55,56
 74 1047 74 1047 283 1145 c 0,57,58
 285 1146 285 1146 287 1146 c 0,59,60
 290 1146 290 1146 293 1141 c 0,61,62
 354 995 354 995 483 756 c 0,63,64
 487 751 487 751 491 751 c 256,65,66
 495 751 495 751 498 756 c 0,67,68
 534 823 534 823 603 965.5 c 128,-1,69
 672 1108 672 1108 704 1169 c 0,70,71
 704 1171 704 1171 708 1173 c 2,72,-1
 710 1173 l 2,73,74
 712 1173 712 1173 713 1171 c 0,75,76
 743 1157 743 1157 824 1112 c 128,-1,77
 905 1067 905 1067 922 1059 c 0,78,79
 924 1057 924 1057 925 1054 c 2,80,-1
 925 1052 l 2,81,82
 925 1050 925 1050 924 1049 c 0,0,1
EndSplineSet
Validated: 1
EndChar

StartChar: Y
Encoding: 89 89 55
Width: 1030
Flags: W
LayerCount: 2
Fore
SplineSet
997 1051 m 0,0,1
 956 989 956 989 863 856 c 0,2,3
 808 774 808 774 712 625.5 c 128,-1,4
 616 477 616 477 573 412 c 0,5,6
 569 403 569 403 569 399 c 0,7,8
 569 354 569 354 567.5 198.5 c 128,-1,9
 566 43 566 43 564 -31 c 0,10,11
 564 -37 564 -37 556 -37 c 0,12,13
 501 -35 501 -35 358 -25 c 0,14,15
 351 -25 351 -25 351 -16 c 0,16,17
 380 242 380 242 380 403 c 0,18,19
 380 416 380 416 376 422 c 0,20,21
 366 440 366 440 138 856 c 0,22,23
 134 864 134 864 95.5 926.5 c 128,-1,24
 57 989 57 989 38 1024 c 0,25,26
 37 1026 37 1026 37 1028 c 0,27,28
 37 1031 37 1031 42 1034 c 0,29,30
 198 1098 198 1098 224 1110 c 0,31,32
 226 1111 226 1111 228 1111 c 0,33,34
 232 1111 232 1111 235 1106 c 0,35,36
 270 1024 270 1024 348.5 864.5 c 128,-1,37
 427 705 427 705 485 580 c 0,38,39
 487 574 487 574 490 574 c 256,40,41
 493 574 493 574 497 580 c 0,42,43
 601 770 601 770 786 1126 c 0,44,45
 788 1130 788 1130 794 1130 c 0,46,47
 837 1114 837 1114 992 1061 c 0,48,49
 999 1058 999 1058 999 1055 c 0,50,51
 999 1053 999 1053 997 1051 c 0,0,1
EndSplineSet
Validated: 1
EndChar

StartChar: Z
Encoding: 90 90 56
Width: 1057
Flags: W
LayerCount: 2
Fore
SplineSet
790 15 m 0,1,2
 790 8 790 8 784 8 c 0,3,4
 226 -21 226 -21 86 -41 c 0,5,6
 84 -42 84 -42 81 -42 c 0,7,8
 76 -42 76 -42 76 -37 c 0,9,10
 76 -36 76 -36 77 -33 c 0,11,12
 234 336 234 336 479 885 c 0,13,14
 480 886 480 886 480 888 c 0,15,16
 480 891 480 891 479 892 c 0,17,18
 478 895 478 895 473 895 c 0,19,20
 124 860 124 860 69 852 c 0,21,22
 67 851 67 851 66 851 c 0,23,24
 63 851 63 851 62 853 c 0,25,26
 60 855 60 855 60 857 c 256,27,28
 60 859 60 859 61 861 c 0,29,30
 64 894 64 894 73 958 c 0,31,32
 75 972 75 972 90 1084 c 0,33,34
 90 1090 90 1090 96 1090 c 0,35,36
 124 1089 124 1089 803 1071 c 0,37,38
 809 1071 809 1071 809 1066 c 0,39,40
 809 1064 809 1064 808 1061 c 0,41,42
 673 747 673 747 426 208 c 0,43,44
 425 205 425 205 425 201 c 0,45,46
 425 196 425 196 429 196 c 0,47,48
 431 196 431 196 434 197 c 0,49,50
 447 200 447 200 570 224 c 0,51,52
 602 230 602 230 705 249 c 0,53,54
 778 263 778 263 811 269 c 0,55,56
 820 269 820 269 820 265 c 0,57,58
 820 263 820 263 819 261 c 0,59,0
 800 174 800 174 790 15 c 0,1,2
EndSplineSet
Validated: 1
EndChar

StartChar: backslash
Encoding: 92 92 57
Width: 669
Flags: W
LayerCount: 2
Fore
SplineSet
44 1221 m 0,0,1
 43 1223 43 1223 43 1224 c 0,2,3
 43 1228 43 1228 50 1231 c 0,4,5
 83 1235 83 1235 152.5 1240 c 128,-1,6
 222 1245 222 1245 249 1251 c 0,7,8
 253 1251 253 1251 257 1247 c 0,9,10
 290 1169 290 1169 380 905 c 128,-1,11
 470 641 470 641 561 365.5 c 128,-1,12
 652 90 652 90 667 49 c 0,13,14
 667 41 667 41 663 41 c 0,15,16
 605 16 605 16 560 2 c 0,17,18
 559 1 559 1 557 1 c 256,19,20
 555 1 555 1 552 6 c 0,21,22
 527 68 527 68 435 296 c 128,-1,23
 343 524 343 524 292 647 c 0,24,25
 95 1128 95 1128 44 1221 c 0,0,1
EndSplineSet
Validated: 1
EndChar

StartChar: underscore
Encoding: 95 95 58
Width: 768
Flags: W
LayerCount: 2
Fore
SplineSet
719 -100 m 2,0,-1
 719 -162 l 2,1,2
 719 -168 719 -168 711 -168 c 2,3,-1
 63 -166 l 2,4,5
 61 -166 61 -166 55 -160 c 1,6,-1
 49 -104 l 2,7,8
 49 -97 49 -97 53 -97 c 0,9,10
 55 -97 55 -97 57 -98 c 2,11,-1
 223 -100 l 2,12,13
 516 -100 516 -100 713 -92 c 0,14,15
 719 -92 719 -92 719 -100 c 2,0,-1
EndSplineSet
Validated: 1
EndChar

StartChar: a
Encoding: 97 97 59
Width: 772
Flags: W
LayerCount: 2
Fore
SplineSet
681 510 m 0,0,1
 681 487 681 487 677 435 c 128,-1,2
 673 383 673 383 673 375 c 0,3,4
 667 285 667 285 634 -4 c 0,5,6
 634 -10 634 -10 630 -10 c 0,7,8
 591 -18 591 -18 497 -27 c 0,9,10
 489 -27 489 -27 489 -20 c 2,11,-1
 491 90 l 2,12,13
 491 99 491 99 486 99 c 0,14,15
 483 99 483 99 479 96 c 0,16,17
 386 23 386 23 296 23 c 0,18,19
 200 23 200 23 135.5 79 c 128,-1,20
 71 135 71 135 71 229 c 0,21,22
 71 328 71 328 153 391.5 c 128,-1,23
 235 455 235 455 339 455 c 0,24,25
 419 455 419 455 487 426 c 0,26,27
 490 425 490 425 492 425 c 0,28,29
 497 425 497 425 497 432 c 0,30,31
 503 463 503 463 503 502 c 0,32,33
 503 561 503 561 467 604 c 128,-1,34
 431 647 431 647 372 647 c 0,35,36
 253 647 253 647 132 567 c 0,37,38
 130 565 130 565 128 565 c 0,39,40
 125 565 125 565 122 571 c 0,41,42
 102 639 102 639 83 692 c 0,43,44
 82 693 82 693 82 695 c 256,45,46
 82 697 82 697 85 700 c 0,47,48
 231 809 231 809 388 809 c 0,49,50
 524 809 524 809 602.5 726 c 128,-1,51
 681 643 681 643 681 510 c 0,0,1
489 272 m 0,52,53
 489 307 489 307 461 325.5 c 128,-1,54
 433 344 433 344 403 344 c 0,55,56
 333 344 333 344 277 316.5 c 128,-1,57
 221 289 221 289 221 223 c 0,58,59
 221 188 221 188 255.5 170 c 128,-1,60
 290 152 290 152 335 152 c 0,61,62
 386 152 386 152 437.5 184.5 c 128,-1,63
 489 217 489 217 489 272 c 0,52,53
EndSplineSet
Validated: 1
EndChar

StartChar: b
Encoding: 98 98 60
Width: 894
Flags: W
LayerCount: 2
Fore
SplineSet
823 414 m 0,0,1
 823 246 823 246 723.5 133 c 128,-1,2
 624 20 624 20 456 20 c 0,3,4
 376 20 376 20 288 66 c 0,5,6
 286 67 286 67 284 67 c 0,7,8
 278 67 278 67 278 57 c 0,9,10
 280 23 280 23 280 -55 c 0,11,12
 280 -61 280 -61 272 -61 c 0,13,14
 166 -43 166 -43 155 -41 c 0,15,16
 151 -41 151 -41 151 -35 c 0,17,18
 100 602 100 602 100 1239 c 0,19,20
 100 1245 100 1245 106 1245 c 0,21,22
 241 1278 241 1278 288 1290 c 0,23,24
 299 1290 299 1290 299 1282 c 0,25,26
 291 1078 291 1078 291 895 c 0,27,28
 291 812 291 812 293 733 c 0,29,30
 293 729 293 729 296 727 c 0,31,32
 298 726 298 726 299 726 c 0,33,34
 301 726 301 726 303 727 c 0,35,36
 374 782 374 782 473 782 c 0,37,38
 624 782 624 782 723.5 669.5 c 128,-1,39
 823 557 823 557 823 414 c 0,0,1
632 383 m 0,40,41
 632 459 632 459 585 524.5 c 128,-1,42
 538 590 538 590 465 590 c 0,43,44
 294 590 294 590 294 399 c 0,45,46
 294 384 294 384 295 367 c 0,47,48
 299 274 299 274 331.5 223 c 128,-1,49
 364 172 364 172 452 172 c 0,50,51
 536 172 536 172 584 235.5 c 128,-1,52
 632 299 632 299 632 383 c 0,40,41
EndSplineSet
Validated: 1
EndChar

StartChar: c
Encoding: 99 99 61
Width: 765
Flags: W
LayerCount: 2
Fore
SplineSet
728 92 m 0,0,1
 728 90 728 90 727 88 c 128,-1,2
 726 86 726 86 726 84 c 0,3,4
 614 -23 614 -23 419 -23 c 0,5,6
 253 -23 253 -23 162 100 c 128,-1,7
 71 223 71 223 71 395 c 0,8,9
 71 555 71 555 177.5 675 c 128,-1,10
 284 795 284 795 448 795 c 0,11,12
 556 795 556 795 669 752 c 0,13,14
 674 749 674 749 674 745 c 0,15,16
 674 743 674 743 673 741 c 0,17,18
 667 713 667 713 655.5 665.5 c 128,-1,19
 644 618 644 618 640 600 c 0,20,21
 637 594 637 594 632 594 c 2,22,-1
 630 594 l 1,23,24
 554 621 554 621 497 621 c 0,25,26
 384 621 384 621 324 546 c 128,-1,27
 264 471 264 471 264 362 c 0,28,29
 264 264 264 264 326 196.5 c 128,-1,30
 388 129 388 129 483 129 c 0,31,32
 567 129 567 129 675 217 c 0,33,34
 679 221 679 221 681 221 c 0,35,36
 685 221 685 221 687 215 c 0,37,38
 692 201 692 201 708 155 c 128,-1,39
 724 109 724 109 728 92 c 0,0,1
EndSplineSet
Validated: 1
EndChar

StartChar: d
Encoding: 100 100 62
Width: 864
Flags: W
LayerCount: 2
Fore
SplineSet
761 469 m 0,0,1
 761 467 761 467 755 -104 c 0,2,3
 755 -113 755 -113 747 -113 c 0,4,5
 726 -109 726 -109 682 -103.5 c 128,-1,6
 638 -98 638 -98 618 -96 c 0,7,8
 612 -96 612 -96 612 -90 c 0,9,10
 603 -25 603 -25 603 55 c 0,11,12
 602 63 602 63 596 63 c 0,13,14
 594 63 594 63 591 61 c 0,15,16
 485 2 485 2 374 2 c 0,17,18
 233 2 233 2 152 101.5 c 128,-1,19
 71 201 71 201 71 338 c 0,20,21
 71 489 71 489 169 603 c 0,22,23
 264 715 264 715 436 715 c 2,24,-1
 442 715 l 2,25,26
 487 715 487 715 569 702 c 0,27,28
 577 702 577 702 577 711 c 0,29,30
 573 760 573 760 564.5 859 c 128,-1,31
 556 958 556 958 552 997 c 0,32,33
 550 1014 550 1014 538 1113 c 128,-1,34
 526 1212 526 1212 522 1264 c 1,35,-1
 522 1267 l 2,36,37
 522 1272 522 1272 528 1272 c 0,38,39
 563 1270 563 1270 631.5 1267 c 128,-1,40
 700 1264 700 1264 735 1262 c 0,41,42
 741 1262 741 1262 741 1255 c 0,43,44
 761 928 761 928 761 469 c 0,0,1
595 207 m 0,45,46
 595 317 595 317 587 506 c 0,47,48
 587 520 587 520 581 526 c 0,49,50
 517 575 517 575 452 575 c 0,51,52
 352 575 352 575 304.5 507.5 c 128,-1,53
 257 440 257 440 257 346 c 0,54,55
 257 256 257 256 303.5 204 c 128,-1,56
 350 152 350 152 444 152 c 0,57,58
 522 152 522 152 593 201 c 0,59,60
 595 205 595 205 595 207 c 0,45,46
EndSplineSet
Validated: 1
EndChar

StartChar: e
Encoding: 101 101 63
Width: 796
Flags: W
LayerCount: 2
Fore
SplineSet
726 410 m 0,0,1
 726 403 726 403 720 403 c 0,2,3
 636 395 636 395 467 380 c 128,-1,4
 298 365 298 365 280 362 c 0,5,6
 274 362 274 362 274 354 c 2,7,-1
 274 334 l 1,8,-1
 276 322 l 1,9,10
 307 178 307 178 466 178 c 0,11,12
 544 178 544 178 620 221 c 0,13,14
 622 222 622 222 624 222 c 0,15,16
 627 222 627 222 630 217 c 0,17,18
 638 195 638 195 653.5 152 c 128,-1,19
 669 109 669 109 677 88 c 0,20,21
 678 87 678 87 678 86 c 0,22,23
 678 84 678 84 675 80 c 0,24,25
 569 18 569 18 438 18 c 0,26,27
 268 18 268 18 167.5 148.5 c 128,-1,28
 67 279 67 279 67 453 c 0,29,30
 67 610 67 610 160 717.5 c 128,-1,31
 253 825 253 825 411 825 c 0,32,33
 516 825 516 825 587.5 758.5 c 128,-1,34
 659 692 659 692 688.5 604 c 128,-1,35
 718 516 718 516 726 410 c 0,0,1
563 516 m 0,36,37
 556 551 556 551 544 586 c 128,-1,38
 532 621 532 621 497 655.5 c 128,-1,39
 462 690 462 690 415 690 c 0,40,41
 343 690 343 690 299 637 c 128,-1,42
 255 584 255 584 255 512 c 0,43,44
 255 508 255 508 256 500 c 128,-1,45
 257 492 257 492 257 489 c 0,46,47
 257 482 257 482 262 482 c 0,48,49
 263 482 263 482 266 483 c 0,50,51
 456 496 456 496 556 508 c 0,52,53
 564 508 564 508 564 512 c 0,54,55
 564 514 564 514 563 516 c 0,36,37
EndSplineSet
Validated: 1
EndChar

StartChar: f
Encoding: 102 102 64
Width: 776
Flags: W
LayerCount: 2
Fore
SplineSet
749 1047 m 0,0,1
 747 1042 747 1042 747 1040 c 0,2,3
 743 1036 743 1036 703 1006.5 c 128,-1,4
 663 977 663 977 644 965 c 0,5,6
 641 962 641 962 638 962 c 0,7,8
 634 962 634 962 632 969 c 0,9,10
 628 1001 628 1001 622 1016 c 0,11,12
 591 1122 591 1122 511 1122 c 0,13,14
 489 1122 489 1122 470.5 1117 c 128,-1,15
 452 1112 452 1112 438.5 1106 c 128,-1,16
 425 1100 425 1100 414 1085.5 c 128,-1,17
 403 1071 403 1071 395.5 1063 c 128,-1,18
 388 1055 388 1055 383 1033.5 c 128,-1,19
 378 1012 378 1012 375 1002.5 c 128,-1,20
 372 993 372 993 371 966.5 c 128,-1,21
 370 940 370 940 369 933 c 128,-1,22
 368 926 368 926 368 897 c 2,23,-1
 368 664 l 2,24,25
 368 656 368 656 372 656 c 0,26,27
 374 656 374 656 376 657 c 0,28,29
 536 668 536 668 595 672 c 0,30,31
 603 672 603 672 603 664 c 0,32,33
 599 629 599 629 594 582 c 128,-1,34
 589 535 589 535 587 516 c 0,35,36
 587 510 587 510 579 510 c 0,37,38
 483 514 483 514 384 516 c 0,39,40
 380 516 380 516 376 510 c 0,41,42
 375 501 375 501 375 488 c 256,43,44
 375 475 375 475 376 458 c 0,45,46
 378 424 378 424 378 401 c 0,47,48
 378 262 378 262 395 16 c 1,49,-1
 395 15 l 2,50,51
 395 13 395 13 390 8 c 0,52,53
 364 0 364 0 333 -8 c 128,-1,54
 302 -16 302 -16 264.5 -25.5 c 128,-1,55
 227 -35 227 -35 206 -41 c 0,56,57
 204 -42 204 -42 202 -42 c 0,58,59
 198 -42 198 -42 198 -35 c 0,60,61
 201 111 201 111 201 247 c 0,62,63
 201 384 201 384 198 512 c 0,64,65
 198 518 198 518 192 518 c 0,66,67
 142 520 142 520 103 520 c 256,68,69
 64 520 64 520 36 518 c 0,70,71
 30 518 30 518 30 526 c 0,72,73
 30 553 30 553 32 569 c 0,74,75
 36 588 36 588 36 627 c 0,76,77
 36 633 36 633 42 633 c 0,78,79
 65 637 65 637 116 640 c 128,-1,80
 167 643 167 643 180 645 c 0,81,82
 194 645 194 645 194 659 c 0,83,84
 192 860 192 860 192 948 c 0,85,86
 192 1083 192 1083 277 1175.5 c 128,-1,87
 362 1268 362 1268 497 1268 c 0,88,89
 603 1268 603 1268 670 1208.5 c 128,-1,90
 737 1149 737 1149 749 1047 c 0,0,1
EndSplineSet
Validated: 1
EndChar

StartChar: g
Encoding: 103 103 65
Width: 915
Flags: W
LayerCount: 2
Fore
SplineSet
843 1010 m 2,0,-1
 839 877 l 2,1,2
 839 867 839 867 834 867 c 0,3,4
 831 867 831 867 827 870 c 0,5,6
 777 908 777 908 729 908 c 0,7,8
 717 908 717 908 704 905 c 0,9,10
 628 883 628 883 597 801 c 0,11,12
 596 800 596 800 596 798 c 2,13,-1
 596 796 l 2,14,15
 597 793 597 793 599 793 c 0,16,17
 683 752 683 752 730.5 681 c 128,-1,18
 778 610 778 610 778 524 c 0,19,20
 778 362 778 362 624 262 c 0,21,22
 585 236 585 236 542 217.5 c 128,-1,23
 499 199 499 199 432.5 174.5 c 128,-1,24
 366 150 366 150 343 141 c 0,25,26
 309 129 309 129 309 106 c 0,27,28
 309 96 309 96 335.5 82 c 128,-1,29
 362 68 362 68 397 61 c 0,30,31
 415 57 415 57 455 51 c 128,-1,32
 495 45 495 45 515 41 c 0,33,34
 669 14 669 14 753 -52.5 c 128,-1,35
 837 -119 837 -119 837 -266 c 0,36,37
 837 -414 837 -414 716 -497 c 128,-1,38
 595 -580 595 -580 436 -580 c 0,39,40
 296 -580 296 -580 198 -507 c 128,-1,41
 100 -434 100 -434 87 -301 c 0,42,43
 86 -290 86 -290 86 -280 c 0,44,45
 86 -157 86 -157 237 -57 c 0,46,47
 243 -53 243 -53 243 -50 c 256,48,49
 243 -47 243 -47 235 -45 c 0,50,51
 71 10 71 10 71 76 c 0,52,53
 71 164 71 164 350 248 c 0,54,55
 356 250 356 250 356 254 c 256,56,57
 356 258 356 258 350 260 c 0,58,59
 221 291 221 291 163.5 373 c 128,-1,60
 106 455 106 455 106 535 c 0,61,62
 106 657 106 657 191 737 c 128,-1,63
 276 817 276 817 403 817 c 0,64,65
 421 817 421 817 470 811 c 1,66,-1
 471 811 l 2,67,68
 474 811 474 811 479 815 c 0,69,70
 505 891 505 891 513 903 c 0,71,72
 595 1051 595 1051 726 1051 c 0,73,74
 790 1051 790 1051 835 1022 c 0,75,76
 843 1018 843 1018 843 1010 c 2,0,-1
622 518 m 0,77,78
 622 582 622 582 565.5 628 c 128,-1,79
 509 674 509 674 438 674 c 0,80,81
 380 674 380 674 325 637 c 128,-1,82
 270 600 270 600 270 539 c 0,83,84
 270 465 270 465 326 424 c 128,-1,85
 382 383 382 383 458 383 c 0,86,87
 517 383 517 383 569.5 420 c 128,-1,88
 622 457 622 457 622 518 c 0,77,78
646 -268 m 0,89,90
 646 -186 646 -186 593 -143 c 128,-1,91
 540 -100 540 -100 464 -100 c 0,92,93
 380 -100 380 -100 320.5 -148.5 c 128,-1,94
 261 -197 261 -197 261 -279 c 0,95,96
 261 -350 261 -350 329 -398 c 0,97,98
 394 -444 394 -444 459 -444 c 2,99,-1
 464 -444 l 2,100,101
 538 -442 538 -442 592 -393 c 128,-1,102
 646 -344 646 -344 646 -268 c 0,89,90
EndSplineSet
Validated: 1
EndChar

StartChar: h
Encoding: 104 104 66
Width: 921
Flags: W
LayerCount: 2
Fore
SplineSet
829 461 m 0,0,1
 829 281 829 281 735 -59 c 0,2,3
 735 -65 735 -65 732 -65 c 0,4,5
 730 -65 730 -65 727 -63 c 0,6,7
 627 -39 627 -39 588 -27 c 0,8,9
 581 -27 581 -27 581 -18 c 0,10,11
 651 248 651 248 651 389 c 0,12,13
 651 428 651 428 646 467 c 128,-1,14
 641 506 641 506 627.5 549 c 128,-1,15
 614 592 614 592 585.5 618.5 c 128,-1,16
 557 645 557 645 516 645 c 0,17,18
 454 645 454 645 385.5 577.5 c 128,-1,19
 317 510 317 510 313 446 c 0,20,21
 311 428 311 428 295 -82 c 0,22,23
 295 -88 295 -88 289 -88 c 0,24,25
 270 -88 270 -88 223 -87 c 128,-1,26
 176 -86 176 -86 155 -86 c 0,27,28
 141 -86 141 -86 141 -72 c 0,29,30
 139 147 139 147 132 372.5 c 128,-1,31
 125 598 125 598 110.5 939 c 128,-1,32
 96 1280 96 1280 92 1380 c 0,33,34
 92 1389 92 1389 98 1389 c 0,35,36
 127 1397 127 1397 191.5 1412 c 128,-1,37
 256 1427 256 1427 282 1436 c 0,38,39
 293 1436 293 1436 293 1427 c 0,40,41
 293 1124 293 1124 295 889 c 0,42,43
 295 862 295 862 303 670 c 0,44,45
 303 664 303 664 307 662 c 0,46,47
 308 661 308 661 309 661 c 0,48,49
 312 661 312 661 315 666 c 0,50,51
 444 829 444 829 579 829 c 0,52,53
 829 829 829 829 829 461 c 0,0,1
EndSplineSet
Validated: 1
EndChar

StartChar: i
Encoding: 105 105 67
Width: 444
Flags: W
LayerCount: 2
Fore
SplineSet
330 1085 m 0,0,1
 330 1026 330 1026 292 992 c 128,-1,2
 254 958 254 958 197 958 c 0,3,4
 154 958 154 958 120 1000 c 128,-1,5
 86 1042 86 1042 86 1090 c 0,6,7
 86 1137 86 1137 122 1172.5 c 128,-1,8
 158 1208 158 1208 205 1208 c 256,9,10
 252 1208 252 1208 291 1171.5 c 128,-1,11
 330 1135 330 1135 330 1085 c 0,0,1
342 774 m 0,12,13
 338 641 338 641 330 382 c 128,-1,14
 322 123 322 123 317 -10 c 0,15,16
 317 -16 317 -16 311 -16 c 0,17,18
 264 -20 264 -20 156 -25 c 0,19,20
 147 -25 147 -25 147 -18 c 0,21,22
 147 -8 147 -8 146 11.5 c 128,-1,23
 145 31 145 31 145 41 c 0,24,25
 145 66 145 66 127 766 c 0,26,27
 127 774 127 774 135 774 c 0,28,29
 233 774 233 774 336 780 c 0,30,31
 342 780 342 780 342 774 c 0,12,13
EndSplineSet
Validated: 1
EndChar

StartChar: j
Encoding: 106 106 68
Width: 495
Flags: W
LayerCount: 2
Fore
SplineSet
351 1143 m 1,0,-1
 351 1138 l 2,1,2
 351 1083 351 1083 305 1045 c 0,3,4
 257 1004 257 1004 193 1001 c 2,5,-1
 188 1001 l 2,6,7
 146 1001 146 1001 111 1037 c 0,8,9
 74 1075 74 1075 72 1120 c 2,10,-1
 72 1125 l 2,11,12
 72 1176 72 1176 115 1219 c 0,13,14
 160 1264 160 1264 216 1268 c 1,15,-1
 221 1268 l 2,16,17
 267 1268 267 1268 306 1231 c 0,18,19
 347 1192 347 1192 351 1143 c 1,0,-1
400 -43 m 1,20,-1
 400 -59 l 2,21,22
 400 -213 400 -213 329 -320 c 0,23,24
 253 -434 253 -434 95 -434 c 0,25,26
 -57 -434 -57 -434 -155 -330 c 0,27,28
 -157 -328 -157 -328 -157 -326 c 256,29,30
 -157 -324 -157 -324 -155 -322 c 0,31,32
 -149 -311 -149 -311 -131.5 -292.5 c 128,-1,33
 -114 -274 -114 -274 -106 -264 c 0,34,35
 -89 -250 -89 -250 -69 -215 c 0,36,37
 -66 -214 -66 -214 -63 -214 c 256,38,39
 -60 -214 -60 -214 -57 -215 c 0,40,41
 -53 -219 -53 -219 -42.5 -228.5 c 128,-1,42
 -32 -238 -32 -238 -28 -242 c 128,-1,43
 -24 -246 -24 -246 -14.5 -253 c 128,-1,44
 -5 -260 -5 -260 -1 -263 c 128,-1,45
 3 -266 3 -266 12 -271 c 128,-1,46
 21 -276 21 -276 27.5 -278.5 c 128,-1,47
 34 -281 34 -281 43 -284 c 128,-1,48
 52 -287 52 -287 60 -287 c 256,49,50
 68 -287 68 -287 80 -288 c 2,51,-1
 87 -288 l 2,52,53
 95 -288 95 -288 103 -287 c 0,54,55
 144 -283 144 -283 172.5 -247 c 128,-1,56
 201 -211 201 -211 210.5 -165 c 128,-1,57
 220 -119 220 -119 225 -69 c 0,58,59
 227 -47 227 -47 227 -29 c 0,60,61
 227 -7 227 -7 224 8 c 0,62,63
 214 131 214 131 193.5 379 c 128,-1,64
 173 627 173 627 163 752 c 0,65,66
 161 755 161 755 161 757 c 0,67,68
 161 760 161 760 167 760 c 0,69,70
 201 768 201 768 267 786.5 c 128,-1,71
 333 805 333 805 361 811 c 0,72,73
 363 812 363 812 365 812 c 0,74,75
 369 812 369 812 369 805 c 0,76,77
 371 772 371 772 373.5 689 c 128,-1,78
 376 606 376 606 376 592 c 0,79,80
 382 469 382 469 400 -43 c 1,20,-1
EndSplineSet
Validated: 1
EndChar

StartChar: k
Encoding: 107 107 69
Width: 915
Flags: W
LayerCount: 2
Fore
SplineSet
882 117 m 0,0,1
 883 116 883 116 883 115 c 0,2,3
 883 113 883 113 880 109 c 0,4,5
 864 90 864 90 815 41 c 128,-1,6
 766 -8 766 -8 741 -37 c 0,7,8
 737 -41 737 -41 735 -41 c 0,9,10
 731 -41 731 -41 729 -35 c 0,11,12
 706 2 706 2 596.5 198.5 c 128,-1,13
 487 395 487 395 460 440 c 0,14,15
 459 446 459 446 456 446 c 0,16,17
 454 446 454 446 450 442 c 0,18,19
 374 362 374 362 321 295 c 0,20,21
 313 283 313 283 313 276 c 2,22,-1
 313 133 l 1,23,24
 317 -25 317 -25 317 -39 c 0,25,26
 317 -47 317 -47 311 -47 c 0,27,28
 225 -49 225 -49 155 -53 c 0,29,30
 149 -53 149 -53 149 -47 c 0,31,32
 143 106 143 106 137 279.5 c 128,-1,33
 131 453 131 453 123.5 665 c 128,-1,34
 116 877 116 877 112 991 c 0,35,36
 112 1022 112 1022 108 1109 c 128,-1,37
 104 1196 104 1196 102 1233 c 0,38,39
 102 1237 102 1237 106 1241 c 0,40,41
 282 1288 282 1288 295 1292 c 0,42,43
 297 1293 297 1293 299 1293 c 0,44,45
 303 1293 303 1293 303 1286 c 0,46,47
 304 1259 304 1259 304 1178 c 0,48,49
 304 1098 304 1098 303 965 c 0,50,51
 302 876 302 876 302 794 c 0,52,53
 302 632 302 632 305 500 c 0,54,55
 305 490 305 490 309 490 c 0,56,57
 312 490 312 490 317 496 c 0,58,59
 383 559 383 559 442 641 c 128,-1,60
 501 723 501 723 535 781.5 c 128,-1,61
 569 840 569 840 626 948 c 0,62,63
 626 950 626 950 629 951 c 2,64,-1
 631 951 l 2,65,66
 633 951 633 951 634 950 c 0,67,68
 704 918 704 918 800 868 c 0,69,70
 805 866 805 866 805 863 c 0,71,72
 805 861 805 861 802 858 c 0,73,74
 770 813 770 813 731 766 c 128,-1,75
 692 719 692 719 643 661.5 c 128,-1,76
 594 604 594 604 567 573 c 0,77,78
 565 571 565 571 565 563 c 1,79,80
 610 496 610 496 734 325 c 128,-1,81
 858 154 858 154 882 117 c 0,0,1
EndSplineSet
Validated: 1
EndChar

StartChar: l
Encoding: 108 108 70
Width: 428
Flags: W
LayerCount: 2
Fore
SplineSet
319 1284 m 0,0,1
 300 513 300 513 300 135 c 0,2,3
 300 66 300 66 301 10 c 0,4,5
 301 4 301 4 294 4 c 2,6,-1
 147 4 l 2,7,8
 141 4 141 4 141 10 c 0,9,10
 137 63 137 63 135 161.5 c 128,-1,11
 133 260 133 260 131 291 c 0,12,13
 129 391 129 391 122.5 615.5 c 128,-1,14
 116 840 116 840 111 1007 c 128,-1,15
 106 1174 106 1174 104 1243 c 0,16,17
 104 1249 104 1249 110 1249 c 0,18,19
 137 1255 137 1255 205.5 1268.5 c 128,-1,20
 274 1282 274 1282 309 1290 c 0,21,22
 312 1291 312 1291 314 1291 c 0,23,24
 319 1291 319 1291 319 1284 c 0,0,1
EndSplineSet
Validated: 1
EndChar

StartChar: m
Encoding: 109 109 71
Width: 1234
Flags: W
LayerCount: 2
Fore
SplineSet
1134 27 m 0,0,1
 1134 20 1134 20 1128 20 c 0,2,3
 1112 16 1112 16 1056.5 3 c 128,-1,4
 1001 -10 1001 -10 974 -18 c 0,5,6
 971 -20 971 -20 969 -20 c 0,7,8
 964 -20 964 -20 964 -12 c 0,9,10
 964 23 964 23 967 190 c 0,11,12
 968 261 968 261 968 308 c 0,13,14
 968 371 968 371 966 391 c 0,15,16
 964 432 964 432 962 458.5 c 128,-1,17
 960 485 960 485 951 524 c 128,-1,18
 942 563 942 563 920.5 583.5 c 128,-1,19
 899 604 899 604 866 604 c 0,20,21
 815 604 815 604 767.5 561 c 128,-1,22
 720 518 720 518 718 471 c 0,23,24
 716 449 716 449 716 420 c 0,25,26
 716 369 716 369 720 218.5 c 128,-1,27
 724 68 724 68 724 10 c 0,28,29
 724 2 724 2 716 2 c 0,30,31
 630 8 630 8 626 8 c 2,32,-1
 559 8 l 2,33,34
 550 8 550 8 550 14 c 2,35,-1
 550 96 l 2,36,37
 550 160 550 160 553.5 287 c 128,-1,38
 557 414 557 414 557 475 c 0,39,40
 555 528 555 528 534.5 576.5 c 128,-1,41
 514 625 514 625 468 625 c 0,42,43
 417 625 417 625 367 569.5 c 128,-1,44
 317 514 317 514 288 451 c 0,45,46
 284 438 284 438 284 432 c 0,47,48
 284 297 284 297 299 106 c 0,49,50
 301 90 301 90 302 60.5 c 128,-1,51
 303 31 303 31 303 14 c 0,52,53
 303 6 303 6 296 6 c 0,54,55
 274 4 274 4 221.5 2 c 128,-1,56
 169 0 169 0 149 0 c 0,57,58
 147 -1 147 -1 145 -1 c 0,59,60
 141 -1 141 -1 141 6 c 0,61,62
 137 66 137 66 106 811 c 0,63,64
 106 815 106 815 112 819 c 0,65,66
 239 848 239 848 268 854 c 0,67,68
 270 855 270 855 272 855 c 0,69,70
 276 855 276 855 276 848 c 2,71,-1
 276 635 l 2,72,73
 276 629 276 629 281 628 c 2,74,-1
 283 628 l 2,75,76
 287 628 287 628 290 631 c 0,77,78
 407 801 407 801 532 801 c 0,79,80
 591 801 591 801 625 758 c 128,-1,81
 659 715 659 715 684 643 c 0,82,83
 686 635 686 635 689 635 c 256,84,85
 692 635 692 635 696 641 c 0,86,87
 735 707 735 707 794.5 742.5 c 128,-1,88
 854 778 854 778 909 778 c 0,89,90
 954 778 954 778 996 753.5 c 128,-1,91
 1038 729 1038 729 1060 688 c 0,92,93
 1107 604 1107 604 1122 471 c 0,94,95
 1124 449 1124 449 1130 242 c 0,96,97
 1130 213 1130 213 1131 132 c 128,-1,98
 1132 51 1132 51 1134 27 c 0,0,1
EndSplineSet
Validated: 1
EndChar

StartChar: n
Encoding: 110 110 72
Width: 851
Flags: W
LayerCount: 2
Fore
SplineSet
755 301 m 0,0,1
 753 152 753 152 729 -33 c 0,2,3
 729 -39 729 -39 723 -39 c 0,4,5
 698 -41 698 -41 647 -43 c 128,-1,6
 596 -45 596 -45 591 -45 c 0,7,8
 583 -45 583 -45 583 -37 c 0,9,10
 585 -20 585 -20 588 17.5 c 128,-1,11
 591 55 591 55 594.5 86 c 128,-1,12
 598 117 598 117 598 141 c 0,13,14
 598 154 598 154 600 209 c 128,-1,15
 602 264 602 264 602 303 c 0,16,17
 602 606 602 606 458 606 c 0,18,19
 411 606 411 606 366 569 c 128,-1,20
 321 532 321 532 303 489 c 1,21,22
 301 461 301 461 293.5 401.5 c 128,-1,23
 286 342 286 342 282 313 c 0,24,25
 280 291 280 291 276 257 c 128,-1,26
 272 223 272 223 264 152.5 c 128,-1,27
 256 82 256 82 249 18 c 0,28,29
 249 12 249 12 243 12 c 0,30,31
 153 12 153 12 110 10 c 0,32,33
 102 10 102 10 102 18 c 0,34,35
 106 63 106 63 112 158 c 0,36,37
 139 516 139 516 143 885 c 0,38,39
 143 893 143 893 151 893 c 0,40,41
 239 901 239 901 323 903 c 0,42,43
 329 903 329 903 329 897 c 0,44,45
 327 858 327 858 317 750 c 0,46,47
 317 739 317 739 321 739 c 0,48,49
 323 739 323 739 327 743 c 0,50,51
 389 799 389 799 477 799 c 0,52,53
 620 799 620 799 692 670 c 0,54,55
 755 551 755 551 755 301 c 0,0,1
EndSplineSet
Validated: 1
EndChar

StartChar: o
Encoding: 111 111 73
Width: 841
Flags: W
LayerCount: 2
Fore
SplineSet
769 389 m 0,0,1
 769 233 769 233 679 107.5 c 128,-1,2
 589 -18 589 -18 413 -18 c 0,3,4
 298 -18 298 -18 216 58.5 c 128,-1,5
 134 135 134 135 102.5 230.5 c 128,-1,6
 71 326 71 326 71 422 c 0,7,8
 71 516 71 516 109 611.5 c 128,-1,9
 147 707 147 707 232 780.5 c 128,-1,10
 317 854 317 854 427 854 c 0,11,12
 522 854 522 854 591.5 808 c 128,-1,13
 661 762 661 762 698 688 c 128,-1,14
 735 614 735 614 752 538.5 c 128,-1,15
 769 463 769 463 769 389 c 0,0,1
601 412 m 0,16,17
 601 502 601 502 556 591 c 128,-1,18
 511 680 511 680 417 680 c 0,19,20
 356 680 356 680 315 631 c 128,-1,21
 274 582 274 582 261.5 528.5 c 128,-1,22
 249 475 249 475 249 426 c 0,23,24
 249 131 249 131 440 131 c 0,25,26
 499 131 499 131 539 188.5 c 128,-1,27
 579 246 579 246 590 303 c 128,-1,28
 601 360 601 360 601 412 c 0,16,17
EndSplineSet
Validated: 1
EndChar

StartChar: p
Encoding: 112 112 74
Width: 933
Flags: W
LayerCount: 2
Fore
SplineSet
866 397 m 0,0,1
 866 242 866 242 783 124 c 128,-1,2
 700 6 700 6 548 -2 c 0,3,4
 525 -3 525 -3 503 -3 c 0,5,6
 365 -3 365 -3 303 53 c 0,7,8
 297 59 297 59 294 59 c 0,9,10
 290 59 290 59 290 49 c 0,11,12
 290 -209 290 -209 251 -514 c 0,13,14
 251 -520 251 -520 243 -520 c 0,15,16
 149 -494 149 -494 110 -487 c 0,17,18
 104 -483 104 -483 104 -479 c 0,19,20
 120 -37 120 -37 120 139 c 0,21,22
 119 281 119 281 119 421 c 0,23,24
 119 701 119 701 122 973 c 0,25,26
 122 979 122 979 131 979 c 0,27,28
 249 975 249 975 309 975 c 0,29,30
 315 975 315 975 315 967 c 0,31,32
 307 868 307 868 303 723 c 0,33,34
 303 714 303 714 308 714 c 0,35,36
 311 714 311 714 315 717 c 0,37,38
 407 778 407 778 510 780 c 0,39,40
 524 781 524 781 538 781 c 0,41,42
 683 781 683 781 771 675 c 0,43,44
 866 559 866 559 866 397 c 0,0,1
686 395 m 0,45,46
 686 479 686 479 634.5 542.5 c 128,-1,47
 583 606 583 606 497 608 c 2,48,-1
 489 608 l 2,49,50
 444 608 444 608 393 587 c 0,51,52
 337 563 337 563 309 508 c 0,53,54
 305 500 305 500 305 489 c 0,55,56
 305 467 305 467 302 419 c 128,-1,57
 299 371 299 371 296.5 332 c 128,-1,58
 294 293 294 293 294 289 c 0,59,60
 294 268 294 268 307 250 c 0,61,62
 329 207 329 207 391 184 c 0,63,64
 447 162 447 162 485 162 c 2,65,-1
 491 162 l 1,66,67
 585 166 585 166 635.5 234.5 c 128,-1,68
 686 303 686 303 686 395 c 0,45,46
EndSplineSet
Validated: 1
EndChar

StartChar: q
Encoding: 113 113 75
Width: 864
Flags: W
LayerCount: 2
Fore
SplineSet
896 -418 m 0,0,1
 892 -442 892 -442 883 -487 c 128,-1,2
 874 -532 874 -532 872 -539 c 0,3,4
 872 -545 872 -545 864 -545 c 0,5,6
 708 -545 708 -545 629 -447.5 c 128,-1,7
 550 -350 550 -350 550 -182 c 0,8,9
 550 -170 550 -170 551 -133 c 128,-1,10
 552 -96 552 -96 554 -42 c 128,-1,11
 556 12 556 12 556 43 c 0,12,13
 556 50 556 50 551 50 c 0,14,15
 549 50 549 50 546 49 c 0,16,17
 483 29 483 29 436 29 c 0,18,19
 282 29 282 29 176.5 138.5 c 128,-1,20
 71 248 71 248 71 422 c 0,21,22
 71 590 71 590 146 701.5 c 128,-1,23
 221 813 221 813 376 840 c 0,24,25
 398 843 398 843 420 843 c 0,26,27
 513 843 513 843 597 782 c 0,28,29
 600 780 600 780 602 780 c 0,30,31
 607 780 607 780 610 788 c 0,32,33
 618 860 618 860 626 932 c 0,34,35
 626 938 626 938 632 938 c 0,36,37
 644 938 644 938 700.5 941 c 128,-1,38
 757 944 757 944 782 946 c 0,39,40
 790 946 790 946 790 938 c 0,41,42
 765 735 765 735 745 385 c 0,43,44
 724 12 724 12 724 -223 c 0,45,46
 724 -291 724 -291 761 -351.5 c 128,-1,47
 798 -412 798 -412 864 -412 c 0,48,49
 882 -412 882 -412 888 -410 c 0,50,51
 897 -410 897 -410 897 -414 c 0,52,53
 897 -416 897 -416 896 -418 c 0,0,1
589 559 m 0,54,55
 589 573 589 573 587 580 c 0,56,57
 567 631 567 631 515 656 c 0,58,59
 475 674 475 674 442 674 c 0,60,61
 431 674 431 674 421 672 c 0,62,63
 339 659 339 659 292 592.5 c 128,-1,64
 245 526 245 526 245 428 c 0,65,66
 245 332 245 332 298.5 250 c 128,-1,67
 352 168 352 168 442 168 c 0,68,69
 468 168 468 168 507 180.5 c 128,-1,70
 546 193 546 193 563 207 c 0,71,72
 569 213 569 213 569 219 c 0,73,74
 589 465 589 465 589 559 c 0,54,55
EndSplineSet
Validated: 1
EndChar

StartChar: r
Encoding: 114 114 76
Width: 655
Flags: W
LayerCount: 2
Fore
SplineSet
630 782 m 0,0,1
 626 758 626 758 611 690.5 c 128,-1,2
 596 623 596 623 594 612 c 0,3,4
 591 606 591 606 587 606 c 0,5,6
 585 606 585 606 583 608 c 0,7,8
 512 649 512 649 452 649 c 0,9,10
 342 649 342 649 286 543 c 0,11,12
 284 537 284 537 284 520 c 0,13,14
 313 283 313 283 344 33 c 0,15,16
 344 25 344 25 338 25 c 0,17,18
 305 18 305 18 248.5 9 c 128,-1,19
 192 0 192 0 159 -6 c 0,20,21
 151 -6 151 -6 151 2 c 0,22,23
 145 90 145 90 137 248 c 128,-1,24
 129 406 129 406 120.5 537 c 128,-1,25
 112 668 112 668 102 784 c 0,26,27
 102 791 102 791 108 791 c 0,28,29
 186 801 186 801 227 811 c 0,30,31
 229 812 229 812 231 812 c 0,32,33
 235 812 235 812 235 805 c 2,34,-1
 247 709 l 2,35,36
 250 699 250 699 255 699 c 0,37,38
 257 699 257 699 260 702 c 0,39,40
 299 750 299 750 365.5 783.5 c 128,-1,41
 432 817 432 817 485 817 c 0,42,43
 579 817 579 817 624 791 c 0,44,45
 630 786 630 786 630 782 c 0,0,1
EndSplineSet
Validated: 1
EndChar

StartChar: s
Encoding: 115 115 77
Width: 706
Flags: W
LayerCount: 2
Fore
SplineSet
640 195 m 0,0,1
 640 84 640 84 539 23.5 c 128,-1,2
 438 -37 438 -37 298 -37 c 0,3,4
 163 -37 163 -37 69 23 c 0,5,6
 67 23 67 23 67 31 c 0,7,8
 75 49 75 49 83.5 71.5 c 128,-1,9
 92 94 92 94 101 123 c 128,-1,10
 110 152 110 152 116 166 c 0,11,12
 119 171 119 171 122 171 c 0,13,14
 124 171 124 171 126 170 c 0,15,16
 245 106 245 106 315 106 c 0,17,18
 456 106 456 106 456 205 c 0,19,20
 456 236 456 236 428.5 263.5 c 128,-1,21
 401 291 401 291 373.5 304 c 128,-1,22
 346 317 346 317 295.5 336.5 c 128,-1,23
 245 356 245 356 237 360 c 0,24,25
 171 391 171 391 135.5 452.5 c 128,-1,26
 100 514 100 514 100 590 c 0,27,28
 100 702 100 702 188 773 c 128,-1,29
 276 844 276 844 399 844 c 0,30,31
 507 844 507 844 595 788 c 0,32,33
 601 785 601 785 601 783 c 256,34,35
 601 781 601 781 599 780 c 0,36,37
 587 760 587 760 566.5 717 c 128,-1,38
 546 674 546 674 534 651 c 0,39,40
 531 648 531 648 528 648 c 0,41,42
 526 648 526 648 524 649 c 0,43,44
 454 684 454 684 399 684 c 0,45,46
 352 684 352 684 308 655.5 c 128,-1,47
 264 627 264 627 264 578 c 0,48,49
 264 551 264 551 272 531.5 c 128,-1,50
 280 512 280 512 302.5 495.5 c 128,-1,51
 325 479 325 479 336.5 472 c 128,-1,52
 348 465 348 465 385.5 449.5 c 128,-1,53
 423 434 423 434 429 432 c 0,54,55
 477 412 477 412 507.5 394.5 c 128,-1,56
 538 377 538 377 572 349.5 c 128,-1,57
 606 322 606 322 623 283 c 128,-1,58
 640 244 640 244 640 195 c 0,0,1
EndSplineSet
Validated: 1
EndChar

StartChar: t
Encoding: 116 116 78
Width: 690
Flags: W
LayerCount: 2
Fore
SplineSet
641 748 m 0,0,1
 641 639 641 639 639 598 c 0,2,3
 639 592 639 592 633 592 c 0,4,5
 534 582 534 582 446 573 c 0,6,7
 440 573 440 573 440 567 c 0,8,9
 439 553 439 553 439 534 c 0,10,11
 439 497 439 497 442 444 c 0,12,13
 446 371 446 371 454.5 199 c 128,-1,14
 463 27 463 27 467 -41 c 0,15,16
 467 -49 467 -49 461 -49 c 0,17,18
 311 -68 311 -68 305 -68 c 2,19,-1
 302 -68 l 2,20,21
 297 -68 297 -68 297 -61 c 0,22,23
 297 -49 297 -49 296 -29.5 c 128,-1,24
 295 -10 295 -10 295 0 c 0,25,26
 295 117 295 117 274 547 c 0,27,28
 274 555 274 555 266 555 c 0,29,30
 231 553 231 553 192 549 c 128,-1,31
 153 545 153 545 116.5 541 c 128,-1,32
 80 537 80 537 67 535 c 0,33,34
 59 535 59 535 59 541 c 0,35,36
 57 565 57 565 54 614.5 c 128,-1,37
 51 664 51 664 51 686 c 0,38,39
 51 688 51 688 57 694 c 1,40,41
 219 717 219 717 258 721 c 0,42,43
 264 721 264 721 264 727 c 0,44,45
 260 827 260 827 250.5 965.5 c 128,-1,46
 241 1104 241 1104 239 1149 c 0,47,48
 239 1151 239 1151 246 1157 c 0,49,50
 364 1194 364 1194 450 1217 c 0,51,52
 452 1218 452 1218 453 1218 c 0,53,54
 456 1218 456 1218 458 1217 c 0,55,56
 460 1215 460 1215 460 1213 c 256,57,58
 460 1211 460 1211 459 1210 c 0,59,60
 446 977 446 977 446 748 c 0,61,62
 446 739 446 739 454 739 c 2,63,-1
 633 754 l 2,64,65
 639 754 639 754 641 748 c 0,0,1
EndSplineSet
Validated: 1
EndChar

StartChar: u
Encoding: 117 117 79
Width: 806
Flags: W
LayerCount: 2
Fore
SplineSet
728 645 m 0,0,1
 728 330 728 330 695 201 c 0,2,3
 626 -61 626 -61 394 -61 c 0,4,5
 339 -61 339 -61 294 -42 c 128,-1,6
 249 -23 249 -23 218 12 c 128,-1,7
 187 47 187 47 162.5 93 c 128,-1,8
 138 139 138 139 125 192.5 c 128,-1,9
 112 246 112 246 101.5 305.5 c 128,-1,10
 91 365 91 365 89 423 c 128,-1,11
 87 481 87 481 84 537 c 0,12,13
 82 570 82 570 82 601 c 0,14,15
 82 621 82 621 83 641 c 0,16,17
 84 666 84 666 84 688 c 256,18,19
 84 710 84 710 83 729 c 0,20,21
 83 735 83 735 89 735 c 0,22,23
 206 754 206 754 282 770 c 0,24,25
 290 770 290 770 290 762 c 0,26,27
 274 629 274 629 274 457 c 0,28,29
 274 416 274 416 279 367.5 c 128,-1,30
 284 319 284 319 296 256 c 128,-1,31
 308 193 308 193 338 152 c 128,-1,32
 368 111 368 111 411 111 c 0,33,34
 554 111 554 111 554 485 c 0,35,36
 554 551 554 551 525 784 c 0,37,38
 525 793 525 793 532 793 c 0,39,40
 685 823 685 823 716 829 c 0,41,42
 726 829 726 829 726 821 c 0,43,44
 726 805 726 805 727 738.5 c 128,-1,45
 728 672 728 672 728 645 c 0,0,1
EndSplineSet
Validated: 1
EndChar

StartChar: v
Encoding: 118 118 80
Width: 858
Flags: W
LayerCount: 2
Fore
SplineSet
835 752 m 0,0,1
 704 512 704 512 456 -53 c 0,2,3
 454 -59 454 -59 450 -59 c 256,4,5
 446 -59 446 -59 444 -55 c 0,6,7
 173 467 173 467 32 713 c 0,8,9
 31 716 31 716 31 718 c 0,10,11
 31 723 31 723 36 723 c 0,12,13
 98 748 98 748 200 799 c 0,14,15
 202 800 202 800 204 800 c 0,16,17
 207 800 207 800 210 797 c 0,18,19
 249 723 249 723 436 281 c 0,20,21
 438 276 438 276 442 276 c 256,22,23
 446 276 446 276 448 281 c 0,24,25
 483 369 483 369 560.5 576.5 c 128,-1,26
 638 784 638 784 669 856 c 0,27,28
 670 861 670 861 675 861 c 0,29,30
 678 861 678 861 681 860 c 0,31,32
 712 838 712 838 833 762 c 0,33,34
 836 759 836 759 836 756 c 0,35,36
 836 754 836 754 835 752 c 0,0,1
EndSplineSet
Validated: 1
EndChar

StartChar: w
Encoding: 119 119 81
Width: 1075
Flags: W
LayerCount: 2
Fore
SplineSet
1046 774 m 0,0,1
 999 629 999 629 900 338 c 0,2,3
 884 283 884 283 844 174.5 c 128,-1,4
 804 66 804 66 786 10 c 0,5,6
 784 4 784 4 780 4 c 0,7,8
 778 4 778 4 774 8 c 0,9,10
 747 63 747 63 682.5 214 c 128,-1,11
 618 365 618 365 575 455 c 0,12,13
 573 461 573 461 570 461 c 256,14,15
 567 461 567 461 563 455 c 0,16,17
 522 365 522 365 456.5 203 c 128,-1,18
 391 41 391 41 364 -20 c 0,19,20
 360 -25 360 -25 357 -25 c 0,21,22
 353 -25 353 -25 350 -20 c 0,23,24
 184 393 184 393 26 707 c 0,25,26
 26 715 26 715 30 717 c 0,27,28
 94 754 94 754 186 817 c 0,29,30
 187 820 187 820 189 820 c 256,31,32
 191 820 191 820 192 819 c 0,33,34
 196 817 196 817 196 813 c 0,35,36
 214 768 214 768 268.5 603 c 128,-1,37
 323 438 323 438 356 352 c 0,38,39
 360 345 360 345 364 345 c 0,40,41
 367 345 367 345 370 352 c 0,42,43
 444 528 444 528 550 866 c 0,44,45
 552 875 552 875 555 875 c 0,46,47
 559 875 559 875 563 866 c 0,48,49
 601 782 601 782 644 674 c 0,50,51
 673 596 673 596 747 412 c 0,52,53
 750 405 750 405 754 405 c 0,54,55
 757 405 757 405 761 412 c 0,56,57
 767 428 767 428 884 834 c 0,58,59
 888 838 888 838 894 838 c 0,60,61
 1017 793 1017 793 1042 784 c 0,62,63
 1047 781 1047 781 1047 778 c 0,64,65
 1047 776 1047 776 1046 774 c 0,0,1
EndSplineSet
Validated: 1
EndChar

StartChar: x
Encoding: 120 120 82
Width: 835
Flags: W
LayerCount: 2
Fore
SplineSet
794 725 m 0,0,1
 784 713 784 713 747 669 c 128,-1,2
 710 625 710 625 683 594 c 0,3,4
 612 504 612 504 536 414 c 0,5,6
 534 412 534 412 534 410 c 256,7,8
 534 408 534 408 536 406 c 0,9,10
 556 383 556 383 608.5 317.5 c 128,-1,11
 661 252 661 252 701 207 c 128,-1,12
 741 162 741 162 782 125 c 0,13,14
 784 123 784 123 784 121 c 256,15,16
 784 119 784 119 782 117 c 0,17,18
 769 100 769 100 731.5 54 c 128,-1,19
 694 8 694 8 665 -29 c 0,20,21
 662 -31 662 -31 659 -31 c 0,22,23
 657 -31 657 -31 655 -29 c 0,24,25
 650 -25 650 -25 567 76 c 0,26,27
 552 94 552 94 508 153.5 c 128,-1,28
 464 213 464 213 431 254 c 0,29,30
 428 256 428 256 425 256 c 256,31,32
 422 256 422 256 419 254 c 0,33,34
 394 225 394 225 290 110.5 c 128,-1,35
 186 -4 186 -4 134 -61 c 0,36,37
 132 -63 132 -63 130 -63 c 0,38,39
 127 -63 127 -63 122 -59 c 0,40,41
 89 -2 89 -2 69 37 c 0,42,43
 63 49 63 49 34 92 c 0,44,45
 32 94 32 94 32 97 c 256,46,47
 32 100 32 100 34 102 c 0,48,49
 128 188 128 188 134 195 c 0,50,51
 145 205 145 205 323 393 c 0,52,53
 325 395 325 395 325 398 c 0,54,55
 325 400 325 400 323 403 c 0,56,57
 282 461 282 461 207 567.5 c 128,-1,58
 132 674 132 674 95 725 c 0,59,60
 93 728 93 728 93 731 c 0,61,62
 93 733 93 733 95 735 c 0,63,64
 120 760 120 760 142.5 782.5 c 128,-1,65
 165 805 165 805 190.5 830.5 c 128,-1,66
 216 856 216 856 229 868 c 0,67,68
 231 870 231 870 234 870 c 256,69,70
 237 870 237 870 241 866 c 0,71,72
 370 629 370 629 431 532 c 0,73,74
 433 529 433 529 436 529 c 256,75,76
 439 529 439 529 442 532 c 0,77,78
 509 606 509 606 587 711 c 0,79,80
 601 729 601 729 630 774 c 128,-1,81
 659 819 659 819 673 838 c 0,82,83
 675 842 675 842 678 843 c 2,84,-1
 679 843 l 2,85,86
 681 843 681 843 683 840 c 0,87,88
 739 780 739 780 767 756 c 0,89,90
 792 737 792 737 794 735 c 256,91,92
 796 733 796 733 796 731 c 0,93,94
 796 728 796 728 794 725 c 0,0,1
EndSplineSet
Validated: 1
EndChar

StartChar: y
Encoding: 121 121 83
Width: 944
Flags: W
LayerCount: 2
Fore
SplineSet
852 47 m 0,0,1
 852 -180 852 -180 743.5 -301 c 128,-1,2
 635 -422 635 -422 415 -422 c 0,3,4
 250 -422 250 -422 114 -299 c 0,5,6
 112 -296 112 -296 112 -293 c 0,7,8
 112 -291 112 -291 114 -289 c 0,9,10
 153 -238 153 -238 209 -154 c 0,11,12
 211 -152 211 -152 214 -152 c 256,13,14
 217 -152 217 -152 219 -154 c 0,15,16
 258 -209 258 -209 303 -231.5 c 128,-1,17
 348 -254 348 -254 419 -254 c 0,18,19
 524 -254 524 -254 601 -177 c 128,-1,20
 678 -100 678 -100 678 6 c 0,21,22
 678 41 678 41 671 127 c 0,23,24
 669 136 669 136 665 136 c 0,25,26
 662 136 662 136 659 131 c 0,27,28
 553 16 553 16 379 16 c 0,29,30
 252 16 252 16 176 106.5 c 128,-1,31
 100 197 100 197 100 326 c 0,32,33
 100 467 100 467 143 780 c 0,34,35
 143 786 143 786 149 786 c 0,36,37
 217 786 217 786 344 791 c 0,38,39
 352 791 352 791 352 782 c 0,40,41
 346 743 346 743 327.5 658 c 128,-1,42
 309 573 309 573 299.5 508.5 c 128,-1,43
 290 444 290 444 290 383 c 0,44,45
 290 182 290 182 456 182 c 0,46,47
 499 182 499 182 556.5 212 c 128,-1,48
 614 242 614 242 647 297 c 0,49,50
 651 301 651 301 651 311 c 0,51,52
 651 334 651 334 647 383 c 2,53,-1
 643 432 l 2,54,55
 637 485 637 485 622.5 634.5 c 128,-1,56
 608 784 608 784 602 825 c 0,57,58
 602 831 602 831 608 834 c 0,59,60
 639 842 639 842 701.5 856 c 128,-1,61
 764 870 764 870 788 877 c 0,62,63
 796 877 796 877 796 870 c 0,64,65
 852 406 852 406 852 47 c 0,0,1
EndSplineSet
Validated: 1
EndChar

StartChar: z
Encoding: 122 122 84
Width: 815
Flags: W
LayerCount: 2
Fore
SplineSet
762 784 m 0,0,1
 721 725 721 725 632 595 c 128,-1,2
 543 465 543 465 475 365.5 c 128,-1,3
 407 266 407 266 350 172 c 0,4,5
 348 170 348 170 348 167 c 0,6,7
 348 166 348 166 349 164 c 0,8,9
 351 161 351 161 354 161 c 0,10,11
 356 161 356 161 358 162 c 0,12,13
 514 188 514 188 602 188 c 0,14,15
 717 188 717 188 739 186 c 0,16,17
 745 186 745 186 745 178 c 0,18,19
 737 147 737 147 727 92 c 128,-1,20
 717 37 717 37 711 12 c 0,21,22
 711 7 711 7 707 7 c 0,23,24
 705 7 705 7 702 8 c 0,25,26
 659 12 659 12 475 12 c 0,27,28
 252 12 252 12 57 -18 c 0,29,30
 49 -18 49 -18 49 -13 c 0,31,32
 49 -11 49 -11 51 -8 c 0,33,34
 113 102 113 102 235 281 c 1,35,36
 387 494 387 494 487 639 c 0,37,38
 490 642 490 642 490 644 c 256,39,40
 490 646 490 646 489 647 c 0,41,42
 488 650 488 650 485 650 c 0,43,44
 483 650 483 650 481 649 c 0,45,46
 319 645 319 645 104 627 c 0,47,48
 96 627 96 627 96 633 c 0,49,50
 92 664 92 664 83 719 c 128,-1,51
 74 774 74 774 70 805 c 0,52,53
 70 813 70 813 78 813 c 0,54,55
 113 811 113 811 403.5 806 c 128,-1,56
 694 801 694 801 756 797 c 0,57,58
 764 796 764 796 764 790 c 0,59,60
 764 788 764 788 762 784 c 0,0,1
EndSplineSet
Validated: 1
EndChar

StartChar: trademark
Encoding: 8482 8482 85
Width: 962
Flags: W
LayerCount: 2
Fore
SplineSet
455 1367 m 0,0,1
 451 1322 451 1322 444 1250 c 0,2,3
 444 1248 444 1248 442 1248 c 0,4,5
 429 1247 429 1247 368 1245.5 c 128,-1,6
 307 1244 307 1244 294 1244 c 0,7,8
 292 1244 292 1244 292 1240 c 0,9,10
 294 1217 294 1217 335 856 c 0,11,12
 335 852 335 852 332 852 c 0,13,14
 322 852 322 852 303 853 c 128,-1,15
 284 854 284 854 274 854 c 2,16,-1
 218 854 l 2,17,18
 215 854 215 854 215 857 c 0,19,20
 213 895 213 895 211 942 c 128,-1,21
 209 989 209 989 207 1026 c 0,22,23
 206 1052 206 1052 204.5 1129.5 c 128,-1,24
 203 1207 203 1207 201 1243 c 0,25,26
 201 1247 201 1247 197 1247 c 0,27,28
 192 1247 192 1247 165 1246.5 c 128,-1,29
 138 1246 138 1246 127 1246 c 0,30,31
 106 1246 106 1246 76 1243 c 0,32,33
 72 1243 72 1243 72 1247 c 2,34,-1
 72 1267 l 2,35,36
 72 1277 72 1277 71.5 1284 c 128,-1,37
 71 1291 71 1291 71 1293 c 2,38,-1
 68 1322 l 2,39,40
 68 1326 68 1326 71 1326 c 0,41,42
 204 1341 204 1341 451 1371 c 0,43,44
 455 1371 455 1371 455 1367 c 0,0,1
878 865 m 0,45,46
 878 862 878 862 875 862 c 0,47,48
 851 860 851 860 770 853 c 1,49,-1
 769 853 l 2,50,51
 767 853 767 853 767 856 c 0,52,53
 775 964 775 964 775 1081 c 0,54,55
 775 1084 775 1084 774 1085 c 2,56,-1
 773 1085 l 2,57,58
 772 1085 772 1085 770 1082 c 0,59,60
 731 1022 731 1022 697 966 c 0,61,62
 696 963 696 963 695 963 c 256,63,64
 694 963 694 963 692 966 c 0,65,66
 683 977 683 977 598 1100 c 0,67,68
 597 1101 597 1101 595 1101 c 2,69,-1
 594 1101 l 2,70,71
 592 1100 592 1100 592 1098 c 0,72,73
 587 949 587 949 584 862 c 0,74,75
 584 859 584 859 582 859 c 0,76,77
 564 855 564 855 530 852 c 0,78,79
 527 852 527 852 507 849 c 128,-1,80
 487 846 487 846 474 845 c 0,81,82
 470 845 470 845 470 848 c 0,83,84
 476 932 476 932 520 1376 c 0,85,86
 521 1381 521 1381 523 1381 c 256,87,88
 525 1381 525 1381 527 1377 c 0,89,90
 582 1284 582 1284 618 1230 c 0,91,92
 637 1202 637 1202 695 1110 c 0,93,94
 697 1108 697 1108 698 1108 c 0,95,96
 700 1108 700 1108 701 1110 c 0,97,98
 705 1117 705 1117 748 1197 c 0,99,100
 762 1226 762 1226 795.5 1290 c 128,-1,101
 829 1354 829 1354 841 1378 c 0,102,103
 841 1379 841 1379 843 1382 c 128,-1,104
 845 1385 845 1385 846.5 1387.5 c 128,-1,105
 848 1390 848 1390 850 1390 c 0,106,107
 853 1390 853 1390 854.5 1387 c 128,-1,108
 856 1384 856 1384 856 1380 c 2,109,-1
 856 1376 l 2,110,111
 856 1375 856 1375 858.5 1321.5 c 128,-1,112
 861 1268 861 1268 863 1203 c 128,-1,113
 865 1138 865 1138 866 1112 c 0,114,115
 868 1007 868 1007 878 865 c 0,45,46
EndSplineSet
Validated: 1
EndChar

StartChar: exclamdown
Encoding: 161 161 86
Width: 1662
VWidth: 1949
Flags: W
LayerCount: 2
Fore
SplineSet
952 525.5 m 1,0,-1
 1012 797.5 l 1,1,-1
 1074 797.5 l 1,2,-1
 972 379.5 l 1,3,-1
 922 379.5 l 1,4,-1
 838 669.5 l 1,5,-1
 832 707.5 l 1,6,-1
 830 707.5 l 1,7,-1
 824 669.5 l 1,8,-1
 740 379.5 l 1,9,-1
 688 379.5 l 1,10,-1
 588 797.5 l 1,11,-1
 648 797.5 l 1,12,-1
 710 525.5 l 1,13,-1
 716 469.5 l 1,14,-1
 718 469.5 l 1,15,-1
 728 525.5 l 1,16,-1
 802 797.5 l 1,17,-1
 858 797.5 l 1,18,-1
 932 525.5 l 1,19,-1
 942 469.5 l 1,20,-1
 944 469.5 l 1,21,-1
 952 525.5 l 1,0,-1
1508 1133.5 m 0,22,23
 1510 891.5 1510 891.5 1510 649.5 c 128,-1,24
 1510 407.5 1510 407.5 1508 165.5 c 0,25,26
 1508 65.5 1508 65.5 1450 8.5 c 128,-1,27
 1392 -48.5 1392 -48.5 1292 -48.5 c 2,28,-1
 366 -48.5 l 2,29,30
 268 -48.5 268 -48.5 211 8.5 c 128,-1,31
 154 65.5 154 65.5 152 163.5 c 2,32,-1
 152 651.5 l 1,33,-1
 152 1131.5 l 2,34,35
 152 1235.5 152 1235.5 210 1292.5 c 128,-1,36
 268 1349.5 268 1349.5 372 1349.5 c 2,37,-1
 1290 1349.5 l 2,38,39
 1392 1349.5 1392 1349.5 1450 1292.5 c 128,-1,40
 1508 1235.5 1508 1235.5 1508 1133.5 c 0,22,23
364 1105.5 m 0,41,42
 364 1195.5 364 1195.5 414 1245.5 c 0,43,44
 462 1293.5 462 1293.5 548 1293.5 c 0,45,46
 550 1293.5 550 1293.5 554 1293.5 c 0,47,48
 684 1293.5 684 1293.5 816 1293.5 c 0,49,50
 992 1293.5 992 1293.5 1080 1295.5 c 0,51,52
 1094 1295.5 1094 1295.5 1164 1305.5 c 1,53,54
 900 1315.5 900 1315.5 374 1315.5 c 0,55,56
 282 1315.5 282 1315.5 234 1267.5 c 128,-1,57
 186 1219.5 186 1219.5 186 1129.5 c 2,58,-1
 186 245.5 l 1,59,-1
 186 207.5 l 1,60,61
 194 207.5 194 207.5 196 205.5 c 1,62,63
 306 319.5 306 319.5 338 359.5 c 0,64,65
 362 383.5 362 383.5 362 419.5 c 0,66,67
 364 647.5 364 647.5 364 1105.5 c 0,41,42
1248 387.5 m 0,68,69
 1248 627.5 1248 627.5 1250 745.5 c 2,70,-1
 1250 1113.5 l 2,71,72
 1250 1177.5 1250 1177.5 1212 1217.5 c 128,-1,73
 1174 1257.5 1174 1257.5 1114 1257.5 c 0,74,75
 970 1257.5 970 1257.5 826 1257.5 c 0,76,77
 680 1257.5 680 1257.5 536 1257.5 c 0,78,79
 476 1257.5 476 1257.5 436 1215.5 c 0,80,81
 400 1175.5 400 1175.5 400 1111.5 c 2,82,-1
 400 383.5 l 2,83,84
 400 317.5 400 317.5 439 278.5 c 128,-1,85
 478 239.5 478 239.5 544 239.5 c 2,86,-1
 1102 239.5 l 2,87,88
 1172 239.5 1172 239.5 1210 278.5 c 128,-1,89
 1248 317.5 1248 317.5 1248 387.5 c 0,68,69
EndSplineSet
Validated: 1
EndChar

StartChar: cent
Encoding: 162 162 87
Width: 1661
VWidth: 1949
Flags: W
LayerCount: 2
Fore
SplineSet
808 797.5 m 1,0,-1
 856 797.5 l 1,1,-1
 1004 379.5 l 1,2,-1
 946 379.5 l 1,3,-1
 910 487.5 l 1,4,-1
 752 487.5 l 1,5,-1
 716 379.5 l 1,6,-1
 658 379.5 l 1,7,-1
 808 797.5 l 1,0,-1
768 533.5 m 1,8,-1
 892 533.5 l 1,9,-1
 832 713.5 l 1,10,-1
 830 713.5 l 1,11,-1
 768 533.5 l 1,8,-1
1508 1133.5 m 2,12,-1
 1508 165.5 l 2,13,14
 1508 65.5 1508 65.5 1450 8.5 c 128,-1,15
 1392 -48.5 1392 -48.5 1292 -48.5 c 2,16,-1
 366 -48.5 l 2,17,18
 268 -48.5 268 -48.5 211 7.5 c 128,-1,19
 154 63.5 154 63.5 152 163.5 c 2,20,-1
 152 651.5 l 1,21,-1
 152 1131.5 l 2,22,23
 154 1235.5 154 1235.5 211 1292.5 c 128,-1,24
 268 1349.5 268 1349.5 372 1349.5 c 2,25,-1
 1290 1349.5 l 2,26,27
 1392 1349.5 1392 1349.5 1450 1292.5 c 128,-1,28
 1508 1235.5 1508 1235.5 1508 1133.5 c 2,12,-1
364 1105.5 m 0,29,30
 364 1195.5 364 1195.5 414 1245.5 c 0,31,32
 462 1293.5 462 1293.5 548 1293.5 c 0,33,34
 552 1293.5 552 1293.5 554 1293.5 c 0,35,36
 686 1293.5 686 1293.5 816 1293.5 c 0,37,38
 992 1293.5 992 1293.5 1080 1295.5 c 0,39,40
 1100 1295.5 1100 1295.5 1166 1305.5 c 1,41,42
 900 1315.5 900 1315.5 374 1315.5 c 0,43,44
 190 1315.5 190 1315.5 186 1129.5 c 2,45,-1
 186 245.5 l 1,46,-1
 186 207.5 l 2,47,48
 192 207.5 192 207.5 196 205.5 c 0,49,50
 306 319.5 306 319.5 338 359.5 c 0,51,52
 362 383.5 362 383.5 362 419.5 c 0,53,54
 364 647.5 364 647.5 364 1105.5 c 0,29,30
1248 387.5 m 0,55,56
 1248 627.5 1248 627.5 1250 745.5 c 2,57,-1
 1250 1113.5 l 2,58,59
 1250 1177.5 1250 1177.5 1212 1217.5 c 128,-1,60
 1174 1257.5 1174 1257.5 1114 1257.5 c 0,61,62
 968 1257.5 968 1257.5 824 1257.5 c 128,-1,63
 680 1257.5 680 1257.5 536 1257.5 c 0,64,65
 476 1257.5 476 1257.5 436 1215.5 c 0,66,67
 398 1175.5 398 1175.5 398 1111.5 c 2,68,-1
 398 383.5 l 2,69,70
 398 317.5 398 317.5 437 278.5 c 128,-1,71
 476 239.5 476 239.5 544 239.5 c 2,72,-1
 1102 239.5 l 2,73,74
 1172 239.5 1172 239.5 1210 278.5 c 128,-1,75
 1248 317.5 1248 317.5 1248 387.5 c 0,55,56
EndSplineSet
Validated: 1
EndChar

StartChar: sterling
Encoding: 163 163 88
Width: 1661
VWidth: 1949
Flags: W
LayerCount: 2
Fore
SplineSet
850 611.5 m 0,0,1
 912 597.5 912 597.5 942 561.5 c 1,2,3
 976 533.5 976 533.5 976 483.5 c 0,4,5
 976 431.5 976 431.5 936 403.5 c 0,6,7
 900 373.5 900 373.5 834 373.5 c 0,8,9
 772 373.5 772 373.5 726 405.5 c 0,10,11
 680 443.5 680 443.5 682 497.5 c 2,12,-1
 682 499.5 l 1,13,-1
 736 499.5 l 1,14,15
 736 457.5 736 457.5 766 437.5 c 0,16,17
 794 417.5 794 417.5 834 417.5 c 128,-1,18
 874 417.5 874 417.5 898 435.5 c 128,-1,19
 922 453.5 922 453.5 922 485.5 c 0,20,21
 922 513.5 922 513.5 900 531.5 c 0,22,23
 880 551.5 880 551.5 828 563.5 c 0,24,25
 762 581.5 762 581.5 730 611.5 c 0,26,27
 694 641.5 694 641.5 694 687.5 c 0,28,29
 694 737.5 694 737.5 732 769.5 c 128,-1,30
 770 801.5 770 801.5 834 801.5 c 0,31,32
 900 801.5 900 801.5 938 765.5 c 0,33,34
 978 725.5 978 725.5 976 677.5 c 2,35,-1
 976 675.5 l 1,36,-1
 922 675.5 l 1,37,38
 922 709.5 922 709.5 896 735.5 c 0,39,40
 874 757.5 874 757.5 834 757.5 c 0,41,42
 792 757.5 792 757.5 772 739.5 c 0,43,44
 752 719.5 752 719.5 752 689.5 c 128,-1,45
 752 659.5 752 659.5 774 643.5 c 0,46,47
 798 625.5 798 625.5 850 611.5 c 0,0,1
1508 1133.5 m 2,48,-1
 1508 165.5 l 2,49,50
 1508 65.5 1508 65.5 1450 8.5 c 128,-1,51
 1392 -48.5 1392 -48.5 1292 -48.5 c 2,52,-1
 366 -48.5 l 2,53,54
 268 -48.5 268 -48.5 211 8.5 c 128,-1,55
 154 65.5 154 65.5 152 163.5 c 2,56,-1
 152 651.5 l 1,57,-1
 152 1131.5 l 2,58,59
 152 1235.5 152 1235.5 210 1292.5 c 128,-1,60
 268 1349.5 268 1349.5 372 1349.5 c 2,61,-1
 1290 1349.5 l 2,62,63
 1392 1349.5 1392 1349.5 1450 1292.5 c 128,-1,64
 1508 1235.5 1508 1235.5 1508 1133.5 c 2,48,-1
364 1105.5 m 0,65,66
 364 1195.5 364 1195.5 414 1245.5 c 0,67,68
 462 1293.5 462 1293.5 548 1293.5 c 0,69,70
 550 1293.5 550 1293.5 554 1293.5 c 0,71,72
 684 1293.5 684 1293.5 816 1293.5 c 0,73,74
 992 1293.5 992 1293.5 1080 1295.5 c 0,75,76
 1094 1295.5 1094 1295.5 1164 1305.5 c 1,77,78
 900 1315.5 900 1315.5 374 1315.5 c 0,79,80
 282 1315.5 282 1315.5 234 1267.5 c 128,-1,81
 186 1219.5 186 1219.5 186 1129.5 c 2,82,-1
 186 245.5 l 1,83,-1
 186 207.5 l 1,84,85
 194 207.5 194 207.5 196 205.5 c 1,86,87
 306 319.5 306 319.5 338 359.5 c 0,88,89
 362 383.5 362 383.5 362 419.5 c 0,90,91
 364 647.5 364 647.5 364 1105.5 c 0,65,66
1248 387.5 m 2,92,-1
 1248 745.5 l 1,93,-1
 1248 1113.5 l 2,94,95
 1248 1177.5 1248 1177.5 1212 1217.5 c 0,96,97
 1174 1257.5 1174 1257.5 1114 1257.5 c 0,98,99
 968 1257.5 968 1257.5 824 1257.5 c 128,-1,100
 680 1257.5 680 1257.5 536 1257.5 c 0,101,102
 474 1257.5 474 1257.5 436 1217.5 c 128,-1,103
 398 1177.5 398 1177.5 398 1111.5 c 2,104,-1
 398 383.5 l 2,105,106
 398 317.5 398 317.5 437 278.5 c 128,-1,107
 476 239.5 476 239.5 544 239.5 c 2,108,-1
 1102 239.5 l 2,109,110
 1170 239.5 1170 239.5 1209 278.5 c 128,-1,111
 1248 317.5 1248 317.5 1248 387.5 c 2,92,-1
EndSplineSet
Validated: 33
EndChar

StartChar: currency
Encoding: 164 164 89
Width: 1662
VWidth: 1949
Flags: W
LayerCount: 2
Fore
SplineSet
806 797.5 m 2,0,1
 888 797.5 888 797.5 936 745.5 c 0,2,3
 986 697.5 986 697.5 986 615.5 c 2,4,-1
 986 559.5 l 2,5,6
 986 477.5 986 477.5 936 429.5 c 0,7,8
 888 379.5 888 379.5 806 379.5 c 2,9,-1
 674 379.5 l 1,10,-1
 674 797.5 l 1,11,-1
 806 797.5 l 2,0,1
930 559.5 m 2,12,-1
 930 617.5 l 2,13,14
 930 677.5 930 677.5 896 713.5 c 0,15,16
 864 751.5 864 751.5 806 751.5 c 2,17,-1
 730 751.5 l 1,18,-1
 730 423.5 l 1,19,-1
 806 423.5 l 2,20,21
 864 423.5 864 423.5 896 461.5 c 0,22,23
 930 497.5 930 497.5 930 559.5 c 2,12,-1
1508 1133.5 m 0,24,25
 1510 891.5 1510 891.5 1510 649.5 c 128,-1,26
 1510 407.5 1510 407.5 1508 165.5 c 0,27,28
 1508 65.5 1508 65.5 1450 8.5 c 128,-1,29
 1392 -48.5 1392 -48.5 1292 -48.5 c 2,30,-1
 366 -48.5 l 2,31,32
 268 -48.5 268 -48.5 211 8.5 c 128,-1,33
 154 65.5 154 65.5 152 163.5 c 2,34,-1
 152 651.5 l 1,35,-1
 152 1131.5 l 2,36,37
 152 1235.5 152 1235.5 210 1292.5 c 128,-1,38
 268 1349.5 268 1349.5 372 1349.5 c 2,39,-1
 1290 1349.5 l 2,40,41
 1392 1349.5 1392 1349.5 1450 1292.5 c 128,-1,42
 1508 1235.5 1508 1235.5 1508 1133.5 c 0,24,25
364 1105.5 m 0,43,44
 364 1195.5 364 1195.5 414 1245.5 c 0,45,46
 462 1293.5 462 1293.5 548 1293.5 c 0,47,48
 550 1293.5 550 1293.5 554 1293.5 c 0,49,50
 684 1293.5 684 1293.5 816 1293.5 c 0,51,52
 992 1293.5 992 1293.5 1080 1295.5 c 0,53,54
 1094 1295.5 1094 1295.5 1164 1305.5 c 1,55,56
 900 1315.5 900 1315.5 374 1315.5 c 0,57,58
 282 1315.5 282 1315.5 234 1267.5 c 128,-1,59
 186 1219.5 186 1219.5 186 1129.5 c 2,60,-1
 186 245.5 l 1,61,-1
 186 207.5 l 1,62,63
 194 207.5 194 207.5 196 205.5 c 1,64,65
 306 319.5 306 319.5 338 359.5 c 0,66,67
 362 383.5 362 383.5 362 419.5 c 0,68,69
 364 647.5 364 647.5 364 1105.5 c 0,43,44
1248 387.5 m 0,70,71
 1248 627.5 1248 627.5 1250 745.5 c 2,72,-1
 1250 1113.5 l 2,73,74
 1250 1177.5 1250 1177.5 1212 1217.5 c 128,-1,75
 1174 1257.5 1174 1257.5 1114 1257.5 c 0,76,77
 970 1257.5 970 1257.5 826 1257.5 c 0,78,79
 680 1257.5 680 1257.5 536 1257.5 c 0,80,81
 476 1257.5 476 1257.5 436 1215.5 c 0,82,83
 400 1175.5 400 1175.5 400 1111.5 c 2,84,-1
 400 383.5 l 2,85,86
 400 317.5 400 317.5 439 278.5 c 128,-1,87
 478 239.5 478 239.5 544 239.5 c 2,88,-1
 1102 239.5 l 2,89,90
 1172 239.5 1172 239.5 1210 278.5 c 128,-1,91
 1248 317.5 1248 317.5 1248 387.5 c 0,70,71
EndSplineSet
Validated: 1
EndChar

StartChar: yen
Encoding: 165 165 90
Width: 1662
VWidth: 1949
Flags: W
LayerCount: 2
Fore
SplineSet
976 487.5 m 0,0,1
 968 463.5 968 463.5 948 433.5 c 1,2,-1
 1010 373.5 l 1,3,-1
 972 337.5 l 1,4,-1
 908 399.5 l 1,5,6
 892 385.5 892 385.5 866 379.5 c 0,7,8
 842 373.5 842 373.5 816 373.5 c 0,9,10
 742 373.5 742 373.5 698 423.5 c 0,11,12
 652 475.5 652 475.5 652 549.5 c 2,13,-1
 652 625.5 l 2,14,15
 652 699.5 652 699.5 698 751.5 c 0,16,17
 742 801.5 742 801.5 816 801.5 c 0,18,19
 894 801.5 894 801.5 938 751.5 c 0,20,21
 986 701.5 986 701.5 986 625.5 c 2,22,-1
 986 549.5 l 2,23,24
 986 521.5 986 521.5 976 487.5 c 0,0,1
928 549.5 m 2,25,-1
 928 625.5 l 2,26,27
 928 681.5 928 681.5 898 717.5 c 0,28,29
 868 755.5 868 755.5 814 755.5 c 0,30,31
 766 755.5 766 755.5 736 717.5 c 0,32,33
 708 687.5 708 687.5 708 625.5 c 2,34,-1
 708 549.5 l 2,35,36
 708 489.5 708 489.5 736 455.5 c 0,37,38
 766 419.5 766 419.5 814 419.5 c 0,39,40
 868 419.5 868 419.5 898 455.5 c 128,-1,41
 928 491.5 928 491.5 928 549.5 c 2,25,-1
1508 1133.5 m 0,42,43
 1510 891.5 1510 891.5 1510 649.5 c 128,-1,44
 1510 407.5 1510 407.5 1508 165.5 c 0,45,46
 1508 65.5 1508 65.5 1450 8.5 c 128,-1,47
 1392 -48.5 1392 -48.5 1292 -48.5 c 2,48,-1
 366 -48.5 l 2,49,50
 268 -48.5 268 -48.5 211 8.5 c 128,-1,51
 154 65.5 154 65.5 152 163.5 c 2,52,-1
 152 651.5 l 1,53,-1
 152 1131.5 l 2,54,55
 152 1235.5 152 1235.5 210 1292.5 c 128,-1,56
 268 1349.5 268 1349.5 372 1349.5 c 2,57,-1
 1290 1349.5 l 2,58,59
 1392 1349.5 1392 1349.5 1450 1292.5 c 128,-1,60
 1508 1235.5 1508 1235.5 1508 1133.5 c 0,42,43
364 1105.5 m 0,61,62
 364 1195.5 364 1195.5 414 1245.5 c 0,63,64
 462 1293.5 462 1293.5 548 1293.5 c 0,65,66
 550 1293.5 550 1293.5 554 1293.5 c 0,67,68
 684 1293.5 684 1293.5 816 1293.5 c 0,69,70
 992 1293.5 992 1293.5 1080 1295.5 c 0,71,72
 1094 1295.5 1094 1295.5 1164 1305.5 c 1,73,74
 900 1315.5 900 1315.5 374 1315.5 c 0,75,76
 282 1315.5 282 1315.5 234 1267.5 c 128,-1,77
 186 1219.5 186 1219.5 186 1129.5 c 2,78,-1
 186 245.5 l 1,79,-1
 186 207.5 l 1,80,81
 194 207.5 194 207.5 196 205.5 c 1,82,83
 306 319.5 306 319.5 338 359.5 c 0,84,85
 362 383.5 362 383.5 362 419.5 c 0,86,87
 364 647.5 364 647.5 364 1105.5 c 0,61,62
1248 387.5 m 0,88,89
 1248 627.5 1248 627.5 1250 745.5 c 2,90,-1
 1250 1113.5 l 2,91,92
 1250 1177.5 1250 1177.5 1212 1217.5 c 128,-1,93
 1174 1257.5 1174 1257.5 1114 1257.5 c 0,94,95
 970 1257.5 970 1257.5 826 1257.5 c 0,96,97
 680 1257.5 680 1257.5 536 1257.5 c 0,98,99
 476 1257.5 476 1257.5 436 1215.5 c 0,100,101
 400 1175.5 400 1175.5 400 1111.5 c 2,102,-1
 400 383.5 l 2,103,104
 400 317.5 400 317.5 439 278.5 c 128,-1,105
 478 239.5 478 239.5 544 239.5 c 2,106,-1
 1102 239.5 l 2,107,108
 1172 239.5 1172 239.5 1210 278.5 c 128,-1,109
 1248 317.5 1248 317.5 1248 387.5 c 0,88,89
EndSplineSet
Validated: 1
EndChar

StartChar: brokenbar
Encoding: 166 166 91
Width: 2297
VWidth: 1949
Flags: W
LayerCount: 2
Fore
SplineSet
890 585.5 m 1,0,-1
 890 609.5 l 1,1,-1
 1072 609.5 l 1,2,-1
 1072 585.5 l 1,3,-1
 996 585.5 l 1,4,-1
 996 379.5 l 1,5,-1
 966 379.5 l 1,6,-1
 966 585.5 l 1,7,-1
 890 585.5 l 1,0,-1
1216 413.5 m 2,8,9
 1216 411.5 1216 411.5 1217 404.5 c 128,-1,10
 1218 397.5 1218 397.5 1218 393.5 c 0,11,12
 1218 385.5 1218 385.5 1222 377.5 c 1,13,-1
 1190 377.5 l 2,14,15
 1188 381.5 1188 381.5 1188 391.5 c 0,16,17
 1186 395.5 1186 395.5 1186 403.5 c 1,18,19
 1178 389.5 1178 389.5 1164 381.5 c 0,20,21
 1144 373.5 1144 373.5 1134 373.5 c 0,22,23
 1110 373.5 1110 373.5 1092 387.5 c 0,24,25
 1078 401.5 1078 401.5 1078 425.5 c 128,-1,26
 1078 449.5 1078 449.5 1098 463.5 c 0,27,28
 1114 477.5 1114 477.5 1152 477.5 c 2,29,-1
 1186 477.5 l 1,30,-1
 1186 495.5 l 2,31,32
 1186 511.5 1186 511.5 1176 519.5 c 0,33,34
 1168 527.5 1168 527.5 1150 527.5 c 0,35,36
 1134 527.5 1134 527.5 1126 519.5 c 0,37,38
 1116 513.5 1116 513.5 1116 501.5 c 1,39,-1
 1088 501.5 l 1,40,-1
 1088 503.5 l 2,41,42
 1084 521.5 1084 521.5 1104 537.5 c 128,-1,43
 1124 553.5 1124 553.5 1152 553.5 c 0,44,45
 1178 553.5 1178 553.5 1198 537.5 c 0,46,47
 1216 521.5 1216 521.5 1216 495.5 c 2,48,-1
 1216 413.5 l 2,8,9
1184 431.5 m 1,49,-1
 1184 459.5 l 1,50,-1
 1148 459.5 l 2,51,52
 1132 459.5 1132 459.5 1118 449.5 c 0,53,54
 1108 441.5 1108 441.5 1108 427.5 c 0,55,56
 1108 415.5 1108 415.5 1116 407.5 c 0,57,58
 1122 401.5 1122 401.5 1136 401.5 c 0,59,60
 1152 401.5 1152 401.5 1166 411.5 c 0,61,62
 1178 417.5 1178 417.5 1184 431.5 c 1,49,-1
1340 553.5 m 0,63,64
 1368 553.5 1368 553.5 1386 527.5 c 0,65,66
 1404 503.5 1404 503.5 1404 461.5 c 2,67,-1
 1404 457.5 l 2,68,69
 1404 421.5 1404 421.5 1386 399.5 c 0,70,71
 1368 375.5 1368 375.5 1338 375.5 c 0,72,73
 1322 375.5 1322 375.5 1310 381.5 c 0,74,75
 1294 393.5 1294 393.5 1288 401.5 c 2,76,-1
 1284 377.5 l 1,77,-1
 1260 377.5 l 1,78,-1
 1260 625.5 l 1,79,-1
 1290 625.5 l 1,80,-1
 1290 529.5 l 1,81,82
 1300 539.5 1300 539.5 1312 545.5 c 0,83,84
 1328 553.5 1328 553.5 1340 553.5 c 0,63,64
1374 457.5 m 2,85,-1
 1374 463.5 l 2,86,87
 1374 497.5 1374 497.5 1364 511.5 c 0,88,89
 1350 529.5 1350 529.5 1330 529.5 c 0,90,91
 1322 529.5 1322 529.5 1306 521.5 c 0,92,93
 1302 517.5 1302 517.5 1290 501.5 c 1,94,-1
 1290 427.5 l 1,95,96
 1302 411.5 1302 411.5 1306 407.5 c 0,97,98
 1318 401.5 1318 401.5 1332 401.5 c 0,99,100
 1352 401.5 1352 401.5 1364 417.5 c 0,101,102
 1374 429.5 1374 429.5 1374 457.5 c 2,85,-1
2144 1133.5 m 2,103,-1
 2144 165.5 l 2,104,105
 2144 65.5 2144 65.5 2086 8.5 c 128,-1,106
 2028 -48.5 2028 -48.5 1928 -48.5 c 2,107,-1
 366 -48.5 l 2,108,109
 268 -48.5 268 -48.5 211 8.5 c 128,-1,110
 154 65.5 154 65.5 152 163.5 c 2,111,-1
 152 651.5 l 1,112,-1
 152 1131.5 l 2,113,114
 152 1235.5 152 1235.5 210 1292.5 c 128,-1,115
 268 1349.5 268 1349.5 372 1349.5 c 2,116,-1
 1926 1349.5 l 2,117,118
 2028 1349.5 2028 1349.5 2086 1292.5 c 128,-1,119
 2144 1235.5 2144 1235.5 2144 1133.5 c 2,103,-1
364 1105.5 m 0,120,121
 364 1195.5 364 1195.5 414 1245.5 c 0,122,123
 462 1293.5 462 1293.5 548 1293.5 c 0,124,125
 550 1293.5 550 1293.5 554 1293.5 c 0,126,127
 844 1293.5 844 1293.5 1134 1293.5 c 0,128,129
 1628 1293.5 1628 1293.5 1716 1295.5 c 0,130,131
 1730 1295.5 1730 1295.5 1800 1305.5 c 1,132,133
 1536 1315.5 1536 1315.5 374 1315.5 c 0,134,135
 282 1315.5 282 1315.5 234 1267.5 c 128,-1,136
 186 1219.5 186 1219.5 186 1129.5 c 2,137,-1
 186 245.5 l 1,138,-1
 186 207.5 l 1,139,140
 194 207.5 194 207.5 196 205.5 c 1,141,142
 306 319.5 306 319.5 338 359.5 c 0,143,144
 362 383.5 362 383.5 362 419.5 c 0,145,146
 364 647.5 364 647.5 364 1105.5 c 0,120,121
1884 387.5 m 0,147,148
 1884 627.5 1884 627.5 1886 745.5 c 2,149,-1
 1886 1113.5 l 2,150,151
 1886 1177.5 1886 1177.5 1849 1216.5 c 128,-1,152
 1812 1255.5 1812 1255.5 1750 1257.5 c 0,153,154
 1604 1259.5 1604 1259.5 1143 1259.5 c 128,-1,155
 682 1259.5 682 1259.5 536 1257.5 c 0,156,157
 474 1255.5 474 1255.5 437 1215.5 c 128,-1,158
 400 1175.5 400 1175.5 400 1111.5 c 2,159,-1
 400 383.5 l 2,160,161
 400 317.5 400 317.5 439 278.5 c 128,-1,162
 478 239.5 478 239.5 544 239.5 c 2,163,-1
 1738 239.5 l 2,164,165
 1808 239.5 1808 239.5 1846 278.5 c 128,-1,166
 1884 317.5 1884 317.5 1884 387.5 c 0,147,148
EndSplineSet
Validated: 2049
EndChar

StartChar: section
Encoding: 167 167 92
Width: 3084
VWidth: 1949
Flags: W
LayerCount: 2
Fore
SplineSet
1306 507.5 m 0,0,1
 1340 499.5 1340 499.5 1360 479.5 c 0,2,3
 1378 465.5 1378 465.5 1378 437.5 c 128,-1,4
 1378 409.5 1378 409.5 1358 393.5 c 0,5,6
 1334 375.5 1334 375.5 1300 375.5 c 128,-1,7
 1266 375.5 1266 375.5 1240 393.5 c 0,8,9
 1216 409.5 1216 409.5 1216 443.5 c 2,10,-1
 1216 445.5 l 1,11,-1
 1246 445.5 l 1,12,13
 1246 423.5 1246 423.5 1262 411.5 c 0,14,15
 1280 399.5 1280 399.5 1300 399.5 c 0,16,17
 1318 399.5 1318 399.5 1334 409.5 c 0,18,19
 1346 417.5 1346 417.5 1346 435.5 c 128,-1,20
 1346 453.5 1346 453.5 1336 461.5 c 0,21,22
 1324 473.5 1324 473.5 1296 479.5 c 0,23,24
 1260 491.5 1260 491.5 1240 505.5 c 0,25,26
 1222 523.5 1222 523.5 1222 547.5 c 0,27,28
 1222 575.5 1222 575.5 1244 593.5 c 128,-1,29
 1266 611.5 1266 611.5 1298 611.5 c 0,30,31
 1336 611.5 1336 611.5 1356 591.5 c 128,-1,32
 1376 571.5 1376 571.5 1376 543.5 c 2,33,-1
 1376 541.5 l 1,34,-1
 1346 541.5 l 1,35,36
 1346 561.5 1346 561.5 1332 573.5 c 0,37,38
 1320 587.5 1320 587.5 1298 587.5 c 128,-1,39
 1276 587.5 1276 587.5 1264 575.5 c 128,-1,40
 1252 563.5 1252 563.5 1252 549.5 c 128,-1,41
 1252 535.5 1252 535.5 1266 525.5 c 0,42,43
 1278 513.5 1278 513.5 1306 507.5 c 0,0,1
1498 553.5 m 0,44,45
 1526 553.5 1526 553.5 1540 535.5 c 0,46,47
 1556 515.5 1556 515.5 1556 485.5 c 2,48,-1
 1556 379.5 l 1,49,-1
 1524 379.5 l 1,50,-1
 1524 487.5 l 2,51,52
 1524 505.5 1524 505.5 1516 517.5 c 0,53,54
 1508 527.5 1508 527.5 1488 527.5 c 0,55,56
 1476 527.5 1476 527.5 1464 521.5 c 0,57,58
 1462 521.5 1462 521.5 1448 507.5 c 1,59,-1
 1448 377.5 l 1,60,-1
 1418 377.5 l 1,61,-1
 1418 625.5 l 1,62,-1
 1448 625.5 l 1,63,-1
 1448 527.5 l 1,64,65
 1454 537.5 1454 537.5 1470 545.5 c 128,-1,66
 1486 553.5 1486 553.5 1498 553.5 c 0,44,45
1636 379.5 m 1,67,-1
 1604 379.5 l 1,68,-1
 1604 549.5 l 1,69,-1
 1636 549.5 l 1,70,-1
 1636 379.5 l 1,67,-1
1636 595.5 m 1,71,-1
 1604 595.5 l 1,72,-1
 1604 625.5 l 1,73,-1
 1636 625.5 l 1,74,-1
 1636 595.5 l 1,71,-1
1750 629.5 m 0,75,76
 1752 629.5 1752 629.5 1755 628.5 c 128,-1,77
 1758 627.5 1758 627.5 1762 627.5 c 0,78,79
 1768 627.5 1768 627.5 1772 625.5 c 2,80,-1
 1768 601.5 l 2,81,82
 1766 603.5 1766 603.5 1762 603.5 c 2,83,-1
 1754 603.5 l 2,84,85
 1742 603.5 1742 603.5 1734 595.5 c 128,-1,86
 1726 587.5 1726 587.5 1726 571.5 c 2,87,-1
 1726 549.5 l 1,88,-1
 1758 549.5 l 1,89,-1
 1758 527.5 l 1,90,-1
 1726 527.5 l 1,91,-1
 1726 379.5 l 1,92,-1
 1696 379.5 l 1,93,-1
 1696 527.5 l 1,94,-1
 1668 527.5 l 1,95,-1
 1668 549.5 l 1,96,-1
 1696 549.5 l 1,97,-1
 1696 571.5 l 2,98,99
 1696 599.5 1696 599.5 1710 613.5 c 0,100,101
 1726 629.5 1726 629.5 1750 629.5 c 0,75,76
1856 401.5 m 1,102,-1
 1860 403.5 l 1,103,-1
 1864 381.5 l 2,104,105
 1862 381.5 1862 381.5 1854 377.5 c 0,106,107
 1852 377.5 1852 377.5 1848 376.5 c 128,-1,108
 1844 375.5 1844 375.5 1840 375.5 c 0,109,110
 1822 375.5 1822 375.5 1810 387.5 c 0,111,112
 1800 401.5 1800 401.5 1800 423.5 c 2,113,-1
 1800 527.5 l 1,114,-1
 1772 527.5 l 1,115,-1
 1772 549.5 l 1,116,-1
 1800 549.5 l 1,117,-1
 1800 589.5 l 1,118,-1
 1832 589.5 l 1,119,-1
 1832 549.5 l 1,120,-1
 1864 549.5 l 1,121,-1
 1864 527.5 l 1,122,-1
 1832 527.5 l 1,123,-1
 1832 423.5 l 2,124,125
 1832 413.5 1832 413.5 1836 405.5 c 0,126,127
 1844 401.5 1844 401.5 1850 401.5 c 2,128,-1
 1856 401.5 l 1,102,-1
2930 1133.5 m 0,129,130
 2930 487.5 2930 487.5 2932 165.5 c 0,131,132
 2932 65.5 2932 65.5 2874 8.5 c 128,-1,133
 2816 -48.5 2816 -48.5 2716 -48.5 c 2,134,-1
 366 -48.5 l 2,135,136
 268 -48.5 268 -48.5 211 8.5 c 128,-1,137
 154 65.5 154 65.5 152 163.5 c 2,138,-1
 152 651.5 l 1,139,-1
 152 1131.5 l 2,140,141
 152 1235.5 152 1235.5 210 1292.5 c 128,-1,142
 268 1349.5 268 1349.5 372 1349.5 c 2,143,-1
 2714 1349.5 l 2,144,145
 2814 1349.5 2814 1349.5 2872 1292.5 c 128,-1,146
 2930 1235.5 2930 1235.5 2930 1133.5 c 0,129,130
362 1105.5 m 2,147,148
 362 1195.5 362 1195.5 412 1245.5 c 0,149,150
 460 1293.5 460 1293.5 544 1293.5 c 0,151,152
 546 1293.5 546 1293.5 550 1293.5 c 0,153,154
 1038 1293.5 1038 1293.5 1526 1293.5 c 0,155,156
 2414 1293.5 2414 1293.5 2500 1295.5 c 0,157,158
 2516 1295.5 2516 1295.5 2586 1305.5 c 1,159,160
 2322 1315.5 2322 1315.5 372 1315.5 c 0,161,162
 282 1315.5 282 1315.5 234 1267.5 c 128,-1,163
 186 1219.5 186 1219.5 186 1129.5 c 2,164,-1
 186 245.5 l 1,165,-1
 186 207.5 l 2,166,167
 192 207.5 192 207.5 196 205.5 c 0,168,169
 198 207.5 198 207.5 254 267.5 c 128,-1,170
 310 327.5 310 327.5 338 359.5 c 0,171,172
 362 383.5 362 383.5 362 419.5 c 2,173,-1
 362 1105.5 l 2,147,148
2670 387.5 m 0,174,175
 2670 447.5 2670 447.5 2670 566.5 c 128,-1,176
 2670 685.5 2670 685.5 2672 745.5 c 2,177,-1
 2672 1113.5 l 2,178,179
 2672 1177.5 2672 1177.5 2635 1216.5 c 128,-1,180
 2598 1255.5 2598 1255.5 2536 1257.5 c 0,181,182
 2392 1259.5 2392 1259.5 1536 1259.5 c 128,-1,183
 680 1259.5 680 1259.5 536 1257.5 c 0,184,185
 472 1255.5 472 1255.5 435 1216.5 c 128,-1,186
 398 1177.5 398 1177.5 398 1111.5 c 2,187,-1
 398 383.5 l 2,188,189
 398 317.5 398 317.5 437 278.5 c 128,-1,190
 476 239.5 476 239.5 544 239.5 c 2,191,-1
 2524 239.5 l 2,192,193
 2594 239.5 2594 239.5 2632 278.5 c 128,-1,194
 2670 317.5 2670 317.5 2670 387.5 c 0,174,175
EndSplineSet
Validated: 2049
EndChar

StartChar: dieresis
Encoding: 168 168 93
Width: 1662
VWidth: 1949
Flags: W
LayerCount: 2
Fore
SplineSet
624 485.5 m 1,0,-1
 624 403.5 l 1,1,-1
 736 403.5 l 1,2,-1
 736 379.5 l 1,3,-1
 592 379.5 l 1,4,-1
 592 609.5 l 1,5,-1
 732 609.5 l 1,6,-1
 732 585.5 l 1,7,-1
 624 585.5 l 1,8,-1
 624 511.5 l 1,9,-1
 718 511.5 l 1,10,-1
 718 485.5 l 1,11,-1
 624 485.5 l 1,0,-1
882 459.5 m 0,12,13
 898 447.5 898 447.5 898 423.5 c 128,-1,14
 898 399.5 898 399.5 880 387.5 c 0,15,16
 864 373.5 864 373.5 832 373.5 c 0,17,18
 798 373.5 798 373.5 780 389.5 c 0,19,20
 760 407.5 760 407.5 762 427.5 c 2,21,-1
 762 429.5 l 1,22,-1
 792 429.5 l 1,23,24
 792 411.5 792 411.5 804 405.5 c 0,25,26
 814 397.5 814 397.5 830 397.5 c 0,27,28
 844 397.5 844 397.5 856 405.5 c 0,29,30
 866 409.5 866 409.5 866 423.5 c 0,31,32
 866 433.5 866 433.5 858 441.5 c 0,33,34
 852 449.5 852 449.5 830 451.5 c 0,35,36
 796 461.5 796 461.5 784 471.5 c 0,37,38
 768 479.5 768 479.5 768 501.5 c 128,-1,39
 768 523.5 768 523.5 784 537.5 c 0,40,41
 804 553.5 804 553.5 830 553.5 c 0,42,43
 860 553.5 860 553.5 878 535.5 c 0,44,45
 896 521.5 896 521.5 896 499.5 c 1,46,-1
 866 499.5 l 1,47,48
 866 509.5 866 509.5 856 519.5 c 0,49,50
 848 527.5 848 527.5 830 527.5 c 0,51,52
 814 527.5 814 527.5 806 519.5 c 0,53,54
 798 513.5 798 513.5 798 503.5 c 0,55,56
 798 489.5 798 489.5 806 487.5 c 0,57,58
 812 481.5 812 481.5 834 477.5 c 0,59,60
 864 471.5 864 471.5 882 459.5 c 0,12,13
970 511.5 m 0,61,62
 960 491.5 960 491.5 962 463.5 c 2,63,-1
 962 457.5 l 2,64,65
 962 433.5 962 433.5 974 415.5 c 0,66,67
 984 397.5 984 397.5 1006 397.5 c 0,68,69
 1018 397.5 1018 397.5 1032 407.5 c 0,70,71
 1042 417.5 1042 417.5 1042 431.5 c 1,72,-1
 1070 431.5 l 1,73,-1
 1070 429.5 l 2,74,75
 1070 409.5 1070 409.5 1050 391.5 c 0,76,77
 1032 373.5 1032 373.5 1006 373.5 c 0,78,79
 968 373.5 968 373.5 950 399.5 c 0,80,81
 930 421.5 930 421.5 930 459.5 c 2,82,-1
 930 465.5 l 2,83,84
 930 505.5 930 505.5 950 527.5 c 0,85,86
 968 551.5 968 551.5 1004 551.5 c 0,87,88
 1032 551.5 1032 551.5 1050 533.5 c 128,-1,89
 1068 515.5 1068 515.5 1068 491.5 c 2,90,-1
 1068 489.5 l 1,91,-1
 1040 489.5 l 1,92,93
 1040 503.5 1040 503.5 1030 517.5 c 0,94,95
 1022 527.5 1022 527.5 1004 527.5 c 0,96,97
 982 527.5 982 527.5 970 511.5 c 0,61,62
1508 1133.5 m 0,98,99
 1510 891.5 1510 891.5 1510 649.5 c 128,-1,100
 1510 407.5 1510 407.5 1508 165.5 c 0,101,102
 1508 65.5 1508 65.5 1450 8.5 c 128,-1,103
 1392 -48.5 1392 -48.5 1292 -48.5 c 2,104,-1
 366 -48.5 l 2,105,106
 268 -48.5 268 -48.5 211 8.5 c 128,-1,107
 154 65.5 154 65.5 152 163.5 c 2,108,-1
 152 651.5 l 1,109,-1
 152 1131.5 l 2,110,111
 152 1235.5 152 1235.5 210 1292.5 c 128,-1,112
 268 1349.5 268 1349.5 372 1349.5 c 2,113,-1
 1290 1349.5 l 2,114,115
 1392 1349.5 1392 1349.5 1450 1292.5 c 128,-1,116
 1508 1235.5 1508 1235.5 1508 1133.5 c 0,98,99
364 1105.5 m 0,117,118
 364 1195.5 364 1195.5 414 1245.5 c 0,119,120
 462 1293.5 462 1293.5 548 1293.5 c 0,121,122
 550 1293.5 550 1293.5 554 1293.5 c 0,123,124
 684 1293.5 684 1293.5 816 1293.5 c 0,125,126
 992 1293.5 992 1293.5 1080 1295.5 c 0,127,128
 1094 1295.5 1094 1295.5 1164 1305.5 c 1,129,130
 900 1315.5 900 1315.5 374 1315.5 c 0,131,132
 282 1315.5 282 1315.5 234 1267.5 c 128,-1,133
 186 1219.5 186 1219.5 186 1129.5 c 2,134,-1
 186 245.5 l 1,135,-1
 186 207.5 l 1,136,137
 194 207.5 194 207.5 196 205.5 c 1,138,139
 306 319.5 306 319.5 338 359.5 c 0,140,141
 362 383.5 362 383.5 362 419.5 c 0,142,143
 364 647.5 364 647.5 364 1105.5 c 0,117,118
1248 387.5 m 0,144,145
 1248 627.5 1248 627.5 1250 745.5 c 2,146,-1
 1250 1113.5 l 2,147,148
 1250 1177.5 1250 1177.5 1212 1217.5 c 128,-1,149
 1174 1257.5 1174 1257.5 1114 1257.5 c 0,150,151
 970 1257.5 970 1257.5 826 1257.5 c 0,152,153
 680 1257.5 680 1257.5 536 1257.5 c 0,154,155
 476 1257.5 476 1257.5 436 1215.5 c 0,156,157
 400 1175.5 400 1175.5 400 1111.5 c 2,158,-1
 400 383.5 l 2,159,160
 400 317.5 400 317.5 439 278.5 c 128,-1,161
 478 239.5 478 239.5 544 239.5 c 2,162,-1
 1102 239.5 l 2,163,164
 1172 239.5 1172 239.5 1210 278.5 c 128,-1,165
 1248 317.5 1248 317.5 1248 387.5 c 0,144,145
EndSplineSet
Validated: 2049
EndChar

StartChar: copyright
Encoding: 169 169 94
Width: 4753
VWidth: 1949
Flags: W
LayerCount: 2
Fore
SplineSet
2034 507.5 m 0,0,1
 2068 499.5 2068 499.5 2088 479.5 c 0,2,3
 2106 465.5 2106 465.5 2106 437.5 c 0,4,5
 2106 407.5 2106 407.5 2084 393.5 c 0,6,7
 2062 375.5 2062 375.5 2028 375.5 c 128,-1,8
 1994 375.5 1994 375.5 1968 393.5 c 0,9,10
 1944 409.5 1944 409.5 1944 443.5 c 2,11,-1
 1944 445.5 l 1,12,-1
 1974 445.5 l 1,13,14
 1974 421.5 1974 421.5 1990 411.5 c 0,15,16
 2006 399.5 2006 399.5 2026 399.5 c 128,-1,17
 2046 399.5 2046 399.5 2060 409.5 c 0,18,19
 2074 417.5 2074 417.5 2074 435.5 c 128,-1,20
 2074 453.5 2074 453.5 2062 461.5 c 0,21,22
 2054 473.5 2054 473.5 2022 479.5 c 0,23,24
 1982 493.5 1982 493.5 1968 505.5 c 0,25,26
 1948 523.5 1948 523.5 1948 547.5 c 0,27,28
 1948 575.5 1948 575.5 1970 593.5 c 0,29,30
 1990 611.5 1990 611.5 2024 611.5 c 0,31,32
 2064 611.5 2064 611.5 2084 591.5 c 128,-1,33
 2104 571.5 2104 571.5 2104 543.5 c 2,34,-1
 2104 541.5 l 1,35,-1
 2074 541.5 l 1,36,37
 2074 559.5 2074 559.5 2060 573.5 c 128,-1,38
 2046 587.5 2046 587.5 2024 587.5 c 0,39,40
 2006 587.5 2006 587.5 1992 575.5 c 0,41,42
 1980 565.5 1980 565.5 1980 549.5 c 128,-1,43
 1980 533.5 1980 533.5 1992 525.5 c 0,44,45
 2012 511.5 2012 511.5 2034 507.5 c 0,0,1
2224 553.5 m 0,46,47
 2254 553.5 2254 553.5 2272 527.5 c 0,48,49
 2290 503.5 2290 503.5 2290 461.5 c 2,50,-1
 2290 457.5 l 2,51,52
 2290 421.5 2290 421.5 2272 399.5 c 0,53,54
 2254 375.5 2254 375.5 2224 375.5 c 0,55,56
 2208 375.5 2208 375.5 2196 381.5 c 128,-1,57
 2184 387.5 2184 387.5 2176 397.5 c 1,58,-1
 2176 315.5 l 1,59,-1
 2144 315.5 l 1,60,-1
 2144 549.5 l 1,61,-1
 2168 549.5 l 1,62,-1
 2174 527.5 l 1,63,64
 2180 537.5 2180 537.5 2194 545.5 c 0,65,66
 2210 553.5 2210 553.5 2224 553.5 c 0,46,47
2258 457.5 m 2,67,-1
 2258 461.5 l 2,68,69
 2258 493.5 2258 493.5 2246 507.5 c 0,70,71
 2232 527.5 2232 527.5 2212 527.5 c 0,72,73
 2202 527.5 2202 527.5 2190 519.5 c 0,74,75
 2180 515.5 2180 515.5 2174 503.5 c 2,76,-1
 2174 421.5 l 1,77,78
 2184 407.5 2184 407.5 2190 405.5 c 0,79,80
 2198 399.5 2198 399.5 2214 399.5 c 0,81,82
 2236 399.5 2236 399.5 2246 415.5 c 0,83,84
 2258 433.5 2258 433.5 2258 457.5 c 2,67,-1
2460 413.5 m 2,85,86
 2460 411.5 2460 411.5 2462 404.5 c 128,-1,87
 2464 397.5 2464 397.5 2464 393.5 c 0,88,89
 2464 381.5 2464 381.5 2466 377.5 c 2,90,-1
 2434 377.5 l 1,91,92
 2434 387.5 2434 387.5 2432 391.5 c 128,-1,93
 2430 395.5 2430 395.5 2430 403.5 c 1,94,95
 2426 391.5 2426 391.5 2408 381.5 c 0,96,97
 2388 373.5 2388 373.5 2378 373.5 c 0,98,99
 2352 373.5 2352 373.5 2338 387.5 c 128,-1,100
 2324 401.5 2324 401.5 2324 425.5 c 0,101,102
 2324 451.5 2324 451.5 2342 463.5 c 0,103,104
 2362 477.5 2362 477.5 2396 477.5 c 2,105,-1
 2430 477.5 l 1,106,-1
 2430 495.5 l 2,107,108
 2430 511.5 2430 511.5 2422 519.5 c 0,109,110
 2412 527.5 2412 527.5 2396 527.5 c 128,-1,111
 2380 527.5 2380 527.5 2370 519.5 c 0,112,113
 2360 513.5 2360 513.5 2360 501.5 c 1,114,-1
 2332 501.5 l 1,115,-1
 2332 503.5 l 2,116,117
 2330 519.5 2330 519.5 2350 537.5 c 0,118,119
 2366 553.5 2366 553.5 2396 553.5 c 0,120,121
 2422 553.5 2422 553.5 2442 537.5 c 0,122,123
 2460 521.5 2460 521.5 2460 495.5 c 2,124,-1
 2460 413.5 l 2,85,86
2430 431.5 m 1,125,-1
 2430 459.5 l 1,126,-1
 2396 459.5 l 2,127,128
 2374 459.5 2374 459.5 2366 449.5 c 0,129,130
 2354 441.5 2354 441.5 2354 427.5 c 0,131,132
 2354 417.5 2354 417.5 2362 409.5 c 0,133,134
 2368 403.5 2368 403.5 2382 403.5 c 0,135,136
 2402 403.5 2402 403.5 2412 411.5 c 0,137,138
 2424 417.5 2424 417.5 2430 431.5 c 1,125,-1
2540 511.5 m 0,139,140
 2530 491.5 2530 491.5 2532 463.5 c 2,141,-1
 2532 457.5 l 2,142,143
 2532 435.5 2532 435.5 2542 415.5 c 0,144,145
 2550 397.5 2550 397.5 2576 397.5 c 0,146,147
 2586 397.5 2586 397.5 2600 407.5 c 0,148,149
 2610 415.5 2610 415.5 2610 431.5 c 1,150,-1
 2638 431.5 l 1,151,-1
 2638 429.5 l 2,152,153
 2638 409.5 2638 409.5 2620 391.5 c 0,154,155
 2598 373.5 2598 373.5 2574 373.5 c 0,156,157
 2538 373.5 2538 373.5 2518 399.5 c 128,-1,158
 2498 425.5 2498 425.5 2498 459.5 c 2,159,-1
 2498 465.5 l 2,160,161
 2498 501.5 2498 501.5 2518 527.5 c 0,162,163
 2538 551.5 2538 551.5 2574 551.5 c 0,164,165
 2602 551.5 2602 551.5 2620 533.5 c 0,166,167
 2636 517.5 2636 517.5 2636 491.5 c 2,168,-1
 2636 489.5 l 1,169,-1
 2608 489.5 l 1,170,171
 2608 507.5 2608 507.5 2598 517.5 c 0,172,173
 2590 527.5 2590 527.5 2574 527.5 c 0,174,175
 2550 527.5 2550 527.5 2540 511.5 c 0,139,140
2742 553.5 m 128,-1,177
 2774 553.5 2774 553.5 2790 535.5 c 0,178,179
 2808 511.5 2808 511.5 2808 477.5 c 2,180,-1
 2808 461.5 l 1,181,-1
 2700 461.5 l 1,182,183
 2700 435.5 2700 435.5 2710 419.5 c 128,-1,184
 2720 403.5 2720 403.5 2746 403.5 c 0,185,186
 2766 403.5 2766 403.5 2774 407.5 c 0,187,188
 2786 411.5 2786 411.5 2794 419.5 c 1,189,-1
 2806 399.5 l 1,190,191
 2800 389.5 2800 389.5 2782 383.5 c 0,192,193
 2766 377.5 2766 377.5 2746 377.5 c 0,194,195
 2710 377.5 2710 377.5 2688 401.5 c 0,196,197
 2668 421.5 2668 421.5 2668 461.5 c 2,198,-1
 2668 469.5 l 2,199,200
 2668 503.5 2668 503.5 2690 529.5 c 0,201,176
 2710 553.5 2710 553.5 2742 553.5 c 128,-1,177
2778 483.5 m 1,202,-1
 2778 487.5 l 2,203,204
 2778 505.5 2778 505.5 2770 517.5 c 128,-1,205
 2762 529.5 2762 529.5 2742 529.5 c 0,206,207
 2726 529.5 2726 529.5 2714 517.5 c 0,208,209
 2702 501.5 2702 501.5 2702 485.5 c 2,210,-1
 2702 483.5 l 1,211,-1
 2778 483.5 l 1,202,-1
4600 1133.5 m 2,212,-1
 4600 165.5 l 2,213,214
 4600 65.5 4600 65.5 4543 8.5 c 128,-1,215
 4486 -48.5 4486 -48.5 4386 -48.5 c 2,216,-1
 366 -48.5 l 2,217,218
 268 -48.5 268 -48.5 211 8.5 c 128,-1,219
 154 65.5 154 65.5 152 163.5 c 2,220,-1
 152 651.5 l 1,221,-1
 152 1131.5 l 2,222,223
 152 1235.5 152 1235.5 210 1292.5 c 128,-1,224
 268 1349.5 268 1349.5 372 1349.5 c 2,225,-1
 4382 1349.5 l 2,226,227
 4484 1349.5 4484 1349.5 4542 1292.5 c 128,-1,228
 4600 1235.5 4600 1235.5 4600 1133.5 c 2,212,-1
362 1105.5 m 2,229,230
 364 1193.5 364 1193.5 414 1245.5 c 0,231,232
 460 1293.5 460 1293.5 544 1293.5 c 0,233,234
 546 1293.5 546 1293.5 550 1293.5 c 0,235,236
 1454 1293.5 1454 1293.5 2360 1293.5 c 0,237,238
 4082 1293.5 4082 1293.5 4170 1295.5 c 0,239,240
 4186 1295.5 4186 1295.5 4256 1305.5 c 1,241,242
 3992 1315.5 3992 1315.5 372 1315.5 c 0,243,244
 282 1315.5 282 1315.5 234 1267.5 c 128,-1,245
 186 1219.5 186 1219.5 186 1129.5 c 2,246,-1
 186 245.5 l 1,247,-1
 186 207.5 l 2,248,249
 192 207.5 192 207.5 196 205.5 c 0,250,251
 198 207.5 198 207.5 254 267.5 c 128,-1,252
 310 327.5 310 327.5 338 359.5 c 0,253,254
 362 383.5 362 383.5 362 419.5 c 2,255,-1
 362 1105.5 l 2,229,230
4340 387.5 m 0,256,257
 4340 627.5 4340 627.5 4342 745.5 c 2,258,-1
 4342 1113.5 l 2,259,260
 4342 1177.5 4342 1177.5 4305 1216.5 c 128,-1,261
 4268 1255.5 4268 1255.5 4206 1257.5 c 0,262,263
 4062 1259.5 4062 1259.5 2372 1259.5 c 128,-1,264
 682 1259.5 682 1259.5 536 1257.5 c 0,265,266
 474 1255.5 474 1255.5 436 1215.5 c 128,-1,267
 398 1175.5 398 1175.5 398 1111.5 c 2,268,-1
 398 383.5 l 2,269,270
 398 317.5 398 317.5 437 278.5 c 128,-1,271
 476 239.5 476 239.5 544 239.5 c 2,272,-1
 4194 239.5 l 2,273,274
 4264 239.5 4264 239.5 4302 278.5 c 128,-1,275
 4340 317.5 4340 317.5 4340 387.5 c 0,256,257
EndSplineSet
Validated: 3073
EndChar

StartChar: ordfeminine
Encoding: 170 170 95
Width: 1843
VWidth: 122
LayerCount: 2
Fore
SplineSet
1024 1297 m 0,0,1
 1136 1297 1136 1297 1236 1254 c 0,2,3
 1338 1210 1338 1210 1411 1137 c 128,-1,4
 1484 1064 1484 1064 1527 963 c 128,-1,5
 1570 862 1570 862 1570 751 c 2,6,-1
 1570 477 l 2,7,8
 1570 366 1570 366 1527 265 c 128,-1,9
 1484 164 1484 164 1411 91 c 0,10,11
 1339 19 1339 19 1237 -25 c 128,-1,12
 1135 -69 1135 -69 1024 -69 c 0,13,14
 912 -69 912 -69 812 -26 c 0,15,16
 710 18 710 18 637 91 c 128,-1,17
 564 164 564 164 521 265 c 128,-1,18
 478 366 478 366 478 477 c 2,19,-1
 478 751 l 2,20,21
 478 862 478 862 521 963 c 128,-1,22
 564 1064 564 1064 637 1137 c 128,-1,23
 710 1210 710 1210 811.5 1253.5 c 128,-1,24
 913 1297 913 1297 1024 1297 c 0,0,1
956 1154 m 1,25,26
 859 1138 859 1138 781 1082 c 0,27,28
 705 1027 705 1027 659 939 c 0,29,30
 614 852 614 852 614 751 c 1,31,-1
 956 751 l 1,32,-1
 956 1154 l 1,25,26
614 614 m 1,33,-1
 614 477 l 2,34,35
 614 393 614 393 646 317 c 128,-1,36
 678 241 678 241 733 186 c 0,37,38
 787 132 787 132 863 100 c 128,-1,39
 939 68 939 68 1024 68 c 128,-1,40
 1109 68 1109 68 1185 100 c 128,-1,41
 1261 132 1261 132 1315 186 c 0,42,43
 1370 241 1370 241 1402 317 c 128,-1,44
 1434 393 1434 393 1434 477 c 2,45,-1
 1434 614 l 1,46,-1
 614 614 l 1,33,-1
EndSplineSet
Validated: 1
EndChar

StartChar: guillemotleft
Encoding: 171 171 96
Width: 1843
VWidth: 122
LayerCount: 2
Fore
SplineSet
1024 1297 m 0,0,1
 1136 1297 1136 1297 1236 1254 c 0,2,3
 1338 1210 1338 1210 1411 1137 c 128,-1,4
 1484 1064 1484 1064 1527 963 c 128,-1,5
 1570 862 1570 862 1570 751 c 2,6,-1
 1570 477 l 2,7,8
 1570 366 1570 366 1527 265 c 128,-1,9
 1484 164 1484 164 1411 91 c 0,10,11
 1339 19 1339 19 1237 -25 c 128,-1,12
 1135 -69 1135 -69 1024 -69 c 0,13,14
 912 -69 912 -69 812 -26 c 0,15,16
 710 18 710 18 637 91 c 128,-1,17
 564 164 564 164 521 265 c 128,-1,18
 478 366 478 366 478 477 c 2,19,-1
 478 751 l 2,20,21
 478 862 478 862 521 963 c 128,-1,22
 564 1064 564 1064 637 1137 c 128,-1,23
 710 1210 710 1210 811.5 1253.5 c 128,-1,24
 913 1297 913 1297 1024 1297 c 0,0,1
1092 1154 m 1,25,-1
 1092 751 l 1,26,-1
 1434 751 l 1,27,28
 1434 852 1434 852 1389 939 c 0,29,30
 1345 1026 1345 1026 1267.5 1082 c 128,-1,31
 1190 1138 1190 1138 1092 1154 c 1,25,-1
614 614 m 1,32,-1
 614 477 l 2,33,34
 614 393 614 393 646 317 c 128,-1,35
 678 241 678 241 733 186 c 0,36,37
 787 132 787 132 863 100 c 128,-1,38
 939 68 939 68 1024 68 c 128,-1,39
 1109 68 1109 68 1185 100 c 128,-1,40
 1261 132 1261 132 1315 186 c 0,41,42
 1370 241 1370 241 1402 317 c 128,-1,43
 1434 393 1434 393 1434 477 c 2,44,-1
 1434 614 l 1,45,-1
 614 614 l 1,32,-1
EndSplineSet
Validated: 1
EndChar
